<svg width="60" height="60" viewBox="0 0 60 60" fill="none" xmlns="http://www.w3.org/2000/svg">
<g id="Icons2">
<path id="Vector" d="M56.2498 34.9999H3.74977C4.05143 34.2432 4.40477 33.5082 4.80727 32.7999L9.94977 23.7999C11.0454 21.8886 12.6254 20.2999 14.5307 19.1938C16.436 18.0878 18.5992 17.5035 20.8023 17.4999H39.1973C41.4004 17.503 43.5638 18.0871 45.4692 19.1932C47.3746 20.2993 48.9546 21.8883 50.0498 23.7999L55.1923 32.7999C55.5947 33.5082 55.9481 34.2433 56.2498 34.9999ZM47.4998 39.9999V42.4999C47.4998 43.163 47.2364 43.7989 46.7675 44.2677C46.2987 44.7366 45.6628 44.9999 44.9998 44.9999C44.3367 44.9999 43.7008 44.7366 43.232 44.2677C42.7632 43.7989 42.4998 43.163 42.4998 42.4999V39.9999H17.4998V42.4999C17.4998 43.163 17.2364 43.7989 16.7675 44.2677C16.2987 44.7366 15.6628 44.9999 14.9998 44.9999C14.3367 44.9999 13.7008 44.7366 13.232 44.2677C12.7632 43.7989 12.4998 43.163 12.4998 42.4999V39.9999H2.56477C2.52144 40.4999 2.49977 40.9949 2.49977 41.4849V44.9999C2.50025 46.7548 2.96255 48.4787 3.84021 49.9984C4.71786 51.5181 5.97998 52.78 7.49977 53.6574V54.9999C7.49977 56.326 8.02656 57.5978 8.96424 58.5355C9.90192 59.4732 11.1737 59.9999 12.4998 59.9999C13.8259 59.9999 15.0976 59.4732 16.0353 58.5355C16.973 57.5978 17.4998 56.326 17.4998 54.9999H42.4998C42.4998 56.326 43.0266 57.5978 43.9642 58.5355C44.9019 59.4732 46.1737 59.9999 47.4998 59.9999C48.8259 59.9999 50.0976 59.4732 51.0353 58.5355C51.973 57.5978 52.4998 56.326 52.4998 54.9999V53.6574C54.0196 52.78 55.2817 51.5181 56.1593 49.9984C57.037 48.4787 57.4993 46.7548 57.4998 44.9999V41.4849C57.4998 40.9849 57.4781 40.4899 57.4348 39.9999H47.4998ZM57.4998 9.99995H54.9998C54.3367 9.99995 53.7008 9.73656 53.232 9.26772C52.7632 8.79887 52.4998 8.16299 52.4998 7.49995C52.4998 6.83691 52.7632 6.20102 53.232 5.73218C53.7008 5.26334 54.3367 4.99995 54.9998 4.99995H57.4998C59.1823 4.99995 59.0623 3.87995 58.7323 3.37745C57.9548 2.22924 56.8757 1.31775 55.6137 0.743254C54.3517 0.168761 52.9556 -0.046462 51.5791 0.121267C50.2027 0.288996 48.8992 0.833175 47.812 1.69393C46.7249 2.55468 45.8962 3.69865 45.4173 4.99995H14.6123C14.1333 3.69865 13.3047 2.55468 12.2175 1.69393C11.1304 0.833175 9.82687 0.288996 8.45041 0.121267C7.07395 -0.046462 5.67789 0.168761 4.41585 0.743254C3.15381 1.31775 2.07471 2.22924 1.29727 3.37745C-0.00022912 5.70745 4.81477 4.84745 5.02977 4.99995C5.69281 4.99995 6.3287 5.26334 6.79754 5.73218C7.26638 6.20102 7.52977 6.83691 7.52977 7.49995C7.52977 8.16299 7.26638 8.79887 6.79754 9.26772C6.3287 9.73656 5.69281 9.99995 5.02977 9.99995H2.52977C0.847271 9.99995 0.967271 11.1199 1.29727 11.6224C2.07471 12.7707 3.15381 13.6822 4.41585 14.2566C5.67789 14.8311 7.07395 15.0464 8.45041 14.8786C9.82687 14.7109 11.1304 14.1667 12.2175 13.306C13.3047 12.4452 14.1333 11.3013 14.6123 9.99995H45.4173C45.8962 11.3013 46.7249 12.4452 47.812 13.306C48.8992 14.1667 50.2027 14.7109 51.5791 14.8786C52.9556 15.0464 54.3517 14.8311 55.6137 14.2566C56.8757 13.6822 57.9548 12.7707 58.7323 11.6224C59.0623 11.1199 59.1823 9.99995 57.4998 9.99995Z" fill="#2472D9"/>
</g>
</svg>
