<svg width="60" height="60" viewBox="0 0 60 60" fill="none" xmlns="http://www.w3.org/2000/svg">
<g id="Icons3" clip-path="url(#clip0_724_1793)">
<path id="Vector" d="M50 7.5C50 3.365 46.635 0 42.5 0H7.5C3.365 0 0 3.365 0 7.5V12.5C0 16.635 3.365 20 7.5 20H42.5C46.635 20 50 16.635 50 12.5C52.7575 12.5 55 14.7425 55 17.5V20C55 22.7575 52.7575 25 50 25H32.5C26.985 25 22.5 29.485 22.5 35V35.46C19.5975 36.495 17.5 39.245 17.5 42.5V52.5C17.5 56.635 20.865 60 25 60C29.135 60 32.5 56.635 32.5 52.5V42.5C32.5 39.245 30.4025 36.495 27.5 35.46V35C27.5 32.2425 29.7425 30 32.5 30H50C55.515 30 60 25.515 60 20V17.5C60 11.985 55.515 7.5 50 7.5Z" fill="#2472D9"/>
</g>
<defs>
<clipPath id="clip0_724_1793">
<rect width="60" height="60" fill="white"/>
</clipPath>
</defs>
</svg>
