<svg width="60" height="60" viewBox="0 0 60 60" fill="none" xmlns="http://www.w3.org/2000/svg">
<g id="Icons4" clip-path="url(#clip0_724_1796)">
<path id="Vector" d="M39.9725 31.75V25C39.9725 24.337 40.2358 23.7011 40.7047 23.2323C41.1735 22.7634 41.8094 22.5 42.4724 22.5H44.9724C45.6355 22.5 46.2714 22.2367 46.7402 21.7678C47.2091 21.299 47.4724 20.6631 47.4724 20V17.5C47.4724 16.837 47.7358 16.2011 48.2047 15.7323C48.6735 15.2634 49.3094 15 49.9724 15H56.6849C57.1726 14.9977 57.6493 14.855 58.058 14.589C58.4668 14.323 58.7903 13.945 58.9899 13.5C59.8343 11.6405 60.1591 9.58692 59.9299 7.55754C59.6443 5.44461 58.5951 3.50934 56.9803 2.11702C55.3655 0.7247 53.2969 -0.0283404 51.1649 4.15753e-05C48.1568 0.000231821 45.2719 1.19537 43.1449 3.32254L23.3749 23.0875C20.1882 22.2597 16.8378 22.3011 13.6724 23.2075C9.31759 24.439 5.55508 27.204 3.0792 30.9923C0.603322 34.7806 -0.418833 39.3366 0.201351 43.8195C0.821535 48.3024 3.0422 52.4098 6.45358 55.3836C9.86496 58.3575 14.2368 59.9971 18.7624 60C19.4171 59.9994 20.0713 59.9652 20.7224 59.8975C24.4478 59.4919 27.9674 57.9836 30.8303 55.5656C33.6932 53.1476 35.7692 49.93 36.7924 46.325C37.7018 43.1609 37.7424 39.8103 36.91 36.625L38.5349 35C39.3991 34.1314 39.9111 32.9737 39.9725 31.75ZM13.7499 50C13.0083 50 12.2832 49.7801 11.6666 49.368C11.0499 48.956 10.5692 48.3703 10.2854 47.6851C10.0016 46.9999 9.92731 46.2459 10.072 45.5185C10.2167 44.791 10.5738 44.1228 11.0983 43.5984C11.6227 43.0739 12.2909 42.7168 13.0184 42.5721C13.7458 42.4274 14.4998 42.5017 15.185 42.7855C15.8702 43.0693 16.4559 43.55 16.868 44.1667C17.28 44.7833 17.4999 45.5084 17.4999 46.25C17.4999 47.2446 17.1049 48.1984 16.4016 48.9017C15.6983 49.6049 14.7445 50 13.7499 50Z" fill="#2472D9"/>
</g>
<defs>
<clipPath id="clip0_724_1796">
<rect width="60" height="60" fill="white"/>
</clipPath>
</defs>
</svg>
