<svg width="60" height="60" viewBox="0 0 60 60" fill="none" xmlns="http://www.w3.org/2000/svg">
<g id="Icons7" clip-path="url(#clip0_724_1794)">
<path id="Vector" d="M52.5 15H12.5C10.3525 15 8.32 14.07 6.9125 12.5025C8.2875 10.9675 10.285 10 12.5 10H57.5C60.77 9.985 60.7675 5.0125 57.5 5H12.5C5.5975 5 0 10.5975 0 17.5V42.5C0 49.4025 5.5975 55 12.5 55H52.5C56.6425 55 60 51.6425 60 47.5V22.5C60 18.3575 56.6425 15 52.5 15ZM50 37.5C46.73 37.485 46.73 32.515 50 32.5C53.27 32.515 53.27 37.485 50 37.5Z" fill="#2472D9"/>
</g>
<defs>
<clipPath id="clip0_724_1794">
<rect width="60" height="60" fill="white"/>
</clipPath>
</defs>
</svg>
