<svg width="60" height="60" viewBox="0 0 60 60" fill="none" xmlns="http://www.w3.org/2000/svg">
<g id="Icons5" clip-path="url(#clip0_724_1795)">
<path id="Vector" d="M47.5 12.5H40V10C40 8.01088 39.2098 6.10322 37.8033 4.6967C36.3968 3.29018 34.4891 2.5 32.5 2.5H27.5C25.5109 2.5 23.6032 3.29018 22.1967 4.6967C20.7902 6.10322 20 8.01088 20 10V12.5H12.5C9.18601 12.504 6.00889 13.8222 3.66555 16.1655C1.3222 18.5089 0.00396964 21.686 0 25L0 45C0.00396964 48.314 1.3222 51.4911 3.66555 53.8344C6.00889 56.1778 9.18601 57.496 12.5 57.5H47.5C50.814 57.496 53.9911 56.1778 56.3345 53.8344C58.6778 51.4911 59.996 48.314 60 45V25C59.996 21.686 58.6778 18.5089 56.3345 16.1655C53.9911 13.8222 50.814 12.504 47.5 12.5ZM25 10C25 9.33696 25.2634 8.70107 25.7322 8.23223C26.2011 7.76339 26.837 7.5 27.5 7.5H32.5C33.163 7.5 33.7989 7.76339 34.2678 8.23223C34.7366 8.70107 35 9.33696 35 10V12.5H25V10ZM37.5 37.5H32.5V42.5C32.5 43.163 32.2366 43.7989 31.7678 44.2678C31.2989 44.7366 30.663 45 30 45C29.337 45 28.7011 44.7366 28.2322 44.2678C27.7634 43.7989 27.5 43.163 27.5 42.5V37.5H22.5C21.837 37.5 21.2011 37.2366 20.7322 36.7678C20.2634 36.2989 20 35.663 20 35C20 34.337 20.2634 33.7011 20.7322 33.2322C21.2011 32.7634 21.837 32.5 22.5 32.5H27.5V27.5C27.5 26.837 27.7634 26.2011 28.2322 25.7322C28.7011 25.2634 29.337 25 30 25C30.663 25 31.2989 25.2634 31.7678 25.7322C32.2366 26.2011 32.5 26.837 32.5 27.5V32.5H37.5C38.163 32.5 38.7989 32.7634 39.2678 33.2322C39.7366 33.7011 40 34.337 40 35C40 35.663 39.7366 36.2989 39.2678 36.7678C38.7989 37.2366 38.163 37.5 37.5 37.5Z" fill="#2472D9"/>
</g>
<defs>
<clipPath id="clip0_724_1795">
<rect width="60" height="60" fill="white"/>
</clipPath>
</defs>
</svg>
