<svg width="60" height="60" viewBox="0 0 60 60" fill="none" xmlns="http://www.w3.org/2000/svg">
<g id="Icons8" clip-path="url(#clip0_724_1799)">
<path id="Vector" d="M47.5 7.5H12.5C9.18601 7.50397 6.00889 8.82221 3.66555 11.1655C1.3222 13.5089 0.00396964 16.686 0 20H60C59.996 16.686 58.6778 13.5089 56.3345 11.1655C53.9911 8.82221 50.814 7.50397 47.5 7.5Z" fill="#2472D9"/>
<path id="Vector_2" d="M0 40C0.00396964 43.314 1.3222 46.4911 3.66555 48.8344C6.00889 51.1778 9.18601 52.496 12.5 52.5H47.5C50.814 52.496 53.9911 51.1778 56.3345 48.8344C58.6778 46.4911 59.996 43.314 60 40V25H0V40ZM17.5 38.75C17.5 39.4917 17.2801 40.2167 16.868 40.8334C16.456 41.4501 15.8703 41.9307 15.1851 42.2145C14.4998 42.4984 13.7458 42.5726 13.0184 42.4279C12.291 42.2832 11.6228 41.9261 11.0983 41.4016C10.5739 40.8772 10.2167 40.209 10.0721 39.4816C9.92736 38.7542 10.0016 38.0002 10.2855 37.3149C10.5693 36.6297 11.0499 36.044 11.6666 35.632C12.2833 35.2199 13.0083 35 13.75 35C14.7446 35 15.6984 35.3951 16.4017 36.0983C17.1049 36.8016 17.5 37.7554 17.5 38.75Z" fill="#2472D9"/>
</g>
<defs>
<clipPath id="clip0_724_1799">
<rect width="60" height="60" fill="white"/>
</clipPath>
</defs>
</svg>
