<svg width="60" height="60" viewBox="0 0 60 60" fill="none" xmlns="http://www.w3.org/2000/svg">
<g id="Icons6" clip-path="url(#clip0_724_1792)">
<path id="Vector" d="M27.0299 60H19.9999L27.5949 37.5H14.9999L12.2874 41.6325C11.6052 42.6685 10.6762 43.5187 9.5839 44.1065C8.4916 44.6943 7.2703 45.0013 6.02988 45H0.107383L5.60738 30L0.0673828 15H5.99988C7.23821 14.9984 8.45755 15.3043 9.54844 15.8903C10.6393 16.4763 11.5676 17.3241 12.2499 18.3575L14.9999 22.5H27.6024L19.9999 1.28509e-07H27.0299C28.3773 -0.000249261 29.6999 0.362487 30.8586 1.05008C32.0174 1.73768 32.9695 2.72473 33.6149 3.9075L43.9699 22.5H52.2324C54.0405 22.4773 55.799 23.0908 57.2006 24.2332C58.6022 25.3757 59.5576 26.9745 59.8999 28.75C60.0817 29.8258 60.0267 30.9284 59.7385 31.9808C59.4503 33.0332 58.936 34.01 58.2314 34.8431C57.5268 35.6762 56.649 36.3456 55.659 36.8045C54.6691 37.2633 53.591 37.5007 52.4999 37.5H43.9699L33.6049 56.11C32.958 57.288 32.0065 58.2706 30.8498 58.9549C29.6931 59.6392 28.3738 60.0002 27.0299 60Z" fill="#2472D9"/>
</g>
<defs>
<clipPath id="clip0_724_1792">
<rect width="60" height="60" fill="white"/>
</clipPath>
</defs>
</svg>
