<svg width="60" height="60" viewBox="0 0 60 60" fill="none" xmlns="http://www.w3.org/2000/svg">
<g id="Icons1" clip-path="url(#clip0_724_1798)">
<path id="Vector" d="M42.5 13.975V7.5L50 0V10H60L52.5 17.5H46.025L34.8 28.725C34.9 29.125 34.975 29.55 34.975 30C34.975 32.75 32.725 35 29.975 35C27.225 35 24.975 32.75 24.975 30C24.975 27.25 27.225 25 29.975 25C30.425 25 30.85 25.075 31.25 25.175L42.475 13.95L42.5 13.975ZM54.575 22.5H51.225C52.025 24.825 52.5 27.3 52.5 29.9C51.375 59.8 8.625 59.8 7.5 29.9C7.5 17.45 17.6 7.325 30 7.325C32.625 7.325 35.15 7.8 37.5 8.65V5.425L40.975 1.95C23.75 -4.425 0.95 4.875 0 29.9C0 46.5 13.45 60 30 60C46.55 60 60 46.5 60 29.9C59.85 25.9 59.125 22.3 57.95 19.1L54.575 22.475V22.5ZM29.475 19.925L36 13.4C34.225 12.775 32.225 12.4 30 12.35C6.875 13.075 6.875 46.725 30 47.475C44.175 47.025 49.65 34.2 46.45 24.175L39.825 30.8C39.45 35.425 36.2 39.775 30 39.95C16.575 39.65 15.4 20.9 29.45 19.95L29.475 19.925Z" fill="#2472D9"/>
</g>
<defs>
<clipPath id="clip0_724_1798">
<rect width="60" height="60" fill="white"/>
</clipPath>
</defs>
</svg>
