<svg width="183" height="39" viewBox="0 0 183 39" fill="none" xmlns="http://www.w3.org/2000/svg">
<g id="Group">
<path id="Vector" fill-rule="evenodd" clip-rule="evenodd" d="M56.147 26.6753V11.4956C56.147 5.23675 51.0702 0.128906 44.8493 0.128906H42.1678V6.92737C42.1678 16.3157 34.5525 23.9775 25.2211 23.9775H18.4639V26.6753C18.4639 32.9342 23.5407 38.042 29.7616 38.042H44.8135C51.0702 38.042 56.147 32.9342 56.147 26.6753Z" fill="#8E99AA"/>
<path id="Vector_2" fill-rule="evenodd" clip-rule="evenodd" d="M36.5195 6.92737V0.128906H29.7623C23.5413 0.128906 18.4645 5.23675 18.4645 11.4956V18.2581H25.186C31.4426 18.2941 36.5195 13.1863 36.5195 6.92737ZM5.09308 5.38063H0.302246V10.2007C0.302246 14.6611 3.91324 18.2941 8.34655 18.2941H13.1374V13.4381C13.1374 8.9777 9.52638 5.38063 5.09308 5.38063Z" fill="#8E99AA"/>
<path id="Vector_3" d="M96.5836 11.4237V36.927C96.5836 36.927 96.7266 37.9342 97.7277 37.9342H101.982C101.982 37.9342 102.948 37.8622 102.948 36.8551V11.4237C102.948 11.4237 102.983 10.2367 101.803 10.2367H97.5489C97.5489 10.2007 96.5836 10.1288 96.5836 11.4237ZM112.386 10.2367H108.632C108.632 10.2367 107.274 10.1288 107.56 11.4237C107.846 12.7186 113.888 34.3011 113.888 34.3011C113.888 34.3011 115.103 37.8622 119.68 37.8622C124.22 37.8622 125.221 34.373 125.221 34.373L131.585 11.7834C131.585 11.7834 132.086 10.1288 130.906 10.1288H126.33C126.33 10.1288 125.293 10.2367 125.043 11.3518C124.792 12.4669 120.431 31.927 120.431 31.927C120.431 31.927 120.323 32.6464 119.644 32.6464C118.965 32.6464 118.714 31.8191 118.714 31.8191L114.102 11.3877C114.138 11.4237 113.959 10.1647 112.386 10.2367ZM72.1289 10.2367H68.3392C68.3392 10.2367 66.9806 10.1288 67.2666 11.4237C67.5526 12.7186 73.5948 34.337 73.5948 34.337C73.5948 34.337 74.8104 37.9342 79.3867 37.9342C83.963 37.9342 84.9283 34.445 84.9283 34.445L91.2923 11.8194C91.2923 11.8194 91.7928 10.1647 90.613 10.1647H86.0724C86.0724 10.1647 85.0356 10.2726 84.7853 11.3877C84.535 12.5028 80.1732 31.9989 80.1732 31.9989C80.1732 31.9989 80.066 32.7184 79.3867 32.7184C78.7074 32.7184 78.4571 31.891 78.4571 31.891L73.8451 11.4237C73.8451 11.4237 73.6663 10.1647 72.1289 10.2367ZM135.804 11.1719V28.1861C135.804 28.1861 136.162 37.8982 146.995 37.8982C157.828 37.8982 157.971 28.6896 157.971 28.6896V11.3158C157.971 11.3158 158.114 10.2007 156.898 10.2007H152.679C152.679 10.2007 151.75 9.98487 151.75 11.2798V28.8335C151.75 28.8335 151.213 32.4666 147.03 32.4666C142.847 32.5025 142.24 28.7616 142.24 28.7616V11.6755C142.24 11.6755 142.347 10.1647 141.131 10.1647H136.734C136.698 10.1647 135.804 10.1647 135.804 11.1719ZM180.28 15.6323C180.28 15.6323 175.096 15.1287 172.915 15.2006C170.77 15.2366 169.447 15.4884 169.447 17.0711C169.447 18.6538 171.378 19.3373 172.879 20.2365C174.595 21.2437 178.564 23.4739 179.744 24.553C180.924 25.6321 182.461 27.2868 182.461 30.2724C182.461 33.2579 180.888 36.0996 177.992 37.1428C175.096 38.186 169.697 37.9342 167.481 37.5745C165.264 37.2148 164.692 37.0709 164.299 36.927C163.906 36.7831 163.369 36.4954 163.369 35.632V33.222C163.369 33.222 163.333 31.8551 164.835 32.1428C166.372 32.4306 170.377 32.9702 172.45 32.8622C174.524 32.7543 175.918 32.5745 176.097 30.7759C176.24 28.9774 174.095 28.294 171.986 26.8911C169.876 25.5242 167.981 24.553 166.337 23.2221C164.728 21.8912 163.19 19.4092 163.19 16.7114C163.19 14.0136 165.05 10.0928 172.164 10.0928C178.349 10.0928 180.709 10.7762 181.031 10.8841C181.388 10.9921 181.817 11.2079 181.817 11.9992C181.817 12.7906 181.817 14.697 181.817 14.697C181.817 14.697 181.96 15.8481 180.28 15.6323ZM96.5836 1.38788V5.48854C96.5836 5.48854 96.6909 6.53169 97.5847 6.53169H101.875C101.875 6.53169 102.948 6.60363 102.948 5.45257V1.38788C102.948 1.38788 103.126 0.236816 101.625 0.236816H97.8707C96.4406 0.236816 96.5836 1.38788 96.5836 1.38788Z" fill="#8E99AA"/>
</g>
</svg>
