<svg width="186" height="44" viewBox="0 0 186 44" fill="none" xmlns="http://www.w3.org/2000/svg">
<g id="partners logo2" clip-path="url(#clip0_69_830)">
<path id="Vector" d="M185.398 39.7079C185.401 40.4201 185.191 41.117 184.794 41.7103C184.398 42.3036 183.834 42.7665 183.172 43.0403C182.511 43.314 181.783 43.3864 181.08 43.2481C180.377 43.1098 179.732 42.7671 179.226 42.2635C178.719 41.76 178.374 41.1182 178.236 40.4195C178.096 39.7209 178.169 38.9969 178.444 38.3395C178.719 37.682 179.185 37.1207 179.782 36.7267C180.379 36.3327 181.08 36.1238 181.796 36.1266C182.27 36.1229 182.74 36.2131 183.179 36.3918C183.618 36.5704 184.016 36.8341 184.351 37.1674C184.686 37.5007 184.952 37.897 185.132 38.3331C185.312 38.7693 185.402 39.2366 185.398 39.7079ZM184.727 39.7079C184.713 39.1314 184.529 38.5716 184.197 38.099C183.864 37.6263 183.399 37.2616 182.859 37.0508C182.319 36.8401 181.729 36.7925 181.162 36.9142C180.595 37.0358 180.077 37.3212 179.673 37.7347C179.268 38.148 178.995 38.6709 178.888 39.2378C178.782 39.8047 178.846 40.3902 179.073 40.921C179.299 41.4518 179.679 41.9041 180.164 42.2213C180.648 42.5385 181.216 42.7063 181.796 42.7038C182.189 42.7077 182.579 42.6323 182.942 42.4822C183.305 42.3319 183.633 42.11 183.907 41.8299C184.181 41.5498 184.395 41.2173 184.536 40.8525C184.677 40.4879 184.742 40.0984 184.727 39.7079ZM182.125 37.9104C182.277 37.8932 182.432 37.9082 182.579 37.9543C182.726 38.0005 182.861 38.0767 182.976 38.1782C183.091 38.2796 183.182 38.404 183.246 38.5432C183.31 38.6825 183.343 38.8334 183.344 38.9862C183.349 39.2224 183.276 39.4538 183.134 39.6437C182.993 39.8336 182.792 39.9712 182.563 40.0347L183.454 41.5054H182.645L181.823 40.1437H181.193V41.5054H180.495V37.9104H182.125ZM181.193 39.5718H181.974C182.344 39.5718 182.618 39.3947 182.618 39.0271C182.618 38.6594 182.371 38.4824 181.974 38.4824H181.193V39.5718Z" fill="#8E99AA"/>
<path id="Vector_2" d="M166.36 17.3885C166.329 17.0875 166.365 16.7833 166.465 16.4978C166.566 16.2122 166.729 15.9521 166.942 15.7362C167.155 15.5203 167.413 15.3538 167.699 15.2487C167.984 15.1435 168.289 15.1024 168.593 15.128H171.017C171.321 15.1027 171.626 15.144 171.913 15.2491C172.199 15.3541 172.458 15.5203 172.672 15.7359C172.886 15.9515 173.05 16.2113 173.152 16.4969C173.254 16.7824 173.292 17.0868 173.263 17.3885V18.0694C173.294 18.3722 173.259 18.6781 173.157 18.9654C173.056 19.2526 172.892 19.5141 172.678 19.7313C172.463 19.9484 172.203 20.1159 171.916 20.2217C171.629 20.3275 171.322 20.3691 171.017 20.3435H168.593C168.288 20.3694 167.982 20.328 167.695 20.2222C167.409 20.1162 167.149 19.9485 166.936 19.731C166.723 19.5135 166.56 19.2517 166.46 18.9644C166.361 18.6771 166.326 18.3714 166.36 18.0694V17.3885Z" fill="#8E99AA"/>
<path id="Vector_3" d="M74.2363 34.3694C74.2363 37.7328 75.7564 39.1082 77.9341 39.1082C79.9808 38.8704 81.8551 37.8556 83.1663 36.2758V23.0532C83.1609 22.8949 83.1873 22.7371 83.2454 22.5893C83.3028 22.4416 83.39 22.307 83.5009 22.1937C83.6124 22.0804 83.7462 21.9907 83.8929 21.9302C84.0403 21.8696 84.1984 21.8394 84.3579 21.8413H88.7135C88.8716 21.8412 89.0284 21.8728 89.1737 21.9342C89.3197 21.9956 89.4515 22.0855 89.561 22.1986C89.6712 22.3118 89.7571 22.4457 89.8138 22.5925C89.8706 22.7393 89.897 22.8961 89.8916 23.0532V42.2538C89.899 42.4121 89.874 42.5703 89.8179 42.7187C89.7625 42.8671 89.6766 43.0028 89.5665 43.1173C89.4563 43.2319 89.3238 43.3231 89.1771 43.3853C89.0305 43.4476 88.873 43.4795 88.7135 43.4794H84.4262C84.2667 43.4795 84.1078 43.4475 83.9605 43.3855C83.8132 43.3234 83.68 43.2324 83.5692 43.1181C83.4576 43.0037 83.3711 42.8682 83.3137 42.7197C83.2562 42.5713 83.2292 42.4128 83.2346 42.2538V41.0146C81.4083 42.8103 78.9548 43.8349 76.3863 43.8743C71.2089 43.8743 67.5384 41.0827 67.5384 34.3421V23.0532C67.5348 22.8954 67.5629 22.7384 67.6211 22.5915C67.6793 22.4446 67.7665 22.3107 67.8774 22.1979C67.9889 22.085 68.1214 21.9953 68.2674 21.934C68.414 21.8728 68.5708 21.8413 68.7297 21.8413H73.0717C73.2319 21.8395 73.3907 21.8696 73.5387 21.93C73.6868 21.9904 73.8206 22.0799 73.9335 22.193C74.0457 22.3061 74.1342 22.4405 74.193 22.5883C74.2525 22.7361 74.2809 22.8943 74.2775 23.0532L74.2363 34.3694Z" fill="#8E99AA"/>
<path id="Vector_4" d="M99.3562 34.2333C99.6435 37.4606 101.068 38.8905 104.342 38.8905C105.039 38.9436 105.74 38.8497 106.398 38.615C107.057 38.3804 107.658 38.0102 108.163 37.5287C108.435 37.1898 108.784 36.9202 109.182 36.7426C109.58 36.565 110.015 36.4843 110.45 36.5075H113.368C113.527 36.5055 113.685 36.5358 113.832 36.5963C113.979 36.6569 114.113 36.7465 114.224 36.8598C114.336 36.9731 114.423 37.1077 114.48 37.2555C114.538 37.4032 114.565 37.5611 114.559 37.7194C114.559 41.9136 110.3 43.3706 103.917 43.3706C96.8222 43.3706 92.562 39.4897 92.562 32.1771C92.562 24.8646 96.7533 20.9155 103.862 20.9155C110.971 20.9155 115.217 24.7556 115.217 31.8094V32.9397C115.222 33.098 115.195 33.2558 115.138 33.4036C115.08 33.5513 114.993 33.686 114.882 33.7993C114.77 33.9126 114.637 34.0022 114.49 34.0628C114.342 34.1233 114.184 34.1536 114.025 34.1516L99.3562 34.2333ZM99.3562 30.0664H108.396C108.273 27.0433 106.834 25.4229 103.889 25.4229C100.945 25.4229 99.4927 27.0433 99.3285 30.0664H99.3562Z" fill="#8E99AA"/>
<path id="Vector_5" d="M128.817 43.3706C122.284 43.3706 118.134 41.9136 118.134 37.7194C118.128 37.5611 118.155 37.4032 118.212 37.2555C118.27 37.1077 118.357 36.9731 118.469 36.8598C118.58 36.7465 118.713 36.6569 118.861 36.5963C119.008 36.5358 119.166 36.5055 119.326 36.5075H122.243C122.671 36.4963 123.097 36.5853 123.484 36.7674C123.872 36.9496 124.212 37.2196 124.475 37.556C124.986 38.0407 125.595 38.4125 126.26 38.6472C126.926 38.8819 127.634 38.9741 128.338 38.9177C131.693 38.9177 132.803 38.1415 132.803 37.0113C132.803 33.6478 118.093 35.5134 118.093 27.3429C118.093 22.7538 122.599 20.9155 128.256 20.9155C134.802 20.9155 138.939 22.3726 138.939 26.5803C138.943 26.7382 138.915 26.8952 138.857 27.0421C138.798 27.189 138.711 27.3228 138.6 27.4357C138.489 27.5487 138.356 27.6384 138.21 27.6996C138.064 27.7608 137.906 27.7923 137.747 27.7923H134.789C134.362 27.8013 133.94 27.7112 133.555 27.5292C133.169 27.3471 132.832 27.0782 132.57 26.7438C132.058 26.2573 131.447 25.8844 130.779 25.6497C130.111 25.4149 129.4 25.3237 128.694 25.382C125.955 25.382 124.832 26.1446 124.832 27.2748C124.832 30.6383 139.542 28.6366 139.542 36.9432C139.542 41.5595 135.104 43.3706 128.817 43.3706Z" fill="#8E99AA"/>
<path id="Vector_6" d="M149.184 30.3116C150.145 30.3895 151.105 30.1694 151.935 29.6816C152.764 29.1938 153.42 28.4624 153.814 27.5881L155.649 23.639C155.885 23.1044 156.266 22.6461 156.751 22.3163C157.234 21.9865 157.802 21.7985 158.389 21.7734H162.059C163.086 21.7734 163.21 22.5905 162.73 23.639L160.224 29.086C159.844 29.9426 159.279 30.7052 158.569 31.3197C157.859 31.934 157.021 32.3849 156.115 32.6401C157.894 33.2617 159.365 34.539 160.224 36.2079L163.539 41.6549C164.169 42.717 163.895 43.5205 162.854 43.5205H159.183C158.565 43.4927 157.966 43.3062 157.443 42.9792C156.92 42.6523 156.49 42.1959 156.197 41.6549L153.732 37.5697C153.258 36.7679 152.582 36.1033 151.769 35.6422C150.957 35.1811 150.037 34.9395 149.102 34.9415V42.1587C149.106 42.3178 149.078 42.4759 149.018 42.6237C148.959 42.7715 148.871 42.906 148.758 43.0191C148.646 43.1322 148.511 43.2216 148.364 43.282C148.216 43.3424 148.057 43.3726 147.897 43.3707H143.555C143.397 43.3708 143.241 43.3392 143.095 43.2778C142.949 43.2164 142.817 43.1265 142.707 43.0134C142.597 42.9003 142.511 42.7663 142.454 42.6194C142.398 42.4726 142.371 42.316 142.377 42.1587V16.8303C142.369 16.6726 142.395 16.5152 142.45 16.3674C142.507 16.2197 142.592 16.085 142.703 15.9715C142.813 15.858 142.946 15.7681 143.093 15.7073C143.239 15.6467 143.396 15.6164 143.555 15.6184H147.897C148.057 15.6165 148.216 15.6467 148.364 15.7071C148.511 15.7675 148.646 15.857 148.758 15.9701C148.871 16.0832 148.959 16.2176 149.018 16.3654C149.078 16.5132 149.106 16.6713 149.102 16.8303L149.184 30.3116Z" fill="#8E99AA"/>
<path id="Vector_7" d="M50.267 30.3116C51.2272 30.3895 52.1881 30.1694 53.0173 29.6816C53.8464 29.1938 54.503 28.4624 54.8965 27.5881L56.7592 23.5029C56.9971 22.9701 57.3793 22.5135 57.863 22.1841C58.3467 21.8547 58.913 21.6654 59.4986 21.6373H63.1693C64.1966 21.6373 64.3198 22.4543 63.8405 23.5029L61.3203 28.9499C60.9439 29.8085 60.3798 30.573 59.6691 31.1878C58.9583 31.8026 58.1187 32.2522 57.2113 32.504C58.9932 33.1206 60.4658 34.3993 61.3203 36.0717L64.6486 41.5187C65.2786 42.5809 65.0047 43.3843 63.9637 43.3843H60.3478C59.7304 43.3565 59.1307 43.17 58.6073 42.843C58.0841 42.5161 57.6549 42.0598 57.3619 41.5187L54.8965 37.4335C54.4239 36.6307 53.7475 35.9654 52.9351 35.5042C52.1226 35.043 51.2025 34.802 50.267 34.8053V42.1587C50.2726 42.3171 50.2457 42.4749 50.1882 42.6227C50.1306 42.7704 50.0435 42.905 49.9321 43.0183C49.8207 43.1316 49.6874 43.2213 49.5401 43.2818C49.3928 43.3424 49.2347 43.3726 49.0754 43.3707H44.7062C44.5462 43.3726 44.3875 43.3424 44.2394 43.282C44.0915 43.2215 43.9572 43.1322 43.8448 43.019C43.7323 42.9059 43.6438 42.7715 43.5848 42.6237C43.5257 42.4758 43.4971 42.3178 43.5008 42.1587V16.8303C43.4971 16.6713 43.5257 16.5132 43.5848 16.3654C43.6438 16.2176 43.7323 16.0832 43.8448 15.9701C43.9572 15.857 44.0915 15.7675 44.2394 15.7071C44.3875 15.6467 44.5462 15.6165 44.7062 15.6184H49.048C49.2073 15.6164 49.3654 15.6467 49.5127 15.7073C49.6599 15.7678 49.7933 15.8574 49.9047 15.9707C50.0161 16.0841 50.1032 16.2186 50.1608 16.3664C50.2184 16.5142 50.2452 16.672 50.2396 16.8303L50.267 30.3116Z" fill="#8E99AA"/>
<path id="Vector_8" d="M167.634 43.3708C167.475 43.3708 167.318 43.3393 167.171 43.2781C167.025 43.2168 166.892 43.1271 166.781 43.0142C166.67 42.9013 166.583 42.7675 166.525 42.6206C166.467 42.4736 166.438 42.3167 166.442 42.1588V23.4485C166.438 23.2906 166.467 23.1336 166.525 22.9868C166.583 22.8399 166.67 22.7061 166.781 22.5931C166.892 22.4802 167.025 22.3905 167.171 22.3293C167.318 22.268 167.475 22.2365 167.634 22.2366H171.989C172.148 22.2365 172.305 22.268 172.452 22.3293C172.598 22.3905 172.731 22.4802 172.842 22.5931C172.953 22.7061 173.04 22.8399 173.098 22.9868C173.156 23.1336 173.184 23.2906 173.181 23.4485V42.1588C173.184 42.3167 173.156 42.4736 173.098 42.6206C173.04 42.7675 172.953 42.9013 172.842 43.0142C172.731 43.1271 172.598 43.2168 172.452 43.2781C172.305 43.3393 172.148 43.3708 171.989 43.3708H167.634Z" fill="#8E99AA"/>
<path id="Vector_9" d="M27.7763 25.9405C27.7763 26.5261 26.6258 36.7119 26.0916 41.7776C26.0169 42.2556 25.7609 42.6871 25.3764 42.9834C24.9917 43.2797 24.5076 43.4183 24.0233 43.3708H6.6422C4.82054 43.3708 4.1768 42.581 3.99873 41.6142C3.82067 40.6474 2.8619 31.0607 2.38252 27.7244L2.24555 25.9814C2.21919 25.5934 2.3485 25.2107 2.60519 24.9172C2.86188 24.6238 3.22505 24.4433 3.61523 24.4154H26.2696C26.4693 24.4171 26.6667 24.458 26.8504 24.5356C27.0341 24.6132 27.2008 24.7261 27.3407 24.8677C27.4806 25.0093 27.591 25.177 27.6658 25.3611C27.7405 25.5451 27.778 25.7421 27.7763 25.9405Z" fill="#8E99AA"/>
<path id="Vector_10" d="M16.1754 15.3459C16.2616 14.4233 16.0401 13.4981 15.5451 12.7131C15.05 11.9281 14.3089 11.3267 13.4361 11.0019L9.3271 9.04099C8.76306 8.78369 8.28303 8.37414 7.94163 7.85901C7.60016 7.34381 7.41111 6.74367 7.39584 6.12689V2.31402C7.39584 1.23824 8.23132 1.10207 9.31338 1.60592L14.7921 4.23407C15.683 4.6441 16.4716 5.24498 17.1015 5.99362C17.7314 6.74228 18.1868 7.62015 18.4354 8.5644C19.0655 6.71897 20.3777 5.18069 22.1061 4.26131L27.7218 0.843339C28.7901 0.176085 29.6393 0.489286 29.6393 1.55145V5.36432C29.6146 6.00194 29.4252 6.6225 29.0893 7.16629C28.7535 7.71005 28.2826 8.15868 27.7218 8.46907L23.4895 11.0292C22.6732 11.4265 21.9845 12.0422 21.5006 12.8072C21.0167 13.5721 20.7568 14.4559 20.7501 15.3595H28.297C28.4624 15.3576 28.6265 15.3889 28.7794 15.4513C28.9324 15.5138 29.0711 15.6063 29.1875 15.7231C29.3037 15.84 29.3952 15.979 29.4563 16.1317C29.5175 16.2845 29.5471 16.448 29.5435 16.6123V21.1333C29.5535 21.2897 29.5299 21.4464 29.4742 21.593C29.4186 21.7396 29.3322 21.8728 29.2208 21.9836C29.1093 22.0944 28.9754 22.1803 28.8279 22.2357C28.6805 22.291 28.5228 22.3144 28.3655 22.3044H2.10889C1.94414 22.3063 1.78071 22.275 1.62846 22.2124C1.47622 22.1498 1.33832 22.0571 1.22311 21.94C1.10789 21.823 1.01775 21.6838 0.95812 21.5311C0.898492 21.3784 0.870619 21.2153 0.876184 21.0516V16.5442C0.872439 16.3805 0.902121 16.2177 0.963432 16.0656C1.02474 15.9136 1.11642 15.7755 1.23291 15.6597C1.3494 15.5439 1.4883 15.4528 1.64122 15.3917C1.79413 15.3308 1.95788 15.3013 2.12259 15.3051L16.1754 15.3459Z" fill="#8E99AA"/>
</g>
<defs>
<clipPath id="clip0_69_830">
<rect width="185.198" height="43.5759" fill="white" transform="translate(0.200684 0.299316)"/>
</clipPath>
</defs>
</svg>
