<svg width="186" height="24" viewBox="0 0 186 24" fill="none" xmlns="http://www.w3.org/2000/svg">
<g id="partners logo5" clip-path="url(#clip0_69_831)">
<path id="Vector" fill-rule="evenodd" clip-rule="evenodd" d="M28.8623 14.9939C28.8623 19.978 31.8056 23.4086 36.2874 23.4086C38.1604 23.4733 39.9666 22.6319 41.1037 21.0784H41.1706C41.1706 21.1431 41.1706 21.2078 41.1706 21.2726V21.4667C41.1706 22.5024 41.7727 23.0202 42.9099 23.0202H44.5822C45.4517 23.1496 46.2545 22.5671 46.3214 21.7256C46.3214 21.5962 46.3214 21.4667 46.3214 21.3373V2.56595C46.4551 1.72447 45.8531 0.947728 44.9835 0.883C44.8497 0.883 44.716 0.883 44.5822 0.883H42.5754C41.7057 0.753542 40.903 1.3361 40.8362 2.17757C40.8362 2.30703 40.8362 2.43649 40.8362 2.56595V7.55006C40.8362 7.93843 40.8362 8.26209 40.8362 8.26209H40.7693C40.7693 8.26209 39.7659 6.70861 36.4212 6.70861C32.0063 6.64384 28.8623 9.94499 28.8623 14.9939ZM34.4813 14.9939C34.4813 12.5342 36.0199 11.1749 37.6922 11.1749C39.8996 11.1749 40.903 13.052 40.903 14.9939C40.903 17.7772 39.2976 18.9423 37.6922 18.9423C35.7523 18.9423 34.4813 17.3888 34.4813 14.9939ZM51.4721 5.02564H53.3451C54.2148 5.15509 55.0175 4.57254 55.0843 3.73106C55.0843 3.6016 55.0843 3.47215 55.0843 3.34269V2.56595C55.2181 1.72447 54.6161 0.947728 53.7465 0.883C53.6127 0.883 53.4789 0.883 53.3451 0.883H51.4721C50.6025 0.753542 49.7998 1.3361 49.7329 2.17757C49.7329 2.30703 49.7329 2.43649 49.7329 2.56595V3.34269C49.5991 4.18417 50.2011 4.96091 51.0708 5.02564C51.2045 5.02564 51.3383 5.02564 51.4721 5.02564ZM49.666 21.3373C49.5322 22.1787 50.1343 22.9555 51.0039 23.0202C51.1377 23.0202 51.2715 23.0202 51.4052 23.0202H53.412C54.2816 23.1496 55.0843 22.5671 55.1512 21.7256C55.1512 21.5962 55.1512 21.4667 55.1512 21.3373V8.71517C55.285 7.87372 54.683 7.09698 53.8134 7.03221C53.6796 7.03221 53.5458 7.03221 53.412 7.03221H51.4052C50.5356 6.90279 49.7329 7.48535 49.666 8.3268C49.666 8.45627 49.666 8.58569 49.666 8.71517V21.3373ZM58.4958 21.3373C58.3618 22.1787 58.9641 22.9555 59.8338 23.0202C59.9673 23.0202 60.1012 23.0202 60.2352 23.0202H62.242C63.1117 23.1496 63.9144 22.5671 63.9814 21.7256C63.9814 21.5962 63.9814 21.4667 63.9814 21.3373V15.8353C63.9814 13.5698 65.1185 11.5632 67.5936 11.5632C68.7976 11.5632 69.3994 12.2105 69.3994 13.6993V21.402C69.2654 22.2435 69.8677 23.0202 70.7374 23.0849C70.8708 23.0849 71.0048 23.0849 71.1388 23.0849H73.1456C74.0153 23.2144 74.818 22.6319 74.8844 21.7903C74.8844 21.6609 74.8844 21.5315 74.8844 21.402V12.6636C74.8844 8.13261 72.2759 6.64384 68.931 6.64384C66.7909 6.57913 64.7841 7.61477 63.6464 9.4272H63.58C63.58 9.4272 63.58 9.16825 63.58 9.03883V8.77988C63.7134 7.93843 63.1117 7.16169 62.242 7.09698C62.108 7.09698 61.974 7.09698 61.8406 7.09698H60.0342C59.1645 6.9675 58.3618 7.55006 58.2954 8.39151C58.2954 8.52098 58.2954 8.65046 58.2954 8.77988L58.4958 21.3373ZM77.1591 14.9939C77.1591 19.2659 80.37 23.4086 86.2563 23.4086C88.2631 23.4086 90.2029 22.8907 91.9423 21.9845C92.879 21.4667 93.0794 20.6252 92.5446 19.6543L92.0763 18.8776C91.5409 17.9066 90.7382 17.7772 89.6681 18.2303C88.7315 18.6834 87.7283 18.9423 86.6577 19.007C84.7849 19.1365 83.1795 17.9066 82.7781 16.159H91.4739C92.4776 16.159 93.2803 15.3822 93.3473 14.4113C93.3473 10.1392 90.6043 6.77332 85.7216 6.77332C80.437 6.64384 77.1591 10.3334 77.1591 14.9939ZM82.9115 12.9872C83.1795 11.6927 83.9822 10.5923 85.5876 10.5923C86.8586 10.5923 87.8618 11.6279 87.8618 12.7931C87.8618 12.8578 87.8618 12.9225 87.8618 12.9872H82.9115ZM95.6885 21.3373C95.5545 22.1787 96.1568 22.9555 97.0259 23.0202C97.1599 23.0202 97.2939 23.0202 97.4273 23.0202H99.4341C100.304 23.1496 101.106 22.5671 101.173 21.7256C101.173 21.5962 101.173 21.4667 101.173 21.3373V16.8062C101.173 14.2171 102.445 12.0163 105.12 12.0163C105.99 12.1458 106.792 11.5632 106.859 10.7218C106.859 10.5923 106.859 10.4628 106.859 10.3334V8.58569C106.859 7.48535 106.458 6.90279 105.321 6.90279C103.247 6.90279 101.441 9.10354 100.906 10.7865H100.839C100.906 10.4628 100.906 10.1392 100.906 9.81557V8.84464C101.039 8.00314 100.438 7.2264 99.568 7.16169C99.4341 7.16169 99.3007 7.16169 99.1667 7.16169H97.3609C96.4912 7.03221 95.6885 7.61477 95.6215 8.45627C95.6215 8.58569 95.6215 8.71517 95.6215 8.84464L95.6885 21.3373ZM110.472 5.02564H112.344C113.214 5.15509 114.017 4.57254 114.084 3.73106C114.084 3.6016 114.084 3.47215 114.084 3.34269V2.56595C114.218 1.72447 113.615 0.947728 112.746 0.883C112.612 0.883 112.478 0.883 112.344 0.883H110.472C109.602 0.753542 108.799 1.3361 108.732 2.17757C108.732 2.30703 108.732 2.43649 108.732 2.56595V3.34269C108.599 4.18417 109.201 4.96091 110.07 5.02564C110.204 5.02564 110.338 5.02564 110.472 5.02564ZM108.666 21.3373C108.532 22.1787 109.134 22.9555 110.003 23.0202C110.137 23.0202 110.271 23.0202 110.405 23.0202H112.411C113.281 23.1496 114.084 22.5024 114.151 21.7256C114.151 21.5962 114.151 21.4667 114.151 21.3373V8.71517C114.285 7.87372 113.682 7.09698 112.813 7.03221C112.679 7.03221 112.545 7.03221 112.411 7.03221H110.405C109.535 6.90279 108.732 7.48535 108.666 8.3268C108.666 8.45627 108.666 8.58569 108.666 8.71517V21.3373ZM116.358 18.5539C116.358 21.3373 118.566 23.4086 121.777 23.4086C123.716 23.4086 125.59 22.4377 126.66 20.8842H126.727C126.727 21.0136 126.727 21.0784 126.727 21.2078V21.3373C126.593 22.1787 127.195 22.9555 128.064 23.0849C128.198 23.0849 128.332 23.0849 128.533 23.0849H130.071C130.941 23.2144 131.743 22.5671 131.81 21.7256C131.81 21.5962 131.81 21.4667 131.81 21.3373V13.1814C131.81 9.10354 129.001 6.64384 124.452 6.64384C122.512 6.64384 120.639 7.09698 118.9 7.87372C118.097 8.19732 117.696 9.10354 118.03 9.94499C118.097 10.0098 118.097 10.1392 118.164 10.2039L118.566 10.9807C119.101 11.9516 119.904 12.1458 120.974 11.7574C121.911 11.3043 122.914 11.1102 123.984 11.0454C125.188 11.0454 126.325 11.4985 126.325 12.7931V13.052H125.857C121.643 13.052 116.358 14.2171 116.358 18.5539ZM121.844 18.0361C121.844 16.5473 124.051 16.159 125.723 16.159H126.258V16.6121C126.191 18.1008 124.987 19.3307 123.449 19.4601C122.646 19.5249 121.977 19.007 121.911 18.2303C121.844 18.1655 121.844 18.1008 121.844 18.0361Z" fill="#8E99AA"/>
<path id="Vector_2" fill-rule="evenodd" clip-rule="evenodd" d="M134.553 21.3363C134.42 22.1778 135.022 22.9546 135.891 23.0193C136.025 23.0193 136.159 23.0193 136.293 23.0193H138.032C138.902 23.1487 139.704 22.5662 139.771 21.7247C139.771 21.5953 139.771 21.4658 139.771 21.3363V19.6533C139.905 18.8119 139.303 18.0352 138.433 17.9704C138.299 17.9704 138.165 17.9704 138.032 17.9704H136.293C135.423 17.841 134.62 18.4235 134.553 19.265C134.553 19.3945 134.553 19.5239 134.553 19.6533V21.3363ZM142.848 21.3363C142.714 22.1778 143.317 22.9546 144.186 23.0193C144.32 23.0193 144.454 23.0193 144.588 23.0193H146.594C147.464 23.1487 148.266 22.5662 148.333 21.7247C148.333 21.5953 148.333 21.4658 148.333 21.3363V16.2875C148.333 14.0867 149.003 11.5623 151.544 11.5623C152.615 11.5623 152.815 12.4038 152.815 13.5689V21.3363C152.681 22.1778 153.283 22.9546 154.153 23.0193C154.287 23.0193 154.421 23.0193 154.555 23.0193H156.561C157.431 23.1487 158.234 22.5662 158.3 21.7247C158.3 21.5953 158.3 21.4658 158.3 21.3363V16.2875C158.3 13.8925 159.103 11.5623 161.511 11.5623C162.582 11.5623 162.782 12.4038 162.782 13.5689V21.3363C162.649 22.1778 163.25 22.9546 164.12 23.0193C164.254 23.0193 164.387 23.0193 164.521 23.0193H166.528C167.398 23.1487 168.201 22.5662 168.268 21.7247C168.268 21.5953 168.268 21.4658 168.268 21.3363V12.6627C168.268 8.26113 165.926 6.64288 162.916 6.64288C160.775 6.64288 158.835 7.67857 157.631 9.36153H157.698C156.896 7.61386 155.023 6.57817 153.083 6.64288C151.076 6.70764 149.203 7.74328 148.2 9.42624H148.133C148.133 9.42624 148.133 9.16734 148.133 9.03787V8.77897C148.266 7.93746 147.665 7.16072 146.795 7.09601C146.661 7.09601 146.527 7.09601 146.393 7.09601H144.588C143.718 6.96654 142.915 7.54909 142.848 8.3906C142.848 8.52002 142.848 8.6495 142.848 8.77897V21.3363ZM170.943 21.0127C170.14 22.1778 170.676 23.084 172.147 23.084H174.288C175.158 23.1487 176.027 22.6309 176.362 21.8542L177.632 19.4592C177.766 19.2003 178.034 18.6824 178.034 18.6824H178.101C178.101 18.6824 178.302 19.2003 178.502 19.4592L179.84 21.8542C180.241 22.6309 181.044 23.084 181.914 23.084H184.054C185.526 23.084 185.994 22.1778 185.259 21.0127L181.378 15.1224L185.325 9.10258C186.128 7.93747 185.593 7.0313 184.121 7.0313H181.847C180.977 6.96654 180.107 7.48438 179.773 8.26113L178.636 10.5913C178.435 10.9797 178.101 11.627 178.101 11.627H178.034C178.034 11.627 177.766 10.9797 177.499 10.5913L176.362 8.26113C176.027 7.48438 175.158 6.96654 174.288 7.0313H172.013C170.542 7.0313 170.073 7.93747 170.809 9.10258L174.823 15.1224L170.943 21.0127Z" fill="#8E99AA"/>
<path id="Vector_3" fill-rule="evenodd" clip-rule="evenodd" d="M5.58386 1.27115C8.39336 1.27115 10.6677 3.47192 10.6677 6.19053C10.6677 8.90912 8.39336 11.1099 5.58386 11.1099C2.77436 11.1099 0.5 8.84441 0.5 6.1258C0.5 3.47193 2.77436 1.27115 5.58386 1.27115ZM18.1597 13.5049C20.9692 13.5049 23.2436 15.7057 23.2436 18.4243C23.2436 21.1428 20.9692 23.3437 18.1597 23.3437C15.3502 23.3437 13.0759 21.1428 13.0759 18.4243C13.1428 15.7057 15.4171 13.5049 18.1597 13.5049ZM5.58386 13.5049C8.39336 13.5049 10.6677 15.7057 10.6677 18.4243C10.6677 21.1428 8.39336 23.3437 5.58386 23.3437C2.77436 23.3437 0.5 21.0781 0.5 18.3595C0.5 15.7057 2.77436 13.5049 5.58386 13.5049ZM18.1597 1.20642C20.9692 1.20642 23.2436 3.4072 23.2436 6.1258C23.2436 8.84441 20.9692 11.0452 18.1597 11.0452C15.3502 11.0452 13.0759 8.84441 13.0759 6.1258C13.1428 3.4072 15.4171 1.20642 18.1597 1.20642Z" fill="#8E99AA"/>
</g>
<defs>
<clipPath id="clip0_69_831">
<rect width="185.198" height="22.8774" fill="white" transform="translate(0.5 0.754883)"/>
</clipPath>
</defs>
</svg>
