<svg width="186" height="56" viewBox="0 0 186 56" fill="none" xmlns="http://www.w3.org/2000/svg">
<g id="Group">
<g id="Group_2">
<path id="Vector" d="M133.762 7.59953L117.852 38.1846C117.513 38.8387 116.526 38.8387 116.187 38.1846L100.277 7.59953C100.123 7.28807 99.8146 7.1012 99.4755 7.1012H91.7671C91.243 7.1012 90.9038 7.66182 91.1505 8.12901L116.218 55.5328C116.557 56.1868 117.482 56.1868 117.852 55.5328L142.92 8.12901C143.166 7.66182 142.827 7.1012 142.303 7.1012H134.595C134.225 7.1012 133.916 7.28807 133.762 7.59953Z" fill="#8E99AA"/>
<path id="Vector_2" d="M142.796 48.4316L158.706 17.8465C159.045 17.1925 160.032 17.1925 160.371 17.8465L176.281 48.4316C176.435 48.7431 176.744 48.93 177.083 48.93H184.791C185.315 48.93 185.655 48.3693 185.408 47.9021L160.34 0.498358C160.001 -0.155703 159.076 -0.155703 158.706 0.498358L133.639 47.9021C133.392 48.3693 133.731 48.93 134.255 48.93H141.964C142.303 48.8988 142.642 48.7119 142.796 48.4316Z" fill="#8E99AA"/>
<path id="Vector_3" d="M34.0467 29.6507C37.3767 27.9688 39.4425 24.3248 39.4425 19.871C39.4425 12.2403 33.5533 7.07007 25.2592 7.07007H1.425C0.900833 7.07007 0.5 7.47496 0.5 8.00444V55.0656C0.5 55.5951 0.900833 56 1.425 56H24.2417C35.65 56 41.6625 51.0478 41.6625 41.3304C41.6625 31.8621 34.0467 29.6507 34.0467 29.6507ZM9.44167 14.1713H23.5942C28.805 14.1713 31.4567 16.4138 31.4567 20.5873C31.4567 24.7608 28.805 27.0033 23.5942 27.0033H9.44167C8.94833 27.0033 8.51667 26.5984 8.51667 26.069V15.1057C8.51667 14.5762 8.9175 14.1713 9.44167 14.1713ZM23.7792 48.8988H9.44167C8.9175 48.8988 8.51667 48.4939 8.51667 47.9644V34.9766C8.51667 34.4783 8.9175 34.0423 9.44167 34.0423H23.7792C30.6242 34.0423 33.6767 36.0044 33.6767 41.4549C33.6458 46.9677 30.6858 48.8988 23.7792 48.8988Z" fill="#8E99AA"/>
<path id="Vector_4" d="M82.9789 29.6507C86.3089 27.9688 88.3747 24.3248 88.3747 19.871C88.3747 12.2403 82.4855 7.07007 74.1914 7.07007H50.3264C49.8022 7.07007 49.4014 7.47496 49.4014 8.00444V55.0656C49.4014 55.5951 49.8022 56 50.3264 56H73.143C84.5514 56 90.5639 51.0478 90.5639 41.3304C90.5947 31.8621 82.9789 29.6507 82.9789 29.6507ZM58.3739 14.1713H72.5264C77.7372 14.1713 80.3889 16.4138 80.3889 20.5873C80.3889 24.7608 77.7372 27.0033 72.5264 27.0033H58.3739C57.8497 27.0033 57.4489 26.5984 57.4489 26.069V15.1057C57.4489 14.5762 57.8497 14.1713 58.3739 14.1713ZM72.6805 48.8988H58.343C57.8497 48.8988 57.418 48.4939 57.418 47.9644V34.9766C57.418 34.4783 57.8189 34.0423 58.343 34.0423H72.6805C79.5255 34.0423 82.578 36.0044 82.578 41.4549C82.578 46.9677 79.5872 48.8988 72.6805 48.8988Z" fill="#8E99AA"/>
</g>
</g>
</svg>
