<svg width="186" height="31" viewBox="0 0 186 31" fill="none" xmlns="http://www.w3.org/2000/svg">
<g id="partners logo4" clip-path="url(#clip0_69_832)">
<path id="Union" fill-rule="evenodd" clip-rule="evenodd" d="M72.935 15.2229H76.2392C76.4283 15.2051 77.8929 15.0329 78.2516 13.4164L78.2535 13.4269C79.1684 10.1931 81.7188 7.64152 84.9611 6.71446H84.9565C84.9642 6.71226 84.9714 6.70972 84.9786 6.70715L84.9787 6.70712L84.9788 6.7071L84.9915 6.70268L84.9993 6.7002L85.0061 6.6983C85.0245 6.69431 85.0443 6.68849 85.0644 6.68253C85.077 6.67881 85.0898 6.67504 85.1026 6.67162C86.575 6.26588 86.7518 4.91935 86.7713 4.71729V1.40995C79.3138 1.84479 73.3517 7.79592 72.935 15.2229ZM0.601074 1.5639V24.1964C0.601074 28.2335 2.91964 30.2533 7.55349 30.2533V27.0664C6.55057 27.0664 5.73684 26.7561 5.11395 26.1362C4.49188 25.5203 4.18247 24.6716 4.18247 23.5958V1.5639H0.601074ZM140.717 12.2035L140.459 9.58967H137.203V29.5104H140.847V14.7632C141.228 13.942 141.777 13.3035 142.492 12.8493C143.208 12.3943 144.121 12.168 145.231 12.168C146.537 12.168 147.54 12.6003 148.236 13.4652C148.933 14.33 149.282 15.6951 149.282 17.5614V29.5097H152.944V16.8614V16.7143C153.08 15.4009 153.534 14.3147 154.305 13.4555C155.075 12.5963 156.083 12.1671 157.328 12.1671C158.672 12.1671 159.684 12.5753 160.363 13.3916C161.041 14.208 161.379 15.5973 161.379 17.5614V29.5097H165.024V17.5977C165.024 14.7996 164.431 12.7046 163.248 11.3112C162.063 9.9178 160.455 9.2211 158.419 9.2211C157.039 9.2211 155.829 9.55248 154.794 10.2152C153.758 10.878 152.925 11.7743 152.297 12.9034C151.816 11.6757 151.098 10.7551 150.142 10.1416C149.186 9.52743 148.043 9.22026 146.71 9.22026C145.379 9.22026 144.21 9.48135 143.205 10.0035C142.2 10.5256 141.371 11.2586 140.717 12.2035ZM130.809 24.9838C130.26 24.4358 129.598 24.1643 128.825 24.1643C128.051 24.1643 127.391 24.4358 126.841 24.9838C126.293 25.5294 126.018 26.1881 126.018 26.9567C126.018 27.727 126.293 28.3882 126.841 28.941C127.391 29.4914 128.052 29.7695 128.825 29.7695C129.598 29.7695 130.259 29.4922 130.809 28.941C131.356 28.3882 131.632 27.727 131.632 26.9567C131.632 26.1881 131.356 25.5302 130.809 24.9838ZM177.105 16.9357L181.36 9.58958H185.614L179.121 19.4396L185.8 29.5103H181.619L177.179 21.9807L172.739 29.5103H168.522L175.2 19.4396L168.707 9.58958H172.907L177.105 16.9357ZM28.6944 20.1832H14.1487C14.1487 22.5344 14.796 24.3384 16.0889 25.6025C17.2323 26.7049 18.703 27.2537 20.4986 27.2537C22.5459 27.2537 24.2546 26.6589 25.6238 25.4699L27.1311 28.0418C26.578 28.5898 25.7294 29.0666 24.5884 29.4675C23.155 29.9928 21.5609 30.2531 19.8018 30.2531C17.2656 30.2531 15.1103 29.3972 13.3399 27.6837C11.3657 25.7989 10.3797 23.2578 10.3797 20.0717C10.3797 16.7562 11.3908 14.1012 13.4138 12.104C15.2223 10.3137 17.3631 9.41977 19.8375 9.41977C22.7148 9.41977 24.9684 10.228 26.6024 11.8389C28.1836 13.3907 28.977 15.4469 28.977 18.0106C28.977 18.7946 28.8803 19.522 28.6944 20.1832ZM20.0089 12.4216C18.4115 12.4216 17.0748 12.9348 15.9955 13.9565C14.9649 14.932 14.381 16.1468 14.2429 17.5968H25.4168C25.4168 16.1581 24.9628 14.9571 24.0589 13.9945C23.0681 12.9446 21.7159 12.4216 20.0089 12.4216ZM45.1617 18.1957V29.8781H48.7432V17.4464C48.7432 12.0951 46.531 9.41977 42.1107 9.41977C39.4347 9.41977 37.5077 10.4091 36.3268 12.3828L35.1948 9.7956H32.7455V29.8781H36.326V14.9523C36.8027 14.2386 37.4873 13.6372 38.379 13.1506C39.2699 12.6641 40.1234 12.42 40.9437 12.42C42.4606 12.42 43.5432 12.8492 44.1921 13.7051C44.8393 14.5594 45.1617 16.0579 45.1617 18.1957ZM117.92 29.8781V18.1957C117.92 16.0579 117.595 14.5594 116.947 13.7051C116.301 12.8492 115.217 12.42 113.697 12.42C112.879 12.42 112.026 12.6641 111.135 13.1506C110.242 13.6372 109.559 14.2386 109.082 14.9523V29.8781H105.502V9.7956H107.951L109.083 12.3828C110.264 10.4091 112.192 9.41977 114.865 9.41977C119.288 9.41977 121.498 12.0951 121.498 17.4464V29.8781H117.92ZM66.6204 28.3791V29.8605H70.2011V1.5639H66.6217V10.8806C65.5414 9.91063 63.9594 9.4192 61.8723 9.4192C59.3742 9.4192 57.2198 10.4861 55.4096 12.6166C53.6018 14.7512 52.6971 17.3206 52.6971 20.3346C52.6971 23.3347 53.4833 25.7337 55.0514 27.5344C56.6213 29.3335 58.671 30.234 61.195 30.234C63.5688 30.234 65.3774 29.6157 66.6204 28.3791ZM62.9094 12.4227C64.4792 12.4227 65.7168 13.0951 66.6204 14.4481H66.6217V25.5849C66.4215 25.9858 65.9272 26.3641 65.1337 26.7197C64.3419 27.0761 63.663 27.2548 63.0986 27.2548C58.6767 27.2548 56.4653 24.8348 56.4653 19.9975C56.4653 17.7975 57.0582 15.9846 58.2462 14.5572C59.4327 13.1331 60.9879 12.4227 62.9094 12.4227ZM96.8606 18.5978C97.2186 16.9813 98.6852 16.8083 98.8723 16.7922H102.179C101.763 24.2183 95.8003 30.1687 88.3435 30.6043V27.2953C88.3604 27.0957 88.5384 25.7484 90.0122 25.3426C90.0297 25.3383 90.0459 25.3337 90.0625 25.329C90.0768 25.325 90.0914 25.3209 90.1074 25.3168L90.1192 25.3129L90.1306 25.3091C90.1395 25.3062 90.1484 25.3036 90.1583 25.3014L90.1537 25.2998C93.394 24.3744 95.9457 21.8195 96.858 18.5881L96.8606 18.5978ZM84.9565 25.3014L84.9676 25.2998C81.7253 24.3744 79.1684 21.8268 78.2535 18.5946V18.5986C78.2521 18.5934 78.2506 18.5885 78.2491 18.584C78.2477 18.5799 78.2464 18.5761 78.245 18.5724C78.2423 18.5648 78.2398 18.5577 78.2379 18.5501C78.2363 18.5431 78.2344 18.5362 78.2325 18.5292C78.2309 18.5234 78.2292 18.5177 78.2275 18.5119C78.2229 18.4962 78.2183 18.4805 78.215 18.4645C77.8049 16.9749 76.4231 16.8076 76.2398 16.7922H72.935C73.3503 24.2183 79.3138 30.1678 86.77 30.6043V27.2953C86.7518 27.0884 86.5666 25.653 84.9565 25.3014ZM100.461 9.91838L100.449 9.92001C102.064 10.2708 102.245 11.7054 102.264 11.9139V15.2229C94.8089 14.7881 88.8447 8.83611 88.4287 1.41322H91.7342C91.9181 1.42696 93.2986 1.59427 93.7081 3.08305C93.7133 3.10442 93.7187 3.12372 93.7245 3.14421C93.7268 3.15239 93.7292 3.16077 93.7316 3.16954C93.7353 3.17879 93.7385 3.18871 93.7419 3.19907C93.7438 3.20499 93.7458 3.21105 93.7479 3.21722V3.21399C94.6628 6.44535 97.2178 8.99291 100.461 9.91838Z" fill="#8E99AA"/>
</g>
<defs>
<clipPath id="clip0_69_832">
<rect width="185.198" height="30.5032" fill="white" transform="translate(0.601074 0.486572)"/>
</clipPath>
</defs>
</svg>
