<svg width="441" height="257" viewBox="0 0 441 257" fill="none" xmlns="http://www.w3.org/2000/svg">
<path fill-rule="evenodd" clip-rule="evenodd" d="M28.1339 83.2908C-1.78765 83.8005 -0.797452 51.5071 11.3823 42.1486C29.4694 28.2697 42.5948 39.5443 42.5948 39.5443C42.5948 39.5443 49.8782 24.3738 71.6205 22.2062C84.9133 20.8816 91.1857 30.1515 91.1857 30.1515C91.1857 30.1515 106.34 3.2488 137.829 7.89758C165.546 12.0056 166.817 37.5219 166.817 37.5219C166.817 37.5219 171.227 30.5029 179.701 31.2676C188.655 32.0663 188.238 38.9234 188.238 38.9234C188.238 38.9234 193.551 35.1957 197.953 33.7889C212.565 29.1099 226.838 34.1757 227.073 45.5483C227.477 65.1054 207.324 80.4163 175.037 82.1433C154.619 83.2429 147.715 71.5933 147.715 71.5933C147.715 71.5933 133.166 90.9651 99.6618 93.0834C65.6652 95.2303 45.3449 76.2773 45.3449 76.2773C45.3449 76.2773 40.1724 83.0288 28.1339 83.2908Z" fill="#99CDFF"/>
<path fill-rule="evenodd" clip-rule="evenodd" d="M25.4619 256.748C25.4619 256.748 37.7981 244.245 45.3486 244.112C52.4327 243.979 51.0448 249.575 51.0448 249.575C51.0448 249.575 66.0014 231.165 82.0573 233.63C93.805 235.429 88.3198 256.748 88.3198 256.748H25.4619Z" fill="#99CDFF"/>
<path fill-rule="evenodd" clip-rule="evenodd" d="M287.21 223.287C287.21 223.287 292.121 209.139 303.703 205.361C312.28 202.564 314.179 208.903 314.179 208.903C314.179 208.903 329.447 184.855 353.498 185.549C377.55 186.244 376.374 206.682 376.374 206.682C376.374 206.682 382.09 198.575 390.61 199.717C398.413 200.765 396.829 209.827 396.829 209.827C396.829 209.827 405.588 203.854 411.838 207.52C419.874 212.221 409.562 223.287 409.562 223.287H287.21Z" fill="#99CDFF"/>
<g clip-path="url(#clip0_249_2896)">
<path d="M273.009 100.123C273.009 100.123 262.166 79.9655 223.761 67.5948C185.356 55.2241 148.215 53.5982 120.917 55.2829C93.619 56.9676 65.1948 63.4811 65.1948 63.4811C65.1948 63.4811 91.8951 66.4195 106.989 85.4995C122.082 104.58 122.278 116.088 131.358 134.835C142.25 157.304 181.311 164.102 181.311 164.102L273.009 100.123Z" fill="#EB4040"/>
<path d="M439.205 76.8215C438.148 72.9918 434.964 72.0221 431.262 72.3551C425.581 72.8644 414.973 78.4768 405.737 82.6101C401.437 84.5691 386.471 90.8377 371.661 97.0475C356.595 103.365 340.987 108.302 325.029 111.798L322.443 112.366L325.714 148.048L418.842 97.2728C418.842 97.2728 425.503 99.2905 427.726 99.2905C429.949 99.2905 435.385 97.6842 436.159 95.5098C436.567 94.3388 436.645 93.0784 436.384 91.8661C436.267 90.6712 435.993 90.1716 437.139 89.437C438.091 88.7465 438.944 87.9293 439.675 87.008C440.363 85.9855 440.681 84.7587 440.577 83.5308C440.273 81.2657 439.815 79.024 439.205 76.8215Z" fill="#EDBA89"/>
<path d="M338.887 108.36C338.887 108.36 361.552 102.484 393.395 87.8894C425.237 73.2954 420.692 75.9791 424.982 74.0202C429.273 72.0612 436.736 70.8565 438.989 76.2044C441.242 81.5523 440.321 85.2057 439.91 86.6455C439.498 88.0853 436.599 89.9463 435.287 90.3577C433.974 90.7691 430.135 92.0424 427.745 88.8493C425.355 85.6563 425.893 84.0891 426.981 82.7179C427.425 82.1585 427.99 81.7055 428.632 81.392C429.274 81.0785 429.978 80.9124 430.693 80.9058" stroke="#B27C4A" stroke-width="1.07742" stroke-linecap="round" stroke-linejoin="round"/>
<path d="M327.918 146.853L417.305 98.1052C418.27 97.5791 419.403 97.4559 420.459 97.7624C422.643 98.4088 426.424 99.4471 427.726 99.2903C429.597 99.0553 434.465 98.0562 435.748 96.1952C437.031 94.3342 436.316 90.3184 436.316 90.3184" stroke="#B27C4A" stroke-width="1.07742" stroke-linecap="round" stroke-linejoin="round"/>
<path d="M222.948 78.1338C248.091 85.7051 261.617 96.7927 268.004 103.6L273.009 100.103C273.009 100.103 262.166 79.9459 223.761 67.5752C185.356 55.2045 148.215 53.5786 120.917 55.2632C93.619 56.9479 65.1948 63.4614 65.1948 63.4614C73.9461 64.7419 82.4076 67.5359 90.2007 71.7183C99.1922 70.1414 109.614 68.6232 119.879 67.8004C147.147 65.6064 184.318 66.5075 222.948 78.1338Z" fill="#ED6058"/>
<path d="M211.92 231.881C211.92 231.881 204.516 246.054 190.921 251.177C177.326 256.299 166.199 253.273 158.373 246.749C153.466 242.618 148.851 238.15 144.562 233.38C144.562 233.38 138.264 242.812 132.437 245.133C126.609 247.455 121.506 244.487 119.703 240.755C117.901 237.023 118.509 231.881 122.975 226.641C127.441 221.401 129.968 218.002 135.248 213.908C140.527 209.814 142.79 208.1 145.865 208.54C148.941 208.981 159.137 221.048 161.537 223.516C163.936 225.985 167.413 230.441 174.358 230.598C181.302 230.755 189.784 221.254 193.154 216.885C196.523 212.517 201.372 205.357 201.372 205.357L219.394 217.248L211.92 231.881Z" fill="#EDBA89"/>
<path d="M339.104 95.6272C341.827 100.182 341.827 105.539 340.847 110.77C335.49 140.457 321.258 172.672 302.188 190.959C274.185 217.835 239.933 227.522 198.139 222.733C156.345 217.943 149.391 189.646 149.391 189.646C149.391 189.646 133.837 204.897 117.156 205.044C100.476 205.191 86.2443 190.107 79.1333 176.894C79.1333 176.894 69.1624 187.482 62.4824 187.815C55.8024 188.148 53.3048 185.542 51.7866 182.271C50.621 179.773 48.3389 171.693 63.2268 160.791C77.6935 150.184 80.8572 149.253 84.6184 150.379C87.4197 151.212 96.1467 165.405 97.9979 168.235C99.8491 171.066 105.618 178.892 112.798 178.676C119.977 178.461 128.91 171.82 135.002 166.384C141.095 160.948 141.966 158.372 156.766 143.964C171.066 130.046 200.303 114.58 225.329 102.611C250.354 90.6417 262.549 84.0009 270.384 82.2085C278.22 80.416 297.202 72.2962 313.04 79.1036C328.878 85.9109 334.882 88.6632 339.104 95.637V95.6272Z" fill="#EDBA89"/>
<path d="M339.366 26.2137C335.105 27.6927 331.148 30.6703 331.011 34.9604C330.805 39.6422 335.565 42.1301 339.728 44.2751C343.517 46.1797 347.583 47.4723 351.776 48.1048C353.891 48.4085 356.291 48.6044 357.741 47.6347C358.264 47.2508 358.663 46.7204 358.886 46.1104C359.109 45.5003 359.147 44.8379 358.994 44.2065C357.409 38.9967 354.868 34.1275 351.501 29.8475C350.106 28.0567 348.188 26.7446 346.014 26.0934C343.839 25.4422 341.515 25.4843 339.366 26.2137Z" fill="#50423E"/>
<path d="M351.191 69.1914C350.427 60.7582 349.967 52.1976 345.491 44.7536C340.094 35.7719 331.69 31.8345 321.592 30.522C314.606 29.55 307.555 29.1308 300.504 29.2682C289.142 29.6502 277.359 32.3732 268.661 40.0424C260.992 46.8399 260.218 56.0959 259.366 65.6555C258.59 72.8931 258.653 80.196 259.552 87.4193C261.335 89.5937 268.887 97.8898 285.459 104.423C304.706 112.004 326.92 112.788 333.208 111.054C335.951 110.3 337.959 109.614 339.35 109.095C353.376 102.082 362.475 82.6199 351.191 69.1914Z" fill="#EDBA89"/>
<path d="M324.804 113.914C324.804 113.914 327.527 152.113 305.332 176.835C283.137 201.557 256.172 209.99 249.923 211.312C243.674 212.634 209.52 216.082 200.95 195.102C195.269 181.213 200.313 167.54 205.681 159.645C212.096 150.223 228.659 141.417 242.822 135.932C256.985 130.447 277.907 120.457 283.166 118.165C288.426 115.873 299.014 109.418 299.014 109.418L324.804 113.914Z" fill="white"/>
<path d="M298.974 47.7017C298.211 47.2959 297.562 46.7069 297.083 45.9877C296.637 45.4355 296.41 44.7379 296.447 44.0287C296.592 43.539 296.856 43.0925 297.215 42.7287C297.573 42.3648 298.016 42.0948 298.504 41.9425C299.627 41.4754 300.833 41.2432 302.05 41.26C303.266 41.2769 304.466 41.5424 305.575 42.0404C306.125 42.2687 306.637 42.5791 307.094 42.9611C307.547 43.4028 307.863 43.9653 308.006 44.5818C308.148 45.1982 308.11 45.8426 307.897 46.4382C306.858 49.7978 301.354 49.0632 298.974 47.7017Z" fill="#50423E"/>
<path d="M334.255 45.3216C334.878 44.8382 335.386 44.2227 335.743 43.5194C336.06 42.9752 336.181 42.3394 336.086 41.7172C335.89 41.2843 335.587 40.9078 335.208 40.622C334.828 40.3362 334.382 40.1504 333.912 40.0815C331.697 39.5328 329.354 39.885 327.398 41.0609C326.938 41.3324 326.533 41.6879 326.203 42.109C325.839 42.5811 325.619 43.1481 325.569 43.7421C325.518 44.3361 325.64 44.932 325.919 45.4587C327.281 48.309 332.237 46.8398 334.255 45.3216Z" fill="#50423E"/>
<path d="M314.736 65.9395C304.059 68.1922 298.711 75.2738 297.007 85.2154C295.969 91.3861 297.379 94.8044 299.946 97.0768C301.179 98.2377 302.641 99.1284 304.238 99.6917C305.835 100.255 307.533 100.479 309.221 100.348C309.657 101.456 310.325 102.458 311.18 103.287C312.871 104.768 314.921 105.781 317.125 106.225C320.247 107.027 323.515 107.068 326.656 106.343C331.308 105.363 337.792 101.132 337.9 95.7251C354.776 95.49 343.365 62.6387 314.736 65.9395Z" fill="#50423E"/>
<path d="M246.309 41.3843C250.148 35.7523 259.042 29.8266 266.877 32.8335C272.96 35.2136 273.45 41.4528 273.597 46.9673C273.793 51.9116 273.045 56.8482 271.393 61.5124C270.531 63.8631 269.316 66.5272 267.191 67.4577C266.346 67.7839 265.435 67.9043 264.534 67.8089C263.633 67.7135 262.768 67.4051 262.009 66.9092C255.104 61.3556 249.276 55.3319 245.799 46.9477C245.401 46.0542 245.239 45.0736 245.329 44.0996C245.418 43.1256 245.755 42.1907 246.309 41.3843Z" fill="#50423E"/>
<path d="M334.393 116.891C324.334 119.134 299.201 115.266 277.936 105.236C263.362 98.3795 259.327 91.7779 258.2 88.4477C258.025 87.8649 258.024 87.2436 258.198 86.6604C258.373 86.0773 258.714 85.5579 259.18 85.1665C260.012 86.5671 261.971 88.2322 271.188 94.0895C285.185 102.415 300.621 108.037 316.694 110.662C329.319 112.543 341.533 107.959 341.533 107.959C341.533 107.959 344.452 114.688 334.393 116.891Z" fill="#263039"/>
<path d="M323.09 118.713C328.918 118.635 332.464 123.307 332.542 129.145C332.62 134.982 329.868 139.772 324.04 139.84C318.212 139.909 311.533 137.421 311.435 129.448C311.346 122.318 317.262 118.792 323.09 118.713Z" fill="#4DA36D"/>
<path d="M327.331 119.271L327.596 139.155C329.627 138.386 331.372 137.011 332.595 135.215C333.817 133.42 334.458 131.292 334.429 129.12C334.4 126.949 333.703 124.838 332.433 123.076C331.164 121.314 329.382 119.986 327.331 119.271Z" fill="#EB4040"/>
<path d="M313.921 125.824C313.468 127.136 313.278 128.523 313.362 129.908C313.446 131.293 313.802 132.647 314.41 133.894C315.017 135.141 315.865 136.256 316.903 137.176C317.942 138.095 319.152 138.801 320.464 139.253L320.199 119.37C318.741 119.915 317.421 120.777 316.336 121.893C315.25 123.009 314.425 124.351 313.921 125.824Z" fill="#57CA82"/>
<path d="M320.199 119.37L320.464 139.253C322.781 140.044 325.3 140.009 327.594 139.155L327.33 119.272C326.183 118.878 324.977 118.686 323.764 118.703C322.546 118.713 321.339 118.939 320.199 119.37Z" fill="white"/>
<path d="M323.803 116.089H323.862C324.331 116.187 324.75 116.445 325.05 116.818C325.35 117.192 325.51 117.657 325.504 118.136C325.499 118.615 325.327 119.077 325.018 119.443C324.71 119.809 324.284 120.057 323.813 120.144C323.686 120.126 323.561 120.093 323.441 120.046C323.328 120.165 323.262 120.322 323.255 120.486C323.247 120.648 323.295 120.807 323.392 120.937C323.532 120.952 323.673 120.952 323.813 120.937C324.507 120.83 325.139 120.478 325.596 119.946C326.053 119.413 326.304 118.735 326.304 118.033C326.304 117.331 326.053 116.652 325.596 116.12C325.139 115.587 324.507 115.236 323.813 115.129C323.708 115.266 323.651 115.434 323.649 115.607C323.647 115.78 323.701 115.949 323.803 116.089Z" fill="#FFB842" stroke="#FFB842" stroke-width="0.724807" stroke-miterlimit="10"/>
<path d="M320.904 117.166C320.824 117.443 320.778 117.729 320.767 118.018C320.771 118.314 320.803 118.61 320.865 118.899C321.159 118.899 322.08 118.733 322.403 118.713C322.343 118.493 322.317 118.265 322.324 118.037C322.324 117.794 322.364 117.553 322.442 117.322L320.904 117.166Z" fill="#FFB842"/>
<path d="M160.292 206.689C160.292 206.689 171.242 218.609 191.204 221.685C203.734 223.543 216.419 224.153 229.07 223.507" stroke="#B27C4A" stroke-width="1.07742" stroke-linecap="round" stroke-linejoin="round"/>
<path d="M293.657 152.887C291.519 153.588 289.432 154.433 287.408 155.414C289.333 154.541 291.466 154.236 293.559 154.532V155.757H292.736C293.529 155.757 293.872 156.638 293.715 157.334C293.559 158.029 293.147 158.725 293.314 159.4C289.926 158.598 286.38 158.775 283.088 159.91C280.831 160.856 278.763 162.203 276.986 163.886C273.977 166.505 271.517 169.694 269.748 173.27C265.83 176.629 265.987 180.988 266.594 184.622C264.558 185.263 262.46 185.686 260.335 185.885C259.965 185.973 259.579 185.973 259.209 185.885C258.992 185.781 258.8 185.633 258.643 185.451C258.486 185.269 258.369 185.057 258.298 184.827C257.621 183.125 257.241 181.32 257.171 179.489C256.476 169.038 261.863 158.196 270.757 150.624C272.136 149.357 273.727 148.343 275.458 147.627C277.107 147.107 278.815 146.801 280.542 146.716L289.151 145.923C290.65 145.786 293.578 146.158 293.941 147.039C294.186 147.539 293.921 152.887 293.657 152.887Z" fill="#57CA82"/>
<path d="M276.996 135.472C271.413 139.254 266.318 143.708 261.824 148.734C255.065 156.57 243.449 174.288 243.449 174.288C243.449 174.288 254.017 180.097 255.408 182.251C256.383 183.663 257.608 184.885 259.022 185.856C259.022 185.856 265.977 170.811 272.999 162.192C278.572 155.421 285.789 150.194 293.96 147.01C293.96 147.01 292.079 142.671 285.517 139.174C278.455 135.423 276.996 135.472 276.996 135.472Z" fill="#4DA36D"/>
<path d="M259.708 159.244C260.023 159.783 260.401 160.283 260.835 160.732C262.526 162.531 264.641 163.877 266.986 164.65C267.431 164.856 267.924 164.937 268.412 164.885C268.9 164.833 269.365 164.651 269.757 164.356C271.001 163.637 272.09 162.678 272.96 161.536C273.79 160.466 274.21 159.136 274.145 157.784C273.9 156.204 273.11 154.759 271.912 153.7C270.319 151.993 268.234 150.822 265.947 150.35C264.93 150.143 263.878 150.186 262.882 150.477C262.434 150.609 262.018 150.829 261.657 151.124C261.308 151.388 261.018 151.721 260.805 152.103C260.443 152.848 259.933 153.533 259.591 154.288C259.232 155.074 259.054 155.931 259.071 156.795C259.087 157.65 259.305 158.489 259.708 159.244Z" fill="#77D499"/>
<path d="M287.35 137.627C280.288 133.856 276.409 133.16 276.409 133.16C276.409 133.16 268.691 140.996 261.942 148.754C255.194 156.511 243.567 174.308 243.567 174.308C243.567 174.308 254.136 180.116 255.527 182.271C256.501 183.683 257.726 184.905 259.141 185.875C259.141 185.875 266.223 170.899 273.128 162.211C281.473 151.692 293.902 147.226 294.088 147.059C294.088 147.01 293.697 141.976 287.35 137.627ZM278.623 152.75C275.178 155.598 272.096 158.858 269.445 162.456C264.548 168.744 260.091 175.483 258.083 182.8C255.145 178.804 251.873 174.582 246.711 173.005C249.154 169.087 251.795 165.297 254.635 161.634C259.594 155.119 264.935 148.905 270.63 143.024C271.61 141.956 274.303 138.988 275.89 137.558C276.34 137.137 276.869 136.275 277.633 136.285C278.397 136.295 279.592 137.578 280.092 137.96L285.459 141.878L288.192 143.837C288.564 144.111 290.69 147.128 291.13 147.059C286.543 147.855 282.237 149.814 278.623 152.75Z" fill="#77D499"/>
<path d="M277.554 159.4C281.348 156.119 285.648 153.473 290.287 151.565C290.875 151.32 291.482 151.075 292.08 150.859C292.364 150.752 293.725 150.448 293.843 150.233C294.254 149.518 292.863 150.115 292.648 150.233L290.924 151.006C288.598 152.03 286.329 153.178 284.126 154.444C281.783 155.884 279.583 157.544 277.554 159.4Z" fill="#056B53"/>
<path d="M280.12 159.41C283.084 158.034 286.22 157.066 289.444 156.531C290.838 156.222 292.282 156.222 293.675 156.531C293.558 156.531 293.627 155.962 293.48 155.845C293.333 155.727 292.931 155.786 292.716 155.796C292.108 155.796 291.491 155.796 290.884 155.894C289.616 156.014 288.359 156.227 287.123 156.531C284.658 157.135 282.297 158.105 280.12 159.41Z" fill="#056B53"/>
<path d="M271.364 167.951C267.848 173.407 264.655 179.225 263.989 185.327C262.96 185.454 263.146 185.121 263.342 184.347C263.538 183.574 263.665 183.104 263.842 182.477C264.224 181.223 264.655 179.979 265.154 178.755C266.149 176.272 267.362 173.883 268.778 171.614C269.581 170.38 270.551 169.205 271.364 167.951Z" fill="#056B53"/>
<path d="M255.78 155.6C255.78 155.6 254.311 151.907 256.368 149.723C258.424 147.539 263.635 146.844 263.635 146.844L260.697 150.154C260.697 150.154 259.815 153.093 262.293 154.65C264.771 156.207 262.832 157.588 260.658 158.254C258.483 158.92 255.78 155.6 255.78 155.6Z" fill="#EDBA89"/>
<path d="M199.471 133.993C208.072 121.466 219.153 110.839 232.028 102.768C233.963 101.543 236.139 100.75 238.408 100.443C240.677 100.135 242.986 100.322 245.176 100.988C247.367 101.655 249.388 102.786 251.101 104.305C252.815 105.825 254.18 107.695 255.104 109.79C255.57 110.833 255.815 111.961 255.824 113.103C255.833 114.245 255.605 115.376 255.155 116.426C254.705 117.476 254.043 118.421 253.21 119.202C252.377 119.984 251.391 120.584 250.315 120.966C241.274 124.169 231.911 128.929 227.356 135.198C224.026 139.772 226.112 142.73 229.207 144.434C230.285 145.022 231.382 145.57 232.489 146.07C238.487 148.737 244.924 150.281 251.48 150.624C255.226 150.774 258.955 151.203 262.637 151.907C272.255 153.866 250.726 168.98 250.197 167.354C248.238 167.354 244.908 167.403 239.707 167.354C228.972 167.285 180.009 162.868 199.471 133.993Z" fill="#EDBA89"/>
<path d="M168.912 145.306L167.649 145.051C164.558 144.465 161.582 143.387 158.834 141.858C157.529 141.138 156.315 140.263 155.219 139.253C151.977 136.099 149.627 131.848 149.93 126.765C150.234 121.681 152.79 118.831 156.003 116.647C158.671 115.012 161.85 114.426 164.926 115.001C168.168 115.755 171.782 119.252 172.272 122.837C172.762 126.422 170.499 129.007 168.491 129.419C166.483 129.83 163.848 128.371 163.447 127.058C163.045 125.746 163.692 125.099 164.426 124.952C165.161 124.806 165.856 125.53 165.856 125.53C165.856 125.53 167.463 124.796 166.17 123.63C165.351 123.018 164.335 122.728 163.316 122.817C162.297 122.905 161.347 123.366 160.646 124.11C159.451 125.423 158.207 128.547 161.302 131.642C164.005 134.346 167.463 134.953 171.018 134.845L168.912 145.306Z" fill="#EDBA89"/>
<path d="M120.742 241.421C121.93 241.339 123.06 240.877 123.965 240.103C124.87 239.328 125.502 238.283 125.766 237.121" stroke="#B27C4A" stroke-width="1.07742" stroke-linecap="round" stroke-linejoin="round"/>
<path d="M125.256 244.957C126.617 244.866 127.914 244.341 128.956 243.46C129.997 242.579 130.729 241.387 131.045 240.059" stroke="#B27C4A" stroke-width="1.24393" stroke-linecap="round" stroke-linejoin="round"/>
<path d="M52.8154 183.133C54.0623 183.047 55.2494 182.566 56.204 181.759C57.1587 180.952 57.8313 179.862 58.1241 178.647" stroke="#B27C4A" stroke-width="1.13618" stroke-linecap="round" stroke-linejoin="round"/>
<path d="M57.585 186.816C57.585 186.816 62.0905 186.816 63.6773 181.664" stroke="#B27C4A" stroke-width="1.30269" stroke-linecap="round" stroke-linejoin="round"/>
<path d="M261.599 151.653C261.599 151.653 275.42 152.133 278.632 156.726C281.845 161.32 277.555 165.63 276.174 165.414C276.174 165.414 277.555 170.312 273.529 171.526C272.447 171.9 271.304 172.066 270.16 172.016C270.16 172.016 271.306 174.298 270.101 175.669C269.419 176.316 268.591 176.79 267.688 177.051C266.785 177.311 265.832 177.352 264.91 177.168C255.977 175.395 252.324 171.977 250.218 167.647C248.112 163.318 252.931 156.423 255.38 155.1C257.829 153.778 261.599 151.653 261.599 151.653Z" fill="#EDBA89"/>
<path d="M228.562 105.079C228.562 105.079 207.444 118.077 198.433 136.579C189.422 155.081 204.908 162.133 217.533 164.503C238.925 168.529 249.689 167.442 249.689 167.442" stroke="#B27C4A" stroke-width="1.07742" stroke-linecap="round" stroke-linejoin="round"/>
<path d="M314.784 72.8643C316.484 74.4965 318.686 75.5076 321.033 75.7342C322.649 75.7342 325.264 74.1083 326.909 72.071C328.555 70.0337 325.783 69.1326 320.67 69.4754C315.557 69.8182 312.932 71.1111 314.784 72.8643Z" fill="white"/>
<path d="M310.003 90.2009C308.664 90.2023 307.347 89.8654 306.173 89.2214C306.061 89.1575 305.977 89.0523 305.941 88.928C305.904 88.8037 305.917 88.6701 305.977 88.5554C306.008 88.4987 306.05 88.4486 306.1 88.408C306.15 88.3675 306.208 88.3372 306.27 88.319C306.332 88.3008 306.396 88.295 306.461 88.302C306.525 88.3089 306.587 88.3285 306.643 88.3595C310.493 90.4556 315.018 88.3595 317.486 85.3035C319.811 82.2744 320.864 78.4593 320.425 74.6665C320.418 74.6022 320.424 74.5373 320.443 74.4754C320.462 74.4135 320.492 74.3559 320.533 74.3059C320.574 74.2559 320.625 74.2144 320.682 74.1838C320.739 74.1533 320.801 74.1342 320.865 74.1278C320.93 74.1214 320.995 74.1277 321.056 74.1463C321.118 74.165 321.176 74.1957 321.226 74.2366C321.276 74.2775 321.317 74.3279 321.348 74.3849C321.379 74.4418 321.398 74.5043 321.404 74.5686C321.869 78.6142 320.742 82.6822 318.26 85.9108C317.28 87.1854 316.033 88.2299 314.607 88.9711C313.181 89.7122 311.609 90.132 310.003 90.2009Z" fill="white"/>
<path d="M331.797 87.7914C330.274 87.7291 328.784 87.3337 327.43 86.6331C326.076 85.9325 324.892 84.9438 323.962 83.7364C321.603 80.67 320.531 76.8054 320.974 72.9623C320.987 72.8402 321.048 72.7282 321.144 72.6511C321.239 72.5739 321.362 72.5379 321.484 72.5509C321.606 72.5639 321.718 72.6248 321.795 72.7203C321.872 72.8159 321.908 72.9381 321.895 73.0602C321.487 76.6513 322.487 80.2608 324.686 83.1291C327.027 86.0675 331.308 88.0265 334.951 86.0186C335.059 85.9601 335.186 85.9469 335.303 85.9818C335.421 86.0167 335.52 86.0969 335.578 86.2047C335.637 86.3125 335.65 86.4391 335.615 86.5566C335.58 86.6742 335.5 86.7731 335.392 86.8315C334.294 87.4502 333.058 87.7805 331.797 87.7914Z" fill="white"/>
<path d="M243.567 123.601C243.567 123.601 223.87 131.437 225.682 139.84C227.494 148.244 248.895 150.615 255.271 150.84C257.396 148.685 260.183 147.305 263.186 146.922" stroke="#B27C4A" stroke-width="1.07742" stroke-linecap="round" stroke-linejoin="round"/>
<path d="M260.667 151.614C265.181 151.899 269.65 152.671 273.998 153.915C275.397 154.22 276.695 154.878 277.769 155.825C278.401 156.558 278.849 157.43 279.076 158.371C279.302 159.311 279.301 160.292 279.072 161.232C278.967 162.082 278.649 162.891 278.147 163.584C277.645 164.278 276.976 164.833 276.202 165.199" stroke="#B27C4A" stroke-width="1.07742" stroke-linecap="round" stroke-linejoin="round"/>
<path d="M249.689 167.471C253.176 171.849 257.525 175.611 263.793 176.845C268.583 177.775 271.629 174.994 269.739 171.36C268.841 170.026 267.717 168.859 266.418 167.912" stroke="#B27C4A" stroke-width="1.07742" stroke-linecap="round" stroke-linejoin="round"/>
<path d="M269.611 160.478C271.148 160.617 272.591 161.281 273.696 162.358C276.223 164.464 276.997 167.383 275.958 169.127C275.425 169.991 274.671 170.698 273.775 171.175C272.878 171.652 271.87 171.881 270.855 171.84" stroke="#B27C4A" stroke-width="1.07742" stroke-linecap="round" stroke-linejoin="round"/>
<path d="M290.13 54.1017C294.833 52.6778 299.85 52.6329 304.578 53.9724C306.115 54.4889 307.519 55.3353 308.69 56.4514C309.909 57.9428 310.663 59.7562 310.859 61.6682C311.101 63.7651 311.031 65.8859 310.653 67.9628C309.872 72.1125 306.249 75.8849 301.444 77.3508C297.806 78.4237 293.902 78.1597 290.444 76.6071C287.035 75.096 284.34 72.3409 282.916 68.9113C281.3 64.8478 281.832 60.2885 284.435 57.5292C285.945 55.8455 287.929 54.6514 290.13 54.1017Z" fill="white"/>
<path d="M326.781 63.3784C325.37 60.0907 325.905 56.0979 328.109 53.8134C329.48 52.4896 331.167 51.5107 333.022 50.9628C334.543 50.4783 336.12 50.1748 337.718 50.059C340.338 49.8687 342.973 50.1379 345.493 50.8536C346.824 51.2803 348.028 52.0093 349.005 52.9791C350.045 54.2322 350.695 55.7442 350.88 57.3394C351.099 59.0949 351.019 60.8731 350.643 62.6036C349.973 66.1396 346.791 69.2286 342.692 70.4602C339.561 71.342 336.209 71.1382 333.217 69.8841C330.315 68.5533 328.023 66.2369 326.781 63.3784Z" fill="white"/>
<path d="M296.712 66.9095C295.517 66.2238 295.547 64.5294 295.508 62.9916C295.468 61.4538 295.606 59.8475 296.849 58.9954C298.093 58.1432 301.002 59.7789 300.875 62.7467C300.748 65.7145 297.897 67.5951 296.712 66.9095Z" fill="#1A1A1A"/>
<path d="M338.674 62.4918C337.537 61.8356 337.557 60.1999 337.518 58.7502C337.479 57.3006 337.616 55.7237 338.811 54.9107C340.006 54.0978 342.797 55.6649 342.68 58.5152C342.562 61.3654 339.869 63.1481 338.674 62.4918Z" fill="#1A1A1A"/>
<path d="M281.864 54.4311C283.862 52.3421 286.365 50.8037 289.131 49.9647C294.304 48.2964 299.863 48.2417 305.067 49.808C307.35 50.5129 309.417 51.7869 311.071 53.5104C311.473 54.0295 311.875 54.5388 312.286 55.1461C313.825 54.3072 315.515 53.781 317.258 53.5978C319.001 53.4145 320.763 53.5779 322.443 54.0785C322.987 52.6797 323.776 51.3894 324.774 50.2683C326.648 48.2967 329.015 46.8627 331.631 46.1154C336.451 44.571 341.625 44.513 346.479 45.9489C348.637 46.662 350.594 47.8772 352.19 49.4946C353.806 51.4932 354.87 53.881 355.275 56.4194C355.585 58.7001 355.519 61.0164 355.079 63.2757C354.1 68.5158 349.692 73.2173 344.021 74.9216C342.797 75.2736 341.54 75.4936 340.269 75.5778C337.253 75.8268 334.222 75.3149 331.454 74.089C327.487 72.3172 324.35 69.0923 322.688 65.0779C322.008 63.3728 321.624 61.5642 321.552 59.73C320.359 59.2842 319.078 59.1272 317.813 59.2719C316.548 59.4166 315.335 59.8589 314.274 60.5626C314.274 60.6605 314.274 60.8368 314.274 60.925C314.607 63.3442 314.521 65.8026 314.02 68.1926C313.04 73.805 308.319 78.7905 302.207 80.6319C300.929 81.0089 299.617 81.2615 298.289 81.3861C295.08 81.6346 291.86 81.0581 288.935 79.7112C284.702 77.777 281.357 74.3129 279.572 70.0144C277.319 64.6665 278.269 58.3392 281.864 54.4311ZM284.107 68.1436C285.394 71.251 287.823 73.7469 290.894 75.1175C294.028 76.4812 297.537 76.7199 300.826 75.7933C305.175 74.5494 308.535 71.1114 309.142 67.2621C309.534 65.3771 309.597 63.4386 309.328 61.5322C309.148 59.7957 308.467 58.149 307.369 56.7916C306.325 55.7475 305.04 54.9771 303.628 54.5486C300.99 53.7844 298.235 53.5089 295.498 53.7357C293.836 53.8573 292.193 54.1662 290.601 54.6564C288.649 55.238 286.866 56.2793 285.4 57.6927C284.296 59.1693 283.597 60.9078 283.37 62.737C283.144 64.5662 283.397 66.4228 284.107 68.124V68.1436ZM342.454 70.1026C346.372 68.986 349.457 65.8419 350.005 62.355C350.361 60.6515 350.437 58.9015 350.231 57.1736C350.06 55.5964 349.441 54.101 348.448 52.8639C347.496 51.9366 346.357 51.2221 345.108 50.7679C342.711 50.0621 340.205 49.7966 337.713 49.9843C336.194 50.1033 334.695 50.4025 333.247 50.8756C331.484 51.4199 329.881 52.3846 328.575 53.6867C326.479 55.9395 326.057 59.779 327.311 63.1288C328.495 65.9708 330.715 68.2569 333.521 69.5247C336.335 70.774 339.502 70.9789 342.454 70.1026Z" fill="#4F47AD"/>
</g>
<defs>
<clipPath id="clip0_249_2896">
<rect width="390.073" height="230.165" fill="white" transform="translate(50.9238 23.597)"/>
</clipPath>
</defs>
</svg>
