<svg width="106" height="18" viewBox="0 0 106 18" fill="none" xmlns="http://www.w3.org/2000/svg">
<g clip-path="url(#clip0_1115_3094)">
<path d="M8.59863 0.844105C8.75942 0.506015 9.24059 0.506015 9.40137 0.844105L11.4829 5.22111C11.5477 5.35736 11.6772 5.45143 11.8268 5.47095L16.6328 6.09805C17.004 6.14649 17.1527 6.60411 16.8809 6.8615L13.3613 10.1937C13.2518 10.2975 13.2023 10.4497 13.23 10.598L14.1187 15.3626C14.1873 15.7306 13.7981 16.0134 13.4693 15.8344L9.21252 13.5168C9.08002 13.4447 8.91998 13.4447 8.78748 13.5168L4.53073 15.8344C4.20193 16.0134 3.81265 15.7306 3.8813 15.3626L4.77003 10.598C4.79769 10.4497 4.74824 10.2975 4.63869 10.1937L1.11914 6.8615C0.847279 6.60411 0.995969 6.14649 1.3672 6.09805L6.17322 5.47095C6.32281 5.45143 6.45229 5.35736 6.51708 5.22111L8.59863 0.844105Z" fill="#FFB11A"/>
</g>
<g clip-path="url(#clip1_1115_3094)">
<path d="M30.5986 0.844105C30.7594 0.506015 31.2406 0.506015 31.4014 0.844105L33.4829 5.22111C33.5477 5.35736 33.6772 5.45143 33.8268 5.47095L38.6328 6.09805C39.004 6.14649 39.1527 6.60411 38.8809 6.8615L35.3613 10.1937C35.2518 10.2975 35.2023 10.4497 35.23 10.598L36.1187 15.3626C36.1873 15.7306 35.7981 16.0134 35.4693 15.8344L31.2125 13.5168C31.08 13.4447 30.92 13.4447 30.7875 13.5168L26.5307 15.8344C26.2019 16.0134 25.8127 15.7306 25.8813 15.3626L26.77 10.598C26.7977 10.4497 26.7482 10.2975 26.6387 10.1937L23.1191 6.8615C22.8473 6.60411 22.996 6.14649 23.3672 6.09805L28.1732 5.47095C28.3228 5.45143 28.4523 5.35736 28.5171 5.22111L30.5986 0.844105Z" fill="#FFB11A"/>
</g>
<g clip-path="url(#clip2_1115_3094)">
<path d="M52.5986 0.844105C52.7594 0.506015 53.2406 0.506015 53.4014 0.844105L55.4829 5.22111C55.5477 5.35736 55.6772 5.45143 55.8268 5.47095L60.6328 6.09805C61.004 6.14649 61.1527 6.60411 60.8809 6.8615L57.3613 10.1937C57.2518 10.2975 57.2023 10.4497 57.23 10.598L58.1187 15.3626C58.1873 15.7306 57.7981 16.0134 57.4693 15.8344L53.2125 13.5168C53.08 13.4447 52.92 13.4447 52.7875 13.5168L48.5307 15.8344C48.2019 16.0134 47.8127 15.7306 47.8813 15.3626L48.77 10.598C48.7977 10.4497 48.7482 10.2975 48.6387 10.1937L45.1191 6.8615C44.8473 6.60411 44.996 6.14649 45.3672 6.09805L50.1732 5.47095C50.3228 5.45143 50.4523 5.35736 50.5171 5.22111L52.5986 0.844105Z" fill="#FFB11A"/>
</g>
<g clip-path="url(#clip3_1115_3094)">
<path d="M74.5986 0.844105C74.7594 0.506015 75.2406 0.506015 75.4014 0.844105L77.4829 5.22111C77.5477 5.35736 77.6772 5.45143 77.8268 5.47095L82.6328 6.09805C83.004 6.14649 83.1527 6.60411 82.8809 6.8615L79.3613 10.1937C79.2518 10.2975 79.2023 10.4497 79.23 10.598L80.1187 15.3626C80.1873 15.7306 79.7981 16.0134 79.4693 15.8344L75.2125 13.5168C75.08 13.4447 74.92 13.4447 74.7875 13.5168L70.5307 15.8344C70.2019 16.0134 69.8127 15.7306 69.8813 15.3626L70.77 10.598C70.7977 10.4497 70.7482 10.2975 70.6387 10.1937L67.1191 6.8615C66.8473 6.60411 66.996 6.14649 67.3672 6.09805L72.1732 5.47095C72.3228 5.45143 72.4523 5.35736 72.5171 5.22111L74.5986 0.844105Z" fill="#FFB11A"/>
</g>
<g clip-path="url(#clip4_1115_3094)">
<path d="M97.0986 0.844105C97.2594 0.506015 97.7406 0.506015 97.9014 0.844105L100.127 5.52331C100.191 5.65955 100.321 5.75362 100.47 5.77314L105.608 6.44354C105.98 6.49198 106.128 6.9496 105.856 7.20699L102.094 10.7693C101.984 10.873 101.935 11.0252 101.963 11.1735L102.913 16.2671C102.981 16.6351 102.592 16.9179 102.263 16.7389L97.7125 14.2613C97.58 14.1892 97.42 14.1892 97.2875 14.2613L92.7368 16.7389C92.408 16.9179 92.0188 16.6351 92.0874 16.2671L93.0375 11.1735C93.0652 11.0252 93.0157 10.873 92.9062 10.7693L89.1436 7.20699C88.8718 6.9496 89.0204 6.49198 89.3917 6.44354L94.5295 5.77314C94.6791 5.75362 94.8086 5.65955 94.8734 5.52331L97.0986 0.844105Z" fill="#B5C3D1"/>
</g>
<defs>
<clipPath id="clip0_1115_3094">
<rect width="18" height="18" fill="white"/>
</clipPath>
<clipPath id="clip1_1115_3094">
<rect width="18" height="18" fill="white" transform="translate(22 0.00012207)"/>
</clipPath>
<clipPath id="clip2_1115_3094">
<rect width="18" height="18" fill="white" transform="translate(44 0.00012207)"/>
</clipPath>
<clipPath id="clip3_1115_3094">
<rect width="18" height="18" fill="white" transform="translate(66 0.00012207)"/>
</clipPath>
<clipPath id="clip4_1115_3094">
<rect width="18" height="18" fill="white" transform="translate(88 0.00012207)"/>
</clipPath>
</defs>
</svg>
