<svg width="85" height="85" viewBox="0 0 85 85" fill="none" xmlns="http://www.w3.org/2000/svg">
<g clip-path="url(#clip0_2214_807)">
<path d="M63.6254 82.3344C61.3374 83.9336 58.5236 84.0417 58.5236 84.0417L29.7943 84.9961C26.6875 85.0987 23.8865 83.1331 22.9303 80.1746L0.215008 9.99361C-0.029879 9.23651 -0.0653526 8.42726 0.112348 7.65164C0.290048 6.87601 0.6743 6.16292 1.22437 5.58795L5.81872 0.784771C6.3408 0.238871 7.07722 -0.0469013 7.83012 0.00622313L40.095 2.27958L47.3382 2.79068C52.6433 3.16438 53.7992 8.33577 53.7992 8.33577C53.7992 8.33577 64.1035 63.8947 66.2303 74.0324C67.1646 78.4838 65.5892 80.9587 63.6254 82.3344Z" fill="#52528C"/>
<path d="M63.6254 82.3344C61.3374 83.9336 58.5236 84.0417 58.5236 84.0417L29.7943 84.9961C26.6875 85.0987 23.8865 83.1331 22.9303 80.1746L0.215008 9.99361C-0.029879 9.23651 -0.0653526 8.42726 0.112348 7.65164C0.290048 6.87601 0.6743 6.16292 1.22437 5.58795L5.81872 0.784771C6.3408 0.238871 7.07722 -0.0469013 7.83012 0.00622313L40.095 2.27958C38.1678 22.7984 39.0508 58.8003 63.6254 82.3344Z" fill="#01356D"/>
<path d="M59.1074 77.5697H59.1056C58.3179 77.7511 57.3781 77.8537 56.2625 77.8537H35.6704C35.6704 77.8537 30.6547 78.1852 28.7624 74.1331C26.8682 70.0828 8.16845 9.50085 8.16845 9.50085C8.16845 9.50085 6.08743 3.6535 11.8011 3.6535L17.7345 3.92096C17.7345 3.92096 18.3097 6.57718 20.1709 7.5957C22.0303 8.61423 38.5483 8.92381 38.5483 8.92381C38.5483 8.92381 39.0447 8.92381 39.6273 8.74429C40.4882 8.47684 41.5324 7.81553 41.428 6.17783L46.4638 6.42147C46.4638 6.42147 49.023 6.77685 50.2173 7.93826C51.4136 9.1015 52.3112 14.2491 52.3112 14.2491L62.9507 71.8543C62.9507 71.8543 64.3208 76.3808 59.1074 77.5697Z" fill="#F1F8FF"/>
<path d="M59.1056 77.5697C58.3179 77.7511 57.3781 77.8537 56.2625 77.8537H35.6704C35.6704 77.8537 30.6547 78.1852 28.7624 74.1331C26.8682 70.0828 8.16845 9.50085 8.16845 9.50085C8.16845 9.50085 6.08743 3.6535 11.8011 3.6535L17.7345 3.92096C17.7345 3.92096 18.3097 6.57718 20.1709 7.5957C22.0303 8.61423 38.5483 8.92381 38.5483 8.92381C38.5483 8.92381 39.0447 8.92381 39.6273 8.74429C38.6454 28.2263 41.0653 56.6204 59.1056 77.5697Z" fill="#DFEBFC"/>
<path d="M47.552 17.1133L51.5649 32.9836C51.985 34.6454 50.3455 36.1914 48.1631 36.1914H24.6685C23.913 36.1914 23.1781 35.9999 22.5758 35.6459C21.9734 35.292 21.5366 34.7951 21.3318 34.2308L15.5713 18.3605C14.9484 16.6444 16.6105 14.9414 18.9081 14.9414H44.1504C45.8074 14.9413 47.2329 15.8514 47.552 17.1133Z" fill="white"/>
<path d="M53.3935 41.9419L56.9417 56.1318C57.3131 57.6176 55.8635 58.9999 53.9339 58.9999H33.1602C32.4922 58.9999 31.8424 58.8287 31.3098 58.5122C30.7773 58.1958 30.391 57.7515 30.2099 57.2469L25.1166 43.057C24.5658 41.5226 26.0354 39.9999 28.0669 39.9999H50.3858C51.851 39.9998 53.1113 40.8136 53.3935 41.9419Z" fill="white"/>
<path d="M84.9998 72.3013V84.9999H74.0305C71.8524 81.7703 70.1066 79.5024 70.1066 79.5024C67.6391 80.8342 64.4571 81.6714 61.5426 79.7699C58.0987 77.5222 54.6511 75.7947 51.4068 75.0052C49.1005 74.4428 46.8949 74.3548 44.8689 74.8916C39.9887 76.1831 36.9368 69.8264 44.9696 67.2124C49.5621 65.7175 54.7921 67.9543 58.4266 70.1434C58.4192 70.136 58.4064 70.125 58.3863 70.1104C58.2544 70.0096 57.8752 69.7184 57.3091 69.2641C57.2945 69.2512 57.2816 69.2402 57.267 69.2311C52.6818 65.5563 36.314 51.6231 39.2871 41.1667C41.7345 32.5661 47.1001 40.7126 50.6649 49.5494C51.3262 51.1853 52.2641 52.7772 53.2002 54.1804C53.2021 54.1822 53.2021 54.184 53.2021 54.184C53.1508 53.5136 53.1489 51.0332 55.6183 49.4889C55.633 49.478 55.6476 49.4688 55.6623 49.4596C56.4207 48.9925 57.3091 48.8973 58.2416 49.1281C58.3533 49.1555 58.4669 49.1885 58.5804 49.2252V49.2233C58.5859 49.2123 58.6116 49.1592 58.6611 49.0713C59.1245 48.2231 61.5719 44.2333 65.6222 46.34H65.624C66.507 45.8618 73.8583 42.3062 77.9617 54.2665C79.2861 58.1244 79.5994 61.5299 79.3942 64.4023C79.4235 64.4334 81.8565 67.8244 84.9998 72.3013Z" fill="#FFD5B8"/>
<path d="M62.9708 73.3931C62.7968 73.329 53.3003 69.7458 51.4062 75.0051C49.0998 74.4427 46.8943 74.3548 44.8682 74.8915C39.9881 76.183 36.9362 69.8264 44.969 67.2123C49.5615 65.7175 54.7915 67.9542 58.4259 70.1433C58.4314 70.147 58.4333 70.1488 58.4333 70.1488C58.4351 70.1488 58.4351 70.1488 58.4351 70.1506C61.0913 71.7517 62.8941 73.3271 62.9708 73.3931ZM84.9991 84.9998H74.0299C71.8518 81.7702 70.106 79.5024 70.106 79.5024C72.6266 78.1431 74.4072 76.2709 74.4072 76.2709L77.3657 73.3949L84.9991 84.9998ZM65.3561 57.7507C65.3561 57.7507 56.3927 49.6556 53.2016 54.184C53.1503 53.5135 53.1485 51.0332 55.6178 49.4889C55.6325 49.4779 55.6472 49.4688 55.6618 49.4596C56.4202 48.9925 57.3087 48.8972 58.2411 49.128C58.3528 49.1555 58.4664 49.1885 58.58 49.2251H58.5818C61.1538 50.0605 63.984 53.2534 65.3561 57.7507Z" fill="#FFB988"/>
<path d="M58.2404 49.128C57.9382 49.1738 57.6378 49.2324 57.3373 49.3039C56.5936 49.4797 56.0294 49.5329 55.6172 49.4889C55.6318 49.4779 55.6465 49.4688 55.6612 49.4596C56.4196 48.9925 57.3082 48.8972 58.2404 49.128ZM71.1517 52.266C71.1517 52.266 64.861 48.322 58.6601 49.0712C59.1236 48.2231 61.571 44.2333 65.6212 46.3399H65.6231C67.2241 47.1734 69.0743 48.9595 71.1517 52.266Z" fill="#FFB988"/>
</g>
<defs>
<clipPath id="clip0_2214_807">
<rect width="85" height="85" fill="white"/>
</clipPath>
</defs>
</svg>
