<svg width="85" height="85" viewBox="0 0 85 85" fill="none" xmlns="http://www.w3.org/2000/svg">
<g clip-path="url(#clip0_150_1560)">
<path d="M58.5214 84.0418L56.3103 84.1151L29.7939 84.9962C26.6852 85.0988 23.8861 83.1332 22.928 80.1747L0.214569 9.99368C-0.0306115 9.23674 -0.06641 8.42757 0.110968 7.65194C0.288347 6.87632 0.672292 6.16314 1.2221 5.58801L5.81645 0.784832C6.33853 0.238932 7.07678 -0.0468403 7.82968 0.00628416L30.9077 1.63299L47.3378 2.79074C52.6429 3.16444 53.7988 8.33583 53.7988 8.33583C53.7988 8.33583 64.1031 63.8948 66.2281 74.0324C68.2505 83.6663 58.5214 84.0418 58.5214 84.0418Z" fill="#52528C"/>
<path d="M56.3103 84.1151L29.7939 84.9962C26.6852 85.0988 23.8861 83.1332 22.928 80.1747L0.214569 9.99368C-0.0306115 9.23674 -0.06641 8.42757 0.110968 7.65194C0.288347 6.87632 0.672292 6.16314 1.2221 5.58801L5.81645 0.784832C6.33853 0.238932 7.07678 -0.0468403 7.82968 0.00628416L30.9077 1.63299C28.8541 22.5512 29.5759 60.4087 56.3103 84.1151Z" fill="#01356D"/>
<path d="M56.2627 77.8537H35.6705C35.6705 77.8537 30.6549 78.1853 28.7607 74.1332C26.8684 70.0829 8.16858 9.50092 8.16858 9.50092C8.16858 9.50092 6.08757 3.65356 11.7994 3.65356L17.7346 3.92102C17.7346 3.92102 18.3099 6.57724 20.1692 7.59576C21.1236 8.11785 25.925 8.45308 30.3838 8.65642C34.6227 8.8506 38.5484 8.92387 38.5484 8.92387C38.5484 8.92387 41.604 8.92387 41.4263 6.17789L46.464 6.42153C46.464 6.42153 49.0213 6.77691 50.2175 7.93832C51.4137 9.10157 52.3095 14.2491 52.3095 14.2491L62.949 71.8543C62.949 71.8543 64.7644 77.8537 56.2627 77.8537Z" fill="#F1F8FF"/>
<path d="M50.1057 77.8537H35.6705C35.6705 77.8537 30.6549 78.1853 28.7607 74.1332C26.8684 70.0829 8.16858 9.50092 8.16858 9.50092C8.16858 9.50092 6.08757 3.65356 11.7994 3.65356L17.7346 3.92102C17.7346 3.92102 18.3099 6.57724 20.1692 7.59576C21.1236 8.11785 25.925 8.45308 30.3838 8.65642C29.3872 28.23 31.8108 56.8476 50.1057 77.8537Z" fill="#DFEBFC"/>
<path d="M51.389 40.757C51.389 40.6598 51.3504 40.5666 51.2817 40.4979C51.213 40.4292 51.1198 40.3906 51.0226 40.3906H25.2804C25.1833 40.3906 25.0901 40.4292 25.0214 40.4979C24.9527 40.5666 24.9141 40.6598 24.9141 40.757C24.9141 40.8542 24.9527 40.9474 25.0214 41.0161C25.0901 41.0848 25.1833 41.1234 25.2804 41.1234H51.0224C51.0706 41.1234 51.1182 41.114 51.1627 41.0955C51.2072 41.0771 51.2476 41.0502 51.2816 41.0161C51.3157 40.9821 51.3427 40.9417 51.3611 40.8973C51.3795 40.8528 51.389 40.8051 51.389 40.757ZM53.5156 48.3011C53.5156 48.204 53.477 48.1108 53.4083 48.0421C53.3396 47.9733 53.2464 47.9347 53.1493 47.9347H27.4071C27.3099 47.9347 27.2167 47.9733 27.148 48.0421C27.0793 48.1108 27.0407 48.204 27.0407 48.3011C27.0407 48.3983 27.0793 48.4915 27.148 48.5602C27.2167 48.6289 27.3099 48.6675 27.4071 48.6675H53.1493C53.2464 48.6675 53.3396 48.6289 53.4083 48.5602C53.477 48.4915 53.5156 48.3983 53.5156 48.3011ZM55.905 56.0797H30.1628C30.0656 56.0797 29.9725 56.1183 29.9037 56.187C29.835 56.2557 29.7964 56.3489 29.7964 56.4461C29.7964 56.5433 29.835 56.6365 29.9037 56.7052C29.9725 56.7739 30.0656 56.8125 30.1628 56.8125H55.905C56.0022 56.8125 56.0954 56.7739 56.1641 56.7052C56.2328 56.6365 56.2714 56.5433 56.2714 56.4461C56.2714 56.3489 56.2328 56.2557 56.1641 56.187C56.0954 56.1183 56.0022 56.0797 55.905 56.0797Z" fill="#51518E"/>
<path d="M48.7706 33.7618H24.0509C23.2522 33.7618 22.5451 33.2452 22.3033 32.4832L18.3482 19.9567C17.9617 18.733 18.9216 17.5001 20.204 17.577L39.0835 18.6982L46.717 19.1506C47.5505 19.2001 48.2448 19.8065 48.406 20.6253L49.6792 27.0791L50.5676 31.5764C50.7911 32.7085 49.9247 33.7618 48.7706 33.7618Z" fill="white"/>
<path d="M79.6886 17.1177C79.3347 19.6099 78.7612 22.0656 77.9748 24.4558C74.1711 36.3883 66.0048 49.975 66.0048 49.975L59.7698 48.3099C67.7614 9.87088 81.324 4.30506 79.6886 17.1177Z" fill="#2472D9"/>
<path d="M78.9225 21.2287C78.6601 22.2796 78.3497 23.3633 78.0041 24.4571C77.2469 23.5105 76.2987 22.7358 75.222 22.184C74.1453 21.6323 72.9644 21.3159 71.757 21.2559C70.5826 21.1659 69.4014 21.2644 68.2576 21.5476C68.8964 20.2685 69.5003 19.1163 70.1109 18.0753C71.5115 17.8333 72.9475 17.898 74.3207 18.2652C76.1192 18.7592 77.7247 19.7931 78.9225 21.2287ZM65.8662 62.458C62.0295 64.7993 59.1253 68.4121 57.6544 72.6736C53.0518 67.281 54.7976 58.7182 54.7976 58.7182C56.3268 56.7934 57.6284 54.6968 58.6761 52.4703C63.0423 49.8354 63.8932 52.7407 63.8932 52.7407C63.7209 53.2417 63.5851 53.7547 63.487 54.2755C62.3962 59.6506 65.8662 62.458 65.8662 62.458Z" fill="#B5C3D1"/>
<path d="M65.8658 62.4581C62.029 64.7994 59.1249 68.4122 57.654 72.6736C57.654 72.6736 56.6336 67.4718 58.5886 60.4541L61.4437 53.0623C62.1495 53.423 62.8318 53.8282 63.4866 54.2755C62.3958 59.6507 65.8658 62.4581 65.8658 62.4581Z" fill="#8E99AA"/>
<path d="M63.3308 55.1675C63.3308 55.1675 62.5139 52.7951 58.114 53.6009C58.3105 51.7442 58.8736 49.9454 59.7704 48.3097C59.7704 48.3097 63.5499 45.8001 66.0053 49.9747C64.7872 51.5151 63.8788 53.2788 63.3308 55.1675Z" fill="#DFEBFC"/>
<path d="M74.7676 19.0561C74.1973 31.7008 66.2307 40.8589 67.4327 33.1474C68.2009 28.2248 70.7173 22.803 73.2315 18.5898C73.31 18.4575 73.4245 18.3505 73.5614 18.2812C73.6983 18.2118 73.852 18.1831 74.0045 18.1984L74.2686 18.2687C74.4229 18.3315 74.5539 18.4411 74.6434 18.5822C74.7328 18.7233 74.7762 18.889 74.7676 19.0561Z" fill="#B5C3D1"/>
</g>
<defs>
<clipPath id="clip0_150_1560">
<rect width="85" height="85" fill="white"/>
</clipPath>
</defs>
</svg>
