<svg width="67" height="85" viewBox="0 0 67 85" fill="none" xmlns="http://www.w3.org/2000/svg">
<g id="Group">
<path id="Vector" d="M58.7694 84.0418L56.5583 84.1151L30.0419 84.9962C26.9332 85.0988 24.1341 83.1332 23.1761 80.1747L0.462616 9.99368C0.217435 9.23674 0.181637 8.42757 0.359015 7.65194C0.536394 6.87632 0.920339 6.16314 1.47015 5.58801L6.0645 0.784832C6.58658 0.238932 7.32483 -0.0468403 8.07773 0.00628416L31.1557 1.63299L47.5858 2.79074C52.8909 3.16444 54.0468 8.33583 54.0468 8.33583C54.0468 8.33583 64.3512 63.8948 66.4761 74.0324C68.4985 83.6663 58.7694 84.0418 58.7694 84.0418Z" fill="#52528C"/>
<path id="Vector_2" d="M56.5583 84.1151L30.0419 84.9962C26.9332 85.0988 24.1341 83.1332 23.1761 80.1747L0.462616 9.99368C0.217435 9.23674 0.181637 8.42757 0.359015 7.65194C0.536394 6.87632 0.920339 6.16314 1.47015 5.58801L6.0645 0.784832C6.58658 0.238932 7.32483 -0.0468403 8.07773 0.00628416L31.1557 1.63299C29.1022 22.5512 29.8239 60.4087 56.5583 84.1151Z" fill="#01356D"/>
<path id="Vector_3" d="M56.5107 77.8537H35.9186C35.9186 77.8537 30.9029 78.1853 29.0088 74.1332C27.1164 70.0829 8.41663 9.50092 8.41663 9.50092C8.41663 9.50092 6.33562 3.65356 12.0474 3.65356L17.9827 3.92102C17.9827 3.92102 18.5579 6.57724 20.4173 7.59576C21.3717 8.11785 26.173 8.45308 30.6318 8.65642C34.8708 8.8506 38.7965 8.92387 38.7965 8.92387C38.7965 8.92387 41.852 8.92387 41.6744 6.17789L46.712 6.42153C46.712 6.42153 49.2693 6.77691 50.4655 7.93832C51.6617 9.10157 52.5575 14.2491 52.5575 14.2491L63.1971 71.8543C63.1971 71.8543 65.0125 77.8537 56.5107 77.8537Z" fill="#F1F8FF"/>
<path id="Vector_4" d="M50.3538 77.8537H35.9186C35.9186 77.8537 30.9029 78.1853 29.0088 74.1332C27.1164 70.0829 8.41663 9.50092 8.41663 9.50092C8.41663 9.50092 6.33562 3.65356 12.0474 3.65356L17.9827 3.92102C17.9827 3.92102 18.5579 6.57724 20.4173 7.59576C21.3717 8.11785 26.173 8.45308 30.6318 8.65642C29.6353 28.23 32.0588 56.8476 50.3538 77.8537Z" fill="#DFEBFC"/>
<path id="Vector_5" d="M42.8083 55.617C50.861 52.9132 54.883 43.2573 51.7915 34.05C48.7001 24.8426 39.6659 19.5704 31.6131 22.2742C23.5603 24.9781 19.5384 34.634 22.6298 43.8413C25.7213 53.0487 34.7555 58.3208 42.8083 55.617Z" fill="#B4FFC6"/>
<path id="Vector_6" d="M34.1719 49.4004C33.9237 49.4004 33.6781 49.35 33.45 49.2522C33.2219 49.1544 33.016 49.0112 32.8449 48.8315L25.6396 41.2598C24.9422 40.5268 24.9709 39.3672 25.7039 38.6698C26.4366 37.9725 27.5962 38.001 28.2938 38.7341L33.7004 44.4157L41.6928 28.4306C42.1451 27.5256 43.2457 27.1589 44.1507 27.6114C45.0556 28.0638 45.4224 29.1642 44.9699 30.0692L35.8105 48.388C35.6583 48.6922 35.4244 48.9481 35.135 49.1269C34.8456 49.3057 34.5121 49.4004 34.1719 49.4004Z" fill="#79E9B3"/>
<path id="Vector_7" d="M56.5823 63.9333H32.4015C32.3044 63.9333 32.2112 63.9719 32.1425 64.0406C32.0738 64.1093 32.0352 64.2025 32.0352 64.2997C32.0352 64.3968 32.0738 64.49 32.1425 64.5587C32.2112 64.6274 32.3044 64.666 32.4015 64.666H56.5823C56.6795 64.666 56.7727 64.6274 56.8414 64.5587C56.9101 64.49 56.9487 64.3968 56.9487 64.2997C56.9487 64.2025 56.9101 64.1093 56.8414 64.0406C56.7727 63.9719 56.6795 63.9333 56.5823 63.9333Z" fill="#52528C"/>
</g>
</svg>
