<svg width="134" height="33" viewBox="0 0 134 33" fill="none" xmlns="http://www.w3.org/2000/svg">
<g id="Frame 633215">
<path id="Vector" d="M133.888 29.524C133.89 30.0431 133.738 30.5511 133.452 30.9836C133.166 31.416 132.757 31.7534 132.279 31.9529C131.801 32.1525 131.274 32.2052 130.767 32.1044C130.259 32.0037 129.792 31.7539 129.426 31.3868C129.059 31.0198 128.81 30.552 128.71 30.0427C128.609 29.5335 128.662 29.0058 128.861 28.5266C129.06 28.0474 129.397 27.6383 129.828 27.3511C130.26 27.0639 130.766 26.9116 131.284 26.9137C131.627 26.911 131.967 26.9767 132.284 27.107C132.601 27.2372 132.889 27.4294 133.131 27.6723C133.374 27.9152 133.566 28.2041 133.696 28.522C133.826 28.8399 133.891 29.1805 133.888 29.524ZM133.403 29.524C133.393 29.1038 133.26 28.6958 133.02 28.3513C132.779 28.0067 132.443 27.741 132.053 27.5873C131.662 27.4337 131.236 27.3991 130.826 27.4877C130.416 27.5764 130.041 27.7844 129.749 28.0858C129.456 28.3871 129.259 28.7682 129.182 29.1814C129.105 29.5946 129.151 30.0214 129.315 30.4082C129.479 30.7951 129.754 31.1248 130.104 31.356C130.454 31.5872 130.865 31.7095 131.284 31.7077C131.568 31.7106 131.85 31.6556 132.112 31.5462C132.375 31.4366 132.612 31.2749 132.81 31.0707C133.008 30.8666 133.163 30.6242 133.265 30.3584C133.367 30.0925 133.414 29.8087 133.403 29.524ZM131.522 28.2139C131.632 28.2013 131.744 28.2122 131.85 28.2458C131.956 28.2795 132.054 28.3351 132.137 28.409C132.22 28.483 132.286 28.5736 132.332 28.6751C132.378 28.7766 132.402 28.8866 132.403 28.998C132.407 29.1702 132.354 29.3388 132.252 29.4772C132.15 29.6157 132.004 29.7159 131.839 29.7623L132.482 30.8342H131.898L131.304 29.8417H130.848V30.8342H130.344V28.2139H131.522ZM130.848 29.4248H131.413C131.68 29.4248 131.878 29.2957 131.878 29.0278C131.878 28.7598 131.7 28.6307 131.413 28.6307H130.848V29.4248Z" fill="#008AD7"/>
<path id="Vector_2" d="M120.124 13.2546C120.102 13.0352 120.128 12.8135 120.2 12.6053C120.273 12.3972 120.391 12.2076 120.545 12.0502C120.699 11.8929 120.886 11.7716 121.092 11.695C121.299 11.6183 121.519 11.5883 121.738 11.6069H123.491C123.711 11.5885 123.931 11.6186 124.139 11.6952C124.345 11.7718 124.532 11.8929 124.687 12.05C124.842 12.2072 124.961 12.3965 125.035 12.6047C125.109 12.8128 125.136 13.0347 125.115 13.2546V13.7509C125.137 13.9716 125.111 14.1946 125.038 14.4039C124.965 14.6133 124.847 14.8039 124.692 14.9622C124.536 15.1205 124.349 15.2426 124.141 15.3197C123.933 15.3968 123.711 15.4271 123.491 15.4085H121.738C121.518 15.4274 121.297 15.3972 121.089 15.32C120.882 15.2428 120.695 15.1205 120.541 14.962C120.386 14.8035 120.269 14.6127 120.197 14.4033C120.125 14.1938 120.1 13.9711 120.124 13.7509V13.2546Z" fill="#00CD00"/>
<path id="Vector_3" d="M53.5241 25.6326C53.5241 28.0842 54.6231 29.0867 56.1975 29.0867C57.6771 28.9133 59.0321 28.1736 59.9801 27.0221V17.3844C59.9762 17.269 59.9952 17.154 60.0372 17.0463C60.0788 16.9386 60.1418 16.8405 60.2219 16.7579C60.3026 16.6753 60.3993 16.61 60.5054 16.5658C60.6119 16.5217 60.7262 16.4997 60.8416 16.501H63.9904C64.1047 16.501 64.2181 16.524 64.3231 16.5688C64.4287 16.6135 64.524 16.6791 64.6031 16.7615C64.6828 16.844 64.7448 16.9416 64.7859 17.0486C64.8269 17.1556 64.846 17.2699 64.8421 17.3844V31.3794C64.8475 31.4949 64.8294 31.6101 64.7888 31.7183C64.7488 31.8265 64.6867 31.9254 64.607 32.0089C64.5274 32.0924 64.4316 32.1588 64.3256 32.2042C64.2196 32.2496 64.1057 32.2729 63.9904 32.2728H60.8909C60.7756 32.2728 60.6608 32.2495 60.5542 32.2043C60.4477 32.1591 60.3514 32.0928 60.2713 32.0094C60.1907 31.926 60.1281 31.8273 60.0866 31.7191C60.0451 31.6109 60.0255 31.4953 60.0294 31.3794V30.4762C58.7091 31.7851 56.9353 32.5319 55.0785 32.5606C51.3355 32.5606 48.6819 30.5259 48.6819 25.6127V17.3844C48.6792 17.2694 48.6996 17.1549 48.7417 17.0479C48.7837 16.9408 48.8468 16.8432 48.9269 16.7609C49.0075 16.6787 49.1033 16.6133 49.2089 16.5686C49.3149 16.524 49.4283 16.501 49.5431 16.501H52.6822C52.798 16.4997 52.9128 16.5217 53.0198 16.5657C53.1268 16.6098 53.2236 16.6749 53.3052 16.7574C53.3863 16.8398 53.4503 16.9378 53.4928 17.0455C53.5358 17.1533 53.5563 17.2686 53.5539 17.3844L53.5241 25.6326Z" fill="#008AD7"/>
<path id="Vector_4" d="M71.6838 25.5329C71.8915 27.8852 72.9216 28.9274 75.2881 28.9274C75.7924 28.9661 76.2991 28.8977 76.775 28.7266C77.251 28.5556 77.6859 28.2858 78.0504 27.9348C78.2473 27.6878 78.4999 27.4913 78.7873 27.3619C79.0751 27.2324 79.3893 27.1736 79.7045 27.1904H81.8134C81.9288 27.189 82.0431 27.2111 82.1491 27.2552C82.2557 27.2994 82.3524 27.3647 82.4326 27.4473C82.5132 27.5299 82.5762 27.628 82.6178 27.7357C82.6598 27.8433 82.6788 27.9584 82.6749 28.0738C82.6749 31.1309 79.5955 32.1929 74.9812 32.1929C69.8519 32.1929 66.772 29.3641 66.772 24.0341C66.772 18.7041 69.8021 15.8257 74.9411 15.8257C80.0807 15.8257 83.1504 18.6247 83.1504 23.7661V24.5899C83.1543 24.7053 83.1347 24.8204 83.0932 24.9281C83.0517 25.0358 82.9886 25.1339 82.908 25.2165C82.8274 25.299 82.7311 25.3644 82.6246 25.4085C82.5181 25.4527 82.4037 25.4747 82.2889 25.4733L71.6838 25.5329ZM71.6838 22.4956H78.219C78.13 20.2921 77.0902 19.111 74.9612 19.111C72.8321 19.111 71.7825 20.2921 71.6638 22.4956H71.6838Z" fill="#008AD7"/>
<path id="Vector_5" d="M92.9838 32.1929C88.2606 32.1929 85.2603 31.1309 85.2603 28.0738C85.2559 27.9584 85.2754 27.8433 85.317 27.7357C85.3585 27.628 85.4215 27.5299 85.5022 27.4473C85.5828 27.3647 85.679 27.2994 85.7856 27.2552C85.8921 27.2111 86.0064 27.189 86.1218 27.1904H88.2307C88.5405 27.1823 88.8484 27.2472 89.1284 27.3799C89.4089 27.5127 89.6542 27.7095 89.8447 27.9547C90.2142 28.308 90.6539 28.579 91.1353 28.75C91.6166 28.9211 92.1282 28.9883 92.6373 28.9473C95.063 28.9473 95.8653 28.3815 95.8653 27.5577C95.8653 25.1061 85.2305 26.4659 85.2305 20.5105C85.2305 17.1656 88.4883 15.8257 92.5777 15.8257C97.3107 15.8257 100.301 16.8877 100.301 19.9547C100.304 20.0698 100.284 20.1842 100.242 20.2913C100.2 20.3983 100.137 20.4959 100.056 20.5781C99.9758 20.6605 99.88 20.7259 99.774 20.7705C99.6685 20.8151 99.5546 20.8381 99.4398 20.8381H97.301C96.9926 20.8447 96.6872 20.779 96.4087 20.6463C96.1302 20.5136 95.8863 20.3176 95.6967 20.0738C95.3264 19.7192 94.8851 19.4474 94.4018 19.2763C93.9191 19.1052 93.405 19.0388 92.8944 19.0812C90.9144 19.0812 90.1023 19.6371 90.1023 20.4609C90.1023 22.9125 100.737 21.4535 100.737 27.5081C100.737 30.8728 97.5287 32.1929 92.9838 32.1929Z" fill="#008AD7"/>
<path id="Vector_6" d="M107.708 22.6751C108.402 22.7319 109.097 22.5714 109.696 22.2159C110.296 21.8604 110.77 21.3272 111.055 20.69L112.382 17.8115C112.552 17.4219 112.827 17.0878 113.178 16.8475C113.528 16.607 113.938 16.47 114.362 16.4517H117.016C117.758 16.4517 117.848 17.0473 117.501 17.8115L115.689 21.7818C115.414 22.4061 115.006 22.962 114.492 23.4099C113.979 23.8576 113.373 24.1863 112.718 24.3723C114.005 24.8254 115.068 25.7564 115.689 26.9729L118.085 30.943C118.541 31.7173 118.343 32.3029 117.59 32.3029H114.936C114.49 32.2826 114.056 32.1467 113.678 31.9084C113.3 31.6701 112.99 31.3374 112.778 30.943L110.995 27.9654C110.653 27.381 110.164 26.8966 109.576 26.5605C108.99 26.2244 108.325 26.0483 107.648 26.0498V31.3103C107.651 31.4262 107.631 31.5415 107.588 31.6492C107.545 31.7569 107.481 31.855 107.4 31.9374C107.318 32.0198 107.221 32.085 107.115 32.129C107.008 32.1731 106.893 32.1951 106.777 32.1937H103.638C103.524 32.1938 103.411 32.1707 103.305 32.126C103.2 32.0813 103.105 32.0157 103.025 31.9332C102.946 31.8508 102.883 31.7532 102.842 31.6461C102.801 31.5391 102.782 31.4249 102.787 31.3103V12.8488C102.781 12.7338 102.799 12.6191 102.839 12.5114C102.88 12.4037 102.942 12.3055 103.022 12.2228C103.102 12.14 103.198 12.0745 103.304 12.0302C103.409 11.986 103.523 11.9639 103.638 11.9654H106.777C106.893 11.964 107.008 11.986 107.115 12.0301C107.221 12.0741 107.318 12.1393 107.4 12.2217C107.481 12.3042 107.545 12.4022 107.588 12.5099C107.631 12.6176 107.651 12.7329 107.648 12.8488L107.708 22.6751Z" fill="#008AD7"/>
<path id="Vector_7" d="M36.1951 22.6751C36.8893 22.7319 37.584 22.5714 38.1834 22.2159C38.7828 21.8604 39.2575 21.3272 39.542 20.69L40.8886 17.7123C41.0606 17.324 41.3369 16.9912 41.6866 16.7511C42.0363 16.511 42.4457 16.373 42.869 16.3525H45.5228C46.2655 16.3525 46.3546 16.948 46.008 17.7123L44.186 21.6825C43.9139 22.3084 43.5061 22.8656 42.9923 23.3137C42.4784 23.7619 41.8714 24.0896 41.2154 24.2731C42.5037 24.7225 43.5683 25.6545 44.186 26.8736L46.5922 30.8438C47.0477 31.618 46.8497 32.2036 46.0971 32.2036H43.483C43.0366 32.1833 42.6031 32.0474 42.2247 31.8091C41.8464 31.5708 41.5362 31.2382 41.3243 30.8438L39.542 27.8661C39.2003 27.281 38.7113 26.7961 38.124 26.4599C37.5366 26.1237 36.8714 25.9481 36.1951 25.9505V31.3103C36.1991 31.4257 36.1797 31.5408 36.1381 31.6485C36.0965 31.7561 36.0335 31.8543 35.953 31.9368C35.8724 32.0194 35.776 32.0848 35.6695 32.1289C35.5631 32.1731 35.4488 32.1951 35.3336 32.1937H32.1749C32.0592 32.195 31.9445 32.1731 31.8374 32.129C31.7305 32.085 31.6334 32.0198 31.5521 31.9373C31.4708 31.8549 31.4069 31.7569 31.3641 31.6492C31.3214 31.5414 31.3008 31.4262 31.3035 31.3103V12.8488C31.3008 12.7329 31.3214 12.6176 31.3641 12.5099C31.4069 12.4021 31.4708 12.3042 31.5521 12.2217C31.6334 12.1393 31.7305 12.0741 31.8374 12.0301C31.9445 11.986 32.0592 11.964 32.1749 11.9654H35.3138C35.429 11.964 35.5433 11.986 35.6498 12.0302C35.7562 12.0743 35.8526 12.1396 35.9332 12.2222C36.0137 12.3049 36.0767 12.4029 36.1183 12.5106C36.1599 12.6183 36.1793 12.7334 36.1752 12.8488L36.1951 22.6751Z" fill="#008AD7"/>
<path id="Vector_8" d="M121.046 32.1935C120.931 32.1935 120.817 32.1706 120.711 32.1259C120.606 32.0813 120.51 32.0159 120.429 31.9336C120.349 31.8513 120.286 31.7538 120.244 31.6467C120.202 31.5396 120.181 31.4252 120.184 31.3101V17.6724C120.181 17.5574 120.202 17.4429 120.244 17.3359C120.286 17.2288 120.349 17.1313 120.429 17.0489C120.51 16.9666 120.606 16.9013 120.711 16.8566C120.817 16.812 120.931 16.789 121.046 16.7891H124.195C124.309 16.789 124.423 16.812 124.529 16.8566C124.634 16.9013 124.731 16.9666 124.811 17.0489C124.891 17.1313 124.954 17.2288 124.996 17.3359C125.038 17.4429 125.059 17.5574 125.056 17.6724V31.3101C125.059 31.4252 125.038 31.5396 124.996 31.6467C124.954 31.7538 124.891 31.8513 124.811 31.9336C124.731 32.0159 124.634 32.0813 124.529 32.1259C124.423 32.1706 124.309 32.1935 124.195 32.1935H121.046Z" fill="#008AD7"/>
<path id="Vector_9" d="M19.9355 19.4886C19.9355 19.9154 19.1037 27.3397 18.7175 31.032C18.6635 31.3804 18.4785 31.6949 18.2004 31.9109C17.9223 32.1269 17.5724 32.2279 17.2223 32.1933H4.65658C3.33961 32.1933 2.87421 31.6176 2.74548 30.9129C2.61675 30.2082 1.92361 23.2206 1.57704 20.7889L1.47802 19.5184C1.45896 19.2356 1.55245 18.9566 1.73802 18.7427C1.92359 18.5288 2.18614 18.3973 2.46822 18.377H18.8462C18.9906 18.3782 19.1333 18.408 19.2661 18.4646C19.3989 18.5212 19.5194 18.6034 19.6205 18.7066C19.7217 18.8098 19.8015 18.9321 19.8556 19.0662C19.9096 19.2004 19.9367 19.3439 19.9355 19.4886Z" fill="#008AD7"/>
<path id="Vector_10" d="M11.5489 11.7675C11.6112 11.095 11.4511 10.4206 11.0932 9.84844C10.7352 9.27624 10.1995 8.83793 9.5685 8.60118L6.59788 7.17189C6.19011 6.98435 5.84307 6.68584 5.59626 6.31036C5.3494 5.93484 5.21272 5.4974 5.20168 5.04784V2.26869C5.20168 1.48457 5.80569 1.38532 6.58797 1.75257L10.5488 3.6682C11.1929 3.96706 11.763 4.40503 12.2184 4.95071C12.6737 5.49639 13.003 6.13626 13.1827 6.82451C13.6383 5.4794 14.5869 4.35817 15.8365 3.68805L19.8963 1.19673C20.6687 0.710381 21.2826 0.938669 21.2826 1.71286V4.49202C21.2647 4.95677 21.1278 5.40909 20.885 5.80544C20.6422 6.20178 20.3017 6.52879 19.8963 6.75503L16.8366 8.62107C16.2465 8.91069 15.7485 9.35946 15.3987 9.917C15.0489 10.4745 14.861 11.1188 14.8562 11.7774H20.3122C20.4318 11.776 20.5504 11.7988 20.6609 11.8443C20.7715 11.8899 20.8718 11.9572 20.9559 12.0424C21.04 12.1276 21.1061 12.2289 21.1503 12.3402C21.1945 12.4516 21.2159 12.5707 21.2133 12.6905V15.9858C21.2205 16.0998 21.2035 16.214 21.1633 16.3209C21.1231 16.4278 21.0606 16.5248 20.98 16.6056C20.8994 16.6863 20.8026 16.7489 20.696 16.7893C20.5894 16.8296 20.4755 16.8467 20.3617 16.8394H1.37948C1.26038 16.8408 1.14222 16.818 1.03215 16.7723C0.922092 16.7267 0.822399 16.6592 0.739105 16.5738C0.65581 16.4885 0.59064 16.3871 0.547531 16.2758C0.504423 16.1645 0.484272 16.0456 0.488296 15.9263V12.6409C0.485589 12.5215 0.507047 12.4029 0.551372 12.2921C0.595697 12.1812 0.661972 12.0806 0.74619 11.9962C0.830408 11.9117 0.930825 11.8453 1.04138 11.8009C1.15192 11.7565 1.27031 11.735 1.38938 11.7377L11.5489 11.7675Z" fill="#00CD00"/>
</g>
</svg>
