<svg width="127" height="16" viewBox="0 0 127 16" fill="none" xmlns="http://www.w3.org/2000/svg">
<g id="Frame 633213">
<path id="Vector" fill-rule="evenodd" clip-rule="evenodd" d="M19.4502 10.0254C19.4502 13.562 21.4686 15.9963 24.542 15.9963C25.8264 16.0422 27.065 15.4451 27.8448 14.3428H27.8907C27.8907 14.3887 27.8907 14.4347 27.8907 14.4806V14.6184C27.8907 15.3533 28.3035 15.7207 29.0834 15.7207H30.2302C30.8265 15.8125 31.3769 15.3992 31.4228 14.8021C31.4228 14.7102 31.4228 14.6184 31.4228 14.5265V1.20695C31.5146 0.609863 31.1017 0.0587085 30.5054 0.0127789C30.4136 0.0127789 30.3219 0.0127789 30.2302 0.0127789H28.854C28.2576 -0.0790801 27.7072 0.334287 27.6613 0.931372C27.6613 1.02323 27.6613 1.11509 27.6613 1.20695V4.74353C27.6613 5.0191 27.6613 5.24876 27.6613 5.24876H27.6155C27.6155 5.24876 26.9274 4.14646 24.6338 4.14646C21.6062 4.1005 19.4502 6.4429 19.4502 10.0254ZM23.3035 10.0254C23.3035 8.28011 24.3585 7.31559 25.5053 7.31559C27.0191 7.31559 27.7072 8.64755 27.7072 10.0254C27.7072 12.0004 26.6063 12.8271 25.5053 12.8271C24.175 12.8271 23.3035 11.7248 23.3035 10.0254ZM34.955 2.95227H36.2394C36.8358 3.04413 37.3862 2.63077 37.4321 2.03368C37.4321 1.94182 37.4321 1.84996 37.4321 1.7581V1.20695C37.5238 0.609863 37.111 0.0587085 36.5146 0.0127789C36.4229 0.0127789 36.3311 0.0127789 36.2394 0.0127789H34.955C34.3586 -0.0790801 33.8082 0.334287 33.7623 0.931372C33.7623 1.02323 33.7623 1.11509 33.7623 1.20695V1.7581C33.6706 2.35519 34.0834 2.90634 34.6798 2.95227C34.7715 2.95227 34.8632 2.95227 34.955 2.95227ZM33.7164 14.5265C33.6247 15.1236 34.0375 15.6748 34.6339 15.7207C34.7256 15.7207 34.8174 15.7207 34.9091 15.7207H36.2853C36.8816 15.8125 37.4321 15.3992 37.4779 14.8021C37.4779 14.7102 37.4779 14.6184 37.4779 14.5265V5.57026C37.5697 4.97319 37.1568 4.42204 36.5605 4.37608C36.4688 4.37608 36.377 4.37608 36.2853 4.37608H34.9091C34.3128 4.28425 33.7623 4.69761 33.7164 5.29468C33.7164 5.38655 33.7164 5.47839 33.7164 5.57026V14.5265ZM39.7715 14.5265C39.6796 15.1236 40.0927 15.6748 40.6891 15.7207C40.7806 15.7207 40.8724 15.7207 40.9643 15.7207H42.3405C42.9369 15.8125 43.4873 15.3992 43.5333 14.8021C43.5333 14.7102 43.5333 14.6184 43.5333 14.5265V10.6225C43.5333 9.01496 44.313 7.59116 46.0103 7.59116C46.836 7.59116 47.2487 8.05044 47.2487 9.10683V14.5724C47.1568 15.1696 47.5699 15.7207 48.1663 15.7666C48.2577 15.7666 48.3496 15.7666 48.4415 15.7666H49.8176C50.414 15.8585 50.9645 15.4451 51.0101 14.848C51.0101 14.7562 51.0101 14.6643 51.0101 14.5724V8.37198C51.0101 5.15689 49.2212 4.1005 46.9275 4.1005C45.4599 4.05459 44.0837 4.78944 43.3036 6.07549H43.258C43.258 6.07549 43.258 5.89175 43.258 5.79992V5.61617C43.3495 5.0191 42.9369 4.46795 42.3405 4.42204C42.2486 4.42204 42.1567 4.42204 42.0652 4.42204H40.8265C40.2301 4.33016 39.6796 4.74353 39.6341 5.3406C39.6341 5.43247 39.6341 5.52434 39.6341 5.61617L39.7715 14.5265ZM52.57 10.0254C52.57 13.0568 54.7718 15.9963 58.8084 15.9963C60.1846 15.9963 61.5148 15.6288 62.7076 14.9858C63.3499 14.6184 63.4873 14.0213 63.1206 13.3324L62.7995 12.7812C62.4324 12.0923 61.8819 12.0004 61.1481 12.3219C60.5057 12.6434 59.8178 12.8271 59.0836 12.8731C57.7994 12.9649 56.6984 12.0923 56.4232 10.8522H62.3864C63.0747 10.8522 63.6252 10.301 63.6711 9.61207C63.6711 6.58069 61.79 4.19238 58.4417 4.19238C54.8177 4.1005 52.57 6.71852 52.57 10.0254ZM56.5147 8.6016C56.6984 7.68304 57.2489 6.90222 58.3498 6.90222C59.2215 6.90222 59.9093 7.63708 59.9093 8.46381C59.9093 8.50976 59.9093 8.55568 59.9093 8.6016H56.5147ZM65.2765 14.5265C65.1847 15.1236 65.5977 15.6748 66.1937 15.7207C66.2856 15.7207 66.3775 15.7207 66.469 15.7207H67.8451C68.4415 15.8125 68.992 15.3992 69.0379 14.8021C69.0379 14.7102 69.0379 14.6184 69.0379 14.5265V11.3114C69.0379 9.47428 69.9095 7.91266 71.7443 7.91266C72.3407 8.00453 72.8912 7.59116 72.9371 6.99409C72.9371 6.90222 72.9371 6.81035 72.9371 6.71852V5.47839C72.9371 4.69761 72.6619 4.28425 71.8821 4.28425C70.46 4.28425 69.2213 5.84583 68.8545 7.04001H68.8086C68.8546 6.81035 68.8545 6.58069 68.8545 6.35107V5.66213C68.946 5.06502 68.5334 4.51387 67.937 4.46795C67.8451 4.46795 67.7536 4.46795 67.6618 4.46795H66.4234C65.827 4.37608 65.2765 4.78944 65.2306 5.38655C65.2306 5.47839 65.2306 5.57026 65.2306 5.66213L65.2765 14.5265ZM75.4142 2.95227H76.6985C77.2949 3.04413 77.8453 2.63077 77.8913 2.03368C77.8913 1.94182 77.8913 1.84996 77.8913 1.7581V1.20695C77.9831 0.609863 77.5701 0.0587085 76.9737 0.0127789C76.8822 0.0127789 76.7903 0.0127789 76.6985 0.0127789H75.4142C74.8178 -0.0790801 74.2673 0.334287 74.2214 0.931372C74.2214 1.02323 74.2214 1.11509 74.2214 1.20695V1.7581C74.1299 2.35519 74.5425 2.90634 75.1389 2.95227C75.2308 2.95227 75.3223 2.95227 75.4142 2.95227ZM74.1758 14.5265C74.084 15.1236 74.4966 15.6748 75.093 15.7207C75.1849 15.7207 75.2767 15.7207 75.3682 15.7207H76.7444C77.3408 15.8125 77.8913 15.3533 77.9372 14.8021C77.9372 14.7102 77.9372 14.6184 77.9372 14.5265V5.57026C78.0291 4.97319 77.616 4.42204 77.0196 4.37608C76.9281 4.37608 76.8363 4.37608 76.7444 4.37608H75.3682C74.7718 4.28425 74.2214 4.69761 74.1758 5.29468C74.1758 5.38655 74.1758 5.47839 74.1758 5.57026V14.5265ZM79.4508 12.5515C79.4508 14.5265 80.9647 15.9963 83.1666 15.9963C84.4968 15.9963 85.7815 15.3073 86.5153 14.205H86.5612C86.5612 14.2969 86.5612 14.3428 86.5612 14.4347V14.5265C86.4694 15.1236 86.882 15.6748 87.4784 15.7666C87.5703 15.7666 87.6622 15.7666 87.7996 15.7666H88.8546C89.451 15.8585 90.0014 15.3992 90.0474 14.8021C90.0474 14.7102 90.0474 14.6184 90.0474 14.5265V8.73939C90.0474 5.84583 88.1208 4.1005 85.0013 4.1005C83.6711 4.1005 82.3868 4.42204 81.194 4.97319C80.6436 5.20281 80.3683 5.84583 80.5976 6.4429C80.6436 6.48886 80.6436 6.58069 80.6895 6.62665L80.9647 7.1778C81.3318 7.86674 81.8823 8.00453 82.6161 7.72895C83.2585 7.40746 83.9464 7.26967 84.6802 7.22372C85.5062 7.22372 86.286 7.54525 86.286 8.46381V8.64755H85.9648C83.0747 8.64755 79.4508 9.47428 79.4508 12.5515ZM83.2125 12.1841C83.2125 11.1277 84.7261 10.8522 85.873 10.8522H86.2401V11.1737C86.1941 12.23 85.3684 13.1027 84.3135 13.1946C83.763 13.2405 83.304 12.8731 83.2585 12.3219C83.2125 12.276 83.2125 12.23 83.2125 12.1841Z" fill="#76B82B"/>
<path id="Vector_2" fill-rule="evenodd" clip-rule="evenodd" d="M91.9273 14.5262C91.8358 15.1233 92.2484 15.6745 92.8448 15.7204C92.9367 15.7204 93.0282 15.7204 93.12 15.7204H94.3129C94.9093 15.8123 95.4597 15.3989 95.5053 14.8018C95.5053 14.7099 95.5053 14.6181 95.5053 14.5262V13.332C95.5971 12.735 95.1845 12.1838 94.5881 12.1379C94.4962 12.1379 94.4043 12.1379 94.3129 12.1379H93.12C92.5237 12.046 91.9732 12.4594 91.9273 13.0564C91.9273 13.1483 91.9273 13.2402 91.9273 13.332V14.5262ZM97.6156 14.5262C97.5238 15.1233 97.9368 15.6745 98.5332 15.7204C98.6247 15.7204 98.7166 15.7204 98.8084 15.7204H100.185C100.781 15.8123 101.331 15.3989 101.377 14.8018C101.377 14.7099 101.377 14.6181 101.377 14.5262V10.9437C101.377 9.38208 101.836 7.59084 103.579 7.59084C104.313 7.59084 104.45 8.18794 104.45 9.01467V14.5262C104.359 15.1233 104.772 15.6745 105.368 15.7204C105.46 15.7204 105.551 15.7204 105.643 15.7204H107.019C107.616 15.8123 108.166 15.3989 108.212 14.8018C108.212 14.7099 108.212 14.6181 108.212 14.5262V10.9437C108.212 9.24429 108.762 7.59084 110.414 7.59084C111.148 7.59084 111.285 8.18794 111.285 9.01467V14.5262C111.194 15.1233 111.606 15.6745 112.203 15.7204C112.295 15.7204 112.386 15.7204 112.478 15.7204H113.854C114.451 15.8123 115.001 15.3989 115.047 14.8018C115.047 14.7099 115.047 14.6181 115.047 14.5262V8.37165C115.047 5.24844 113.442 4.10018 111.377 4.10018C109.909 4.10018 108.579 4.83507 107.753 6.02925H107.799C107.249 4.78916 105.964 4.05426 104.634 4.10018C103.258 4.14613 101.973 4.88099 101.286 6.07517H101.24C101.24 6.07517 101.24 5.89146 101.24 5.79959V5.61589C101.331 5.01878 100.918 4.46762 100.322 4.42171C100.23 4.42171 100.139 4.42171 100.047 4.42171H98.8084C98.212 4.32984 97.6616 4.7432 97.6156 5.34031C97.6156 5.43214 97.6156 5.52401 97.6156 5.61589V14.5262ZM116.882 14.2966C116.331 15.1233 116.698 15.7663 117.708 15.7663H119.176C119.772 15.8122 120.368 15.4448 120.598 14.8936L121.469 13.1942C121.561 13.0105 121.744 12.6431 121.744 12.6431H121.79C121.79 12.6431 121.928 13.0105 122.065 13.1942L122.983 14.8936C123.258 15.4448 123.809 15.7663 124.405 15.7663H125.873C126.882 15.7663 127.203 15.1233 126.699 14.2966L124.038 10.117L126.744 5.84551C127.295 5.01878 126.928 4.37579 125.919 4.37579H124.359C123.763 4.32984 123.166 4.69728 122.937 5.24844L122.157 6.9019C122.019 7.17747 121.79 7.63679 121.79 7.63679H121.744C121.744 7.63679 121.561 7.17747 121.377 6.9019L120.598 5.24844C120.368 4.69728 119.772 4.32984 119.176 4.37579H117.616C116.607 4.37579 116.285 5.01878 116.79 5.84551L119.542 10.117L116.882 14.2966Z" fill="#F27028"/>
<path id="Vector_3" fill-rule="evenodd" clip-rule="evenodd" d="M3.48628 0.288605C5.41291 0.288605 6.97254 1.85021 6.97254 3.77926C6.97254 5.70829 5.41291 7.26991 3.48628 7.26991C1.55965 7.26991 0 5.66237 0 3.73332C0 1.85021 1.55965 0.288605 3.48628 0.288605ZM12.1102 8.96929C14.0369 8.96929 15.5965 10.5309 15.5965 12.4599C15.5965 14.389 14.0369 15.9506 12.1102 15.9506C10.1836 15.9506 8.62397 14.389 8.62397 12.4599C8.66983 10.5309 10.2295 8.96929 12.1102 8.96929ZM3.48628 8.96929C5.41291 8.96929 6.97254 10.5309 6.97254 12.4599C6.97254 14.389 5.41291 15.9506 3.48628 15.9506C1.55965 15.9506 0 14.3431 0 12.414C0 10.5309 1.55965 8.96929 3.48628 8.96929ZM12.1102 0.242676C14.0369 0.242676 15.5965 1.80428 15.5965 3.73332C15.5965 5.66237 14.0369 7.22396 12.1102 7.22396C10.1836 7.22396 8.62397 5.66237 8.62397 3.73332C8.66983 1.80428 10.2295 0.242676 12.1102 0.242676Z" fill="#F27028"/>
</g>
</svg>
