<svg width="128" height="31" viewBox="0 0 128 31" fill="none" xmlns="http://www.w3.org/2000/svg">
<g id="Frame 633215">
<path id="Vector" d="M127.508 27.3137C127.51 27.8081 127.365 28.2919 127.093 28.7037C126.82 29.1155 126.431 29.4368 125.976 29.6269C125.521 29.817 125.019 29.8672 124.536 29.7712C124.052 29.6752 123.607 29.4373 123.259 29.0877C122.91 28.7382 122.672 28.2927 122.577 27.8077C122.481 27.3228 122.531 26.8202 122.721 26.3638C122.91 25.9074 123.231 25.5178 123.642 25.2443C124.052 24.9708 124.535 24.8258 125.028 24.8277C125.355 24.8252 125.678 24.8877 125.98 25.0118C126.282 25.1358 126.557 25.3189 126.787 25.5502C127.018 25.7816 127.201 26.0566 127.325 26.3594C127.449 26.6622 127.511 26.9866 127.508 27.3137ZM127.046 27.3137C127.037 26.9135 126.91 26.525 126.681 26.1969C126.452 25.8687 126.132 25.6156 125.76 25.4693C125.389 25.323 124.982 25.29 124.592 25.3744C124.201 25.4589 123.844 25.657 123.566 25.944C123.287 26.2309 123.1 26.5939 123.026 26.9874C122.953 27.3809 122.997 27.7874 123.153 28.1558C123.309 28.5242 123.571 28.8383 123.904 29.0584C124.238 29.2786 124.629 29.3951 125.028 29.3933C125.299 29.3961 125.567 29.3437 125.817 29.2395C126.067 29.1352 126.293 28.9812 126.482 28.7867C126.67 28.5923 126.818 28.3615 126.915 28.1083C127.012 27.8551 127.056 27.5848 127.046 27.3137ZM125.255 26.066C125.36 26.054 125.466 26.0644 125.567 26.0964C125.668 26.1285 125.761 26.1814 125.84 26.2519C125.92 26.3223 125.983 26.4086 126.027 26.5052C126.07 26.6019 126.093 26.7067 126.094 26.8128C126.098 26.9767 126.047 27.1373 125.95 27.2691C125.852 27.401 125.714 27.4965 125.557 27.5406L126.169 28.5615H125.613L125.047 27.6162H124.613V28.5615H124.133V26.066H125.255ZM124.613 27.2192H125.151C125.405 27.2192 125.594 27.0963 125.594 26.8411C125.594 26.5859 125.424 26.463 125.151 26.463H124.613V27.2192Z" fill="#008AD7"/>
<path id="Vector_2" d="M114.401 11.8199C114.379 11.6109 114.404 11.3998 114.473 11.2016C114.542 11.0033 114.654 10.8228 114.801 10.6729C114.948 10.5231 115.126 10.4075 115.322 10.3345C115.519 10.2615 115.729 10.233 115.938 10.2507H117.607C117.816 10.2332 118.026 10.2619 118.224 10.3348C118.421 10.4077 118.599 10.5231 118.746 10.6727C118.894 10.8224 119.007 11.0027 119.077 11.201C119.147 11.3992 119.174 11.6105 119.154 11.8199V12.2925C119.175 12.5027 119.15 12.7151 119.08 12.9145C119.011 13.1138 118.898 13.2954 118.751 13.4461C118.603 13.5969 118.424 13.7131 118.226 13.7866C118.028 13.86 117.817 13.8889 117.607 13.8711H115.938C115.728 13.8891 115.517 13.8604 115.32 13.7869C115.123 13.7134 114.944 13.5969 114.797 13.446C114.65 13.295 114.539 13.1133 114.47 12.9138C114.401 12.7144 114.377 12.5022 114.401 12.2925V11.8199Z" fill="#00CD00"/>
<path id="Vector_3" d="M50.974 23.6072C50.974 25.9419 52.0206 26.8967 53.52 26.8967C54.9291 26.7316 56.2196 26.0271 57.1224 24.9305V15.752C57.1187 15.6421 57.1368 15.5325 57.1768 15.43C57.2164 15.3274 57.2764 15.234 57.3528 15.1553C57.4295 15.0767 57.5217 15.0144 57.6227 14.9724C57.7241 14.9303 57.833 14.9094 57.9428 14.9107H60.9416C61.0505 14.9107 61.1585 14.9326 61.2585 14.9752C61.3591 15.0178 61.4498 15.0802 61.5252 15.1587C61.601 15.2373 61.6602 15.3303 61.6992 15.4322C61.7383 15.5341 61.7565 15.6429 61.7528 15.752V29.0802C61.7579 29.1901 61.7407 29.2999 61.702 29.4029C61.6639 29.506 61.6048 29.6001 61.5289 29.6796C61.4531 29.7592 61.3619 29.8225 61.2609 29.8657C61.1599 29.9089 61.0515 29.9311 60.9416 29.931H57.9898C57.88 29.931 57.7707 29.9088 57.6692 29.8658C57.5678 29.8227 57.4761 29.7595 57.3998 29.6801C57.323 29.6008 57.2634 29.5067 57.2239 29.4036C57.1843 29.3006 57.1657 29.1906 57.1694 29.0802V28.22C55.912 29.4665 54.2227 30.1778 52.4544 30.2051C48.8897 30.2051 46.3625 28.2673 46.3625 23.5882V15.752C46.36 15.6424 46.3794 15.5334 46.4195 15.4315C46.4595 15.3295 46.5196 15.2366 46.5959 15.1582C46.6727 15.0799 46.7639 15.0176 46.8644 14.9751C46.9654 14.9326 47.0734 14.9107 47.1827 14.9107H50.1722C50.2825 14.9094 50.3919 14.9304 50.4938 14.9723C50.5957 15.0142 50.6878 15.0763 50.7655 15.1548C50.8428 15.2333 50.9038 15.3267 50.9442 15.4293C50.9852 15.5319 51.0047 15.6416 51.0024 15.752L50.974 23.6072Z" fill="#008AD7"/>
<path id="Vector_4" d="M68.2682 23.5132C68.4659 25.7535 69.4469 26.746 71.7007 26.746C72.1809 26.7829 72.6635 26.7177 73.1168 26.5548C73.57 26.3919 73.9842 26.135 74.3314 25.8008C74.5189 25.5655 74.7595 25.3783 75.0331 25.2551C75.3072 25.1317 75.6065 25.0758 75.9066 25.0918H77.9151C78.0249 25.0905 78.1338 25.1115 78.2348 25.1535C78.3363 25.1955 78.4284 25.2578 78.5047 25.3364C78.5815 25.4151 78.6416 25.5085 78.6811 25.6111C78.7211 25.7136 78.7393 25.8232 78.7356 25.9331C78.7356 28.8445 75.8028 29.8559 71.4084 29.8559C66.5235 29.8559 63.5903 27.1619 63.5903 22.0859C63.5903 17.0098 66.476 14.2686 71.3703 14.2686C76.2649 14.2686 79.1884 16.9342 79.1884 21.8307V22.6152C79.1921 22.7251 79.1735 22.8347 79.1339 22.9372C79.0944 23.0398 79.0343 23.1332 78.9575 23.2119C78.8808 23.2905 78.7891 23.3528 78.6876 23.3948C78.5862 23.4369 78.4773 23.4578 78.3679 23.4565L68.2682 23.5132ZM68.2682 20.6207H74.4919C74.4072 18.5222 73.4169 17.3974 71.3893 17.3974C69.3618 17.3974 68.3622 18.5222 68.2491 20.6207H68.2682Z" fill="#008AD7"/>
<path id="Vector_5" d="M88.5533 29.8559C84.0551 29.8559 81.1978 28.8445 81.1978 25.9331C81.1936 25.8232 81.2122 25.7136 81.2518 25.6111C81.2914 25.5085 81.3514 25.4151 81.4282 25.3364C81.505 25.2578 81.5966 25.1955 81.6981 25.1535C81.7995 25.1115 81.9084 25.0905 82.0183 25.0918H84.0268C84.3218 25.084 84.615 25.1458 84.8816 25.2723C85.1487 25.3987 85.3824 25.5862 85.5638 25.8196C85.9157 26.1561 86.3345 26.4142 86.7929 26.5771C87.2513 26.74 87.7385 26.804 88.2234 26.7649C90.5335 26.7649 91.2976 26.2261 91.2976 25.4415C91.2976 23.1068 81.1694 24.4018 81.1694 18.7302C81.1694 15.5446 84.272 14.2686 88.1666 14.2686C92.6741 14.2686 95.5221 15.28 95.5221 18.2008C95.5249 18.3104 95.5054 18.4194 95.4654 18.5214C95.4254 18.6233 95.3653 18.7162 95.2885 18.7946C95.2122 18.873 95.121 18.9353 95.02 18.9777C94.9195 19.0203 94.8111 19.0422 94.7017 19.0421H92.6648C92.3712 19.0484 92.0803 18.9858 91.8151 18.8595C91.5498 18.7331 91.3176 18.5464 91.137 18.3143C90.7843 17.9766 90.3641 17.7177 89.9038 17.5548C89.444 17.3918 88.9545 17.3285 88.4682 17.369C86.5825 17.369 85.8091 17.8983 85.8091 18.6829C85.8091 21.0177 95.9372 19.6282 95.9372 25.3943C95.9372 28.5987 92.8817 29.8559 88.5533 29.8559Z" fill="#008AD7"/>
<path id="Vector_6" d="M102.576 20.7908C103.237 20.8448 103.898 20.6921 104.469 20.3535C105.04 20.0149 105.492 19.5072 105.763 18.9002L107.027 16.159C107.189 15.7878 107.451 15.4697 107.785 15.2408C108.118 15.0119 108.509 14.8813 108.913 14.864H111.44C112.147 14.864 112.233 15.4311 111.902 16.159L110.177 19.94C109.915 20.5346 109.526 21.064 109.037 21.4905C108.548 21.917 107.971 22.23 107.348 22.4072C108.573 22.8386 109.585 23.7253 110.177 24.8838L112.459 28.6648C112.892 29.4021 112.704 29.9599 111.987 29.9599H109.46C109.035 29.9405 108.622 29.8111 108.262 29.5841C107.901 29.3572 107.606 29.0404 107.404 28.6648L105.707 25.829C105.381 25.2724 104.915 24.8111 104.355 24.4911C103.797 24.171 103.163 24.0033 102.519 24.0047V29.0146C102.522 29.125 102.502 29.2347 102.461 29.3373C102.421 29.4399 102.36 29.5333 102.282 29.6118C102.205 29.6903 102.112 29.7524 102.011 29.7943C101.909 29.8362 101.8 29.8572 101.689 29.8559H98.6999C98.591 29.8559 98.4835 29.834 98.3829 29.7914C98.2829 29.7488 98.1921 29.6863 98.1163 29.6078C98.0404 29.5293 97.9813 29.4363 97.9422 29.3344C97.9032 29.2325 97.885 29.1237 97.8892 29.0146V11.4327C97.8836 11.3232 97.9013 11.2139 97.9394 11.1113C97.9781 11.0088 98.0372 10.9153 98.113 10.8365C98.1893 10.7577 98.2806 10.6953 98.3815 10.6531C98.4821 10.611 98.5905 10.59 98.6999 10.5914H101.689C101.8 10.5901 101.909 10.611 102.011 10.653C102.112 10.6949 102.205 10.757 102.282 10.8355C102.36 10.914 102.421 11.0074 102.461 11.1099C102.502 11.2125 102.522 11.3223 102.519 11.4327L102.576 20.7908Z" fill="#008AD7"/>
<path id="Vector_7" d="M34.4708 20.7908C35.1319 20.8448 35.7935 20.6921 36.3644 20.3535C36.9352 20.0149 37.3873 19.5072 37.6582 18.9002L38.9407 16.0645C39.1045 15.6946 39.3676 15.3777 39.7006 15.149C40.0337 14.9204 40.4236 14.7889 40.8268 14.7694H43.3541C44.0614 14.7694 44.1462 15.3366 43.8162 16.0645L42.081 19.8455C41.8218 20.4416 41.4335 20.9723 40.9441 21.399C40.4548 21.8258 39.8767 22.1379 39.2519 22.3126C40.4788 22.7407 41.4927 23.6283 42.081 24.7892L44.3725 28.5703C44.8064 29.3076 44.6177 29.8653 43.901 29.8653H41.4114C40.9863 29.846 40.5735 29.7166 40.2131 29.4896C39.8529 29.2626 39.5574 28.9459 39.3557 28.5703L37.6582 25.7345C37.3328 25.1772 36.8671 24.7154 36.3078 24.3952C35.7484 24.0751 35.1149 23.9078 34.4708 23.9101V29.0146C34.4746 29.1245 34.4561 29.234 34.4165 29.3366C34.3769 29.4392 34.3169 29.5326 34.2402 29.6113C34.1635 29.6899 34.0717 29.7521 33.9703 29.7941C33.8689 29.8362 33.76 29.8572 33.6504 29.8558H30.6421C30.532 29.8571 30.4227 29.8362 30.3208 29.7943C30.2189 29.7523 30.1265 29.6903 30.0491 29.6117C29.9716 29.5332 29.9107 29.4399 29.87 29.3373C29.8294 29.2347 29.8097 29.1249 29.8122 29.0146V11.4327C29.8097 11.3223 29.8294 11.2125 29.87 11.1099C29.9107 11.0073 29.9716 10.914 30.0491 10.8355C30.1265 10.757 30.2189 10.6949 30.3208 10.653C30.4227 10.611 30.532 10.5901 30.6421 10.5914H33.6315C33.7412 10.59 33.85 10.611 33.9514 10.6531C34.0528 10.6951 34.1447 10.7573 34.2214 10.836C34.298 10.9147 34.358 11.0081 34.3977 11.1106C34.4373 11.2132 34.4558 11.3227 34.4519 11.4327L34.4708 20.7908Z" fill="#008AD7"/>
<path id="Vector_8" d="M115.279 29.856C115.169 29.8561 115.061 29.8342 114.96 29.7917C114.859 29.7492 114.768 29.6869 114.691 29.6085C114.615 29.5301 114.555 29.4372 114.515 29.3353C114.475 29.2333 114.455 29.1243 114.458 29.0147V16.0268C114.455 15.9172 114.475 15.8083 114.515 15.7063C114.555 15.6043 114.615 15.5114 114.691 15.433C114.768 15.3547 114.859 15.2924 114.96 15.2499C115.061 15.2074 115.169 15.1855 115.279 15.1855H118.278C118.387 15.1855 118.495 15.2074 118.596 15.2499C118.696 15.2924 118.788 15.3547 118.864 15.433C118.941 15.5114 119.001 15.6043 119.041 15.7063C119.081 15.8083 119.1 15.9172 119.098 16.0268V29.0147C119.1 29.1243 119.081 29.2333 119.041 29.3353C119.001 29.4372 118.941 29.5301 118.864 29.6085C118.788 29.6869 118.696 29.7492 118.596 29.7917C118.495 29.8342 118.387 29.8561 118.278 29.856H115.279Z" fill="#008AD7"/>
<path id="Vector_9" d="M18.9851 17.7564C18.9851 18.1629 18.193 25.2335 17.8252 28.7499C17.7738 29.0817 17.5975 29.3812 17.3328 29.5869C17.0679 29.7925 16.7346 29.8888 16.4012 29.8558H4.43421C3.17999 29.8558 2.73677 29.3075 2.61417 28.6364C2.49158 27.9653 1.83146 21.3106 1.5014 18.9947L1.4071 17.7848C1.38895 17.5154 1.47798 17.2498 1.65471 17.0461C1.83144 16.8424 2.08149 16.7171 2.35013 16.6978H17.9478C18.0852 16.699 18.2211 16.7274 18.3476 16.7812C18.4741 16.8351 18.5889 16.9134 18.6852 17.0117C18.7815 17.11 18.8576 17.2264 18.909 17.3542C18.9605 17.4819 18.9863 17.6187 18.9851 17.7564Z" fill="#008AD7"/>
<path id="Vector_10" d="M10.9979 10.403C11.0573 9.76256 10.9048 9.12036 10.5639 8.57542C10.2231 8.03048 9.71284 7.61305 9.11191 7.38758L6.28283 6.0264C5.89449 5.84779 5.56399 5.5635 5.32893 5.20592C5.09383 4.84829 4.96367 4.43169 4.95315 4.00355V1.35682C4.95315 0.61006 5.52839 0.515536 6.27339 0.865284L10.0455 2.68964C10.6589 2.97427 11.2019 3.39137 11.6355 3.91105C12.0692 4.43073 12.3828 5.04011 12.5539 5.69557C12.9878 4.41455 13.8912 3.34674 15.0813 2.70855L18.9476 0.335934C19.6832 -0.127245 20.2679 0.0901663 20.2679 0.827473V3.47421C20.2508 3.91682 20.1204 4.34758 19.8892 4.72506C19.658 5.10251 19.3337 5.41393 18.9476 5.6294L16.0337 7.40652C15.4717 7.68234 14.9975 8.10973 14.6643 8.64071C14.3312 9.17169 14.1523 9.78522 14.1476 10.4124H19.3437C19.4576 10.4111 19.5705 10.4328 19.6758 10.4762C19.7811 10.5196 19.8767 10.5837 19.9568 10.6649C20.0368 10.746 20.0998 10.8425 20.1419 10.9485C20.184 11.0545 20.2044 11.168 20.2019 11.2821V14.4204C20.2088 14.5289 20.1926 14.6377 20.1542 14.7395C20.1159 14.8413 20.0564 14.9337 19.9797 15.0106C19.903 15.0875 19.8107 15.1471 19.7092 15.1856C19.6077 15.224 19.4992 15.2402 19.3908 15.2333H1.31307C1.19964 15.2346 1.08711 15.2129 0.982292 15.1694C0.877474 15.126 0.78253 15.0616 0.703205 14.9803C0.623879 14.8991 0.561814 14.8025 0.520759 14.6965C0.479705 14.5905 0.460514 14.4773 0.464346 14.3636V11.2348C0.461768 11.1211 0.482204 11.0082 0.524417 10.9026C0.56663 10.7971 0.629747 10.7012 0.709952 10.6208C0.790158 10.5404 0.88579 10.4772 0.991073 10.4348C1.09635 10.3925 1.2091 10.372 1.3225 10.3747L10.9979 10.403Z" fill="#00CD00"/>
</g>
</svg>
