<svg width="302" height="278" viewBox="0 0 302 278" fill="none" xmlns="http://www.w3.org/2000/svg">
<path d="M293.159 168.331C283.565 193.976 264.067 221.735 236.522 229.956C194.926 242.372 189.986 275.906 115.529 272.798C104.657 272.393 93.8611 270.81 83.3305 268.076C78.1837 266.716 73.1279 265.033 68.1933 263.035C24.6925 245.403 2.00292 206.633 0.118082 165.996C-2.36471 112.599 34.8641 87.1493 59.0615 72.2422C83.259 57.3352 112.428 -0.406704 185.645 2.0778C196.826 2.41349 207.931 4.03717 218.74 6.91673C243.379 13.5898 268.422 28.3797 282.98 49.9207C284.072 51.5424 285.117 53.1987 286.113 54.8897C305.585 87.9557 306.203 133.366 293.159 168.331Z" fill="#C8DDFF"/>
<path d="M122.355 77.1035C122.355 77.1035 97.3677 94.5043 86.2671 133.69C75.1665 172.875 80.4073 197.868 81.6524 210.829C82.8975 223.79 89.6718 232.423 122.369 238.594C155.066 244.765 196.844 226.281 196.844 226.281C196.844 226.281 184.773 184.724 188.403 158.5C192.033 132.275 199.658 88.2702 199.658 88.2702L122.355 77.1035Z" fill="#EDBA89"/>
<path d="M145.414 10.6387C148.424 12.3134 150.943 15.0575 150.478 18.3083C149.972 21.8265 146.117 23.086 142.677 24.1062C139.588 25.0245 136.374 25.4519 133.152 25.3728C131.52 25.3306 129.698 25.1406 128.734 24.1977C128.4 23.8318 128.175 23.3787 128.087 22.8907C127.999 22.4026 128.05 21.8996 128.235 21.4395C130.1 17.7549 132.647 14.4576 135.741 11.7223C137.051 10.5779 138.679 9.86099 140.408 9.66734C142.136 9.4737 143.883 9.8126 145.414 10.6387Z" fill="#50423E"/>
<path d="M126.258 48.262C128.199 40.9865 130.014 33.4857 135.079 27.6878C141.227 20.6515 149.226 18.6813 158.349 18.9698C164.639 19.1265 170.9 19.8614 177.055 21.1651C186.903 23.276 196.941 27.5682 203.364 35.6811C209.034 42.837 208.225 51.0977 207.493 59.6046C207.015 66.5847 205.666 73.4776 203.477 80.1225C201.422 86.026 198.939 91.7887 193.628 95.4898C188.317 99.1909 181.669 99.7538 175.408 99.6694C168.008 99.5709 160.748 97.7837 153.742 95.525C145.835 92.9849 137.196 90.4589 130.457 85.4138C119.202 76.9702 114.151 58.338 126.236 48.255" fill="#EDBA89"/>
<path d="M181.488 39.1154C182.264 39.1173 183.032 38.9517 183.739 38.6299C184.329 38.4028 184.813 37.9637 185.097 37.3986C185.448 36.526 184.991 35.5269 184.393 34.781C183.015 33.0111 180.991 31.8599 178.765 31.5795C178.236 31.5066 177.698 31.5257 177.176 31.6358C176.615 31.7844 176.107 32.0863 175.708 32.5076C175.309 32.9289 175.035 33.453 174.917 34.0211C174.327 37.1663 178.99 39.1013 181.488 39.1154Z" fill="#50423E"/>
<path d="M147.406 31.7272C146.777 31.3779 146.23 30.898 145.802 30.3199C145.426 29.8699 145.232 29.2947 145.261 28.7086C145.371 28.2846 145.588 27.8958 145.891 27.5793C146.193 27.2628 146.572 27.029 146.991 26.9003C147.94 26.4964 148.959 26.2848 149.991 26.2775C151.022 26.2703 152.044 26.4676 152.999 26.858C153.461 27.0358 153.888 27.2956 154.258 27.625C154.643 27.9973 154.918 28.4695 155.051 28.9889C155.184 29.5082 155.17 30.0543 155.01 30.5662C154.11 33.3878 149.432 32.846 147.406 31.7272Z" fill="#50423E"/>
<path d="M222.957 40.7197C221.311 34.9851 215.641 27.7236 208.353 28.0544C202.662 28.3217 200.615 33.3457 198.927 37.8489C197.423 41.8977 196.707 46.1966 196.817 50.5143C196.866 52.7096 197.161 55.1794 198.667 56.5726C199.28 57.0725 200 57.423 200.772 57.5964C201.543 57.7698 202.345 57.7614 203.113 57.5717C210.33 54.8346 216.795 51.4783 221.937 45.4833C222.489 44.8361 222.871 44.0619 223.049 43.2304C223.227 42.3989 223.195 41.5361 222.957 40.7197Z" fill="#50423E"/>
<path d="M173.2 71.3205C173.073 62.2296 169.056 55.0244 159.32 51.0981C159.115 51.0173 158.906 50.9468 158.694 50.887C133.229 43.5341 117.718 67.155 129.782 72.4674C130.513 72.7603 131.171 73.2101 131.71 73.7852C132.248 74.3602 132.654 75.0466 132.898 75.7956C134.08 79.7923 138.245 83.3245 141.6 84.7318C144.51 85.9392 147.657 86.4662 150.801 86.2727C153.017 86.2186 155.181 85.5855 157.076 84.4362C157.231 84.3377 157.386 84.2251 157.533 84.1126C158.658 83.2447 160.062 82.8191 161.48 82.9164C163.95 83.0974 166.419 82.5389 168.571 81.3121C171.371 79.7078 173.277 76.9707 173.2 71.3205Z" fill="#50423E"/>
<path d="M191.061 45.8201C189.529 43.5118 187.422 41.6422 184.948 40.3951C180.346 37.9821 175.128 37.0018 169.964 37.5806C167.68 37.882 165.505 38.7424 163.633 40.0855C163.124 40.4945 162.653 40.949 162.226 41.4435C159.572 39.3203 156.186 38.3338 152.807 38.6994C152.548 37.2978 152.035 35.9554 151.294 34.7379C149.863 32.5756 147.891 30.8244 145.575 29.6577C141.287 27.3918 136.419 26.4629 131.598 26.9909C129.445 27.2726 127.396 28.0823 125.632 29.3481C123.753 30.9198 122.359 32.9943 121.615 35.329C120.961 37.411 120.648 39.5851 120.687 41.7672C120.687 46.8967 124.049 52.0543 129.128 54.6014C130.787 55.4459 132.571 56.0162 134.411 56.2902C136.617 56.6192 138.866 56.5116 141.031 55.9735C145.069 54.9581 148.568 52.4419 150.816 48.9372C151.747 47.4556 152.402 45.818 152.751 44.1032C153.95 43.8692 155.188 43.9328 156.357 44.2885C157.525 44.6443 158.589 45.2813 159.455 46.1438C159.412 46.2564 159.363 46.3619 159.328 46.4745C158.629 48.6879 158.291 50.9998 158.329 53.3208C158.329 58.7881 161.924 64.2905 167.362 67.0205C169.145 67.9073 171.06 68.5035 173.031 68.7867C175.399 69.1402 177.813 69.0255 180.136 68.4489C184.455 67.3553 188.195 64.6583 190.597 60.906C193.565 56.1846 193.755 50.1193 191.061 45.8201ZM186.559 58.4011C184.811 61.1241 182.092 63.079 178.955 63.8683C175.778 64.6404 172.431 64.2614 169.507 62.7988C165.652 60.8638 163.084 57.0853 163.106 53.3842C163.059 51.552 163.311 49.7244 163.851 47.9732C164.349 46.3693 165.284 44.9364 166.553 43.8359C167.721 43.0377 169.056 42.5178 170.457 42.316C172.276 42.1278 174.112 42.1656 175.923 42.4286C178.288 42.7613 180.576 43.5067 182.683 44.631C184.43 45.4872 185.925 46.7817 187.023 48.3884C188.775 51.1325 188.578 55.1573 186.559 58.4011ZM131.26 50.3796C127.743 48.6206 125.407 45.1868 125.428 41.8305C125.396 40.1615 125.633 38.4982 126.132 36.9051C126.56 35.4239 127.399 34.0943 128.552 33.0703C129.606 32.3557 130.808 31.889 132.069 31.7053C133.738 31.5301 135.423 31.5632 137.085 31.8038C139.251 32.108 141.346 32.7916 143.275 33.8232C144.876 34.6163 146.243 35.8116 147.243 37.2921C148.79 39.7689 148.614 43.5052 146.806 46.3689C145.212 48.8517 142.736 50.6371 139.877 51.3647C136.975 52.0554 133.921 51.6939 131.26 50.3445V50.3796Z" fill="#4F47AD"/>
<path d="M155.269 59.267C153.046 60.5265 150.788 61.0331 149.318 60.3999C147.199 59.2804 145.452 57.5692 144.288 55.4744C143.359 53.455 146.94 53.5324 151.562 54.9186C156.184 56.3047 157.485 58.0005 155.269 59.267Z" fill="white"/>
<path d="M127.547 80.8271C127.547 80.8271 120.815 89.714 109.834 116.276C98.853 142.838 94.5267 154.8 97.5445 176.057C100.661 197.954 118.55 202.851 129.946 203.498C146.829 204.434 157.1 200.599 162.214 192.135C169.952 179.364 165.45 170.54 166.069 142.55C166.364 129.258 172.322 94.4143 172.322 94.4143C172.322 94.4143 156.143 94.3439 148.349 92.0571C139.858 89.5592 127.547 80.8412 127.547 80.8412" fill="#F7F7F7"/>
<path d="M140.131 69.5474C148.08 72.0804 145.871 71.4472 157.014 74.3813" stroke="white" stroke-width="1.53982" stroke-miterlimit="10" stroke-linecap="round"/>
<path d="M149.184 59.1689C149.184 59.1689 148.523 59.9781 147.889 63.7144C147.502 66.2585 147.359 68.8337 147.46 71.4051" stroke="white" stroke-width="1.34482" stroke-miterlimit="10" stroke-linecap="round"/>
<path d="M147.243 37.2927C146.241 35.8321 144.879 34.6544 143.29 33.873C141.361 32.8414 139.265 32.1578 137.099 31.8536C135.438 31.613 133.753 31.5799 132.083 31.7551C130.823 31.9388 129.621 32.4055 128.566 33.1201C127.423 34.1173 126.58 35.4136 126.132 36.8634C125.634 38.4566 125.396 40.1199 125.429 41.7889C125.429 45.1452 127.75 48.5789 131.26 50.338C133.921 51.6898 136.974 52.0538 139.878 51.3653C142.735 50.6394 145.212 48.8566 146.807 46.3765C148.615 43.4776 148.791 39.7413 147.243 37.2927Z" fill="white"/>
<path d="M187.032 48.3468C185.934 46.7402 184.439 45.4456 182.692 44.5894C180.58 43.4636 178.287 42.7181 175.917 42.387C174.107 42.1227 172.271 42.0872 170.451 42.2815C169.051 42.477 167.714 42.9948 166.547 43.7943C165.279 44.8948 164.343 46.3278 163.846 47.9317C163.305 49.6829 163.054 51.5104 163.1 53.3426C163.1 57.0437 165.647 60.8222 169.502 62.7572C172.425 64.2199 175.773 64.5988 178.949 63.8267C182.082 63.0495 184.803 61.1102 186.561 58.4017C188.58 55.158 188.777 51.1332 187.032 48.3468Z" fill="white"/>
<path d="M139.884 36.6802C138.667 37.208 138.336 38.8474 138.104 40.2547C137.872 41.6619 137.59 43.3225 138.512 44.2091C139.434 45.0957 142.297 43.9487 142.838 41.099C143.38 38.2493 141.101 36.1525 139.884 36.6802Z" fill="#212121"/>
<path d="M180.488 47.6361C179.137 48.2202 178.771 50.0426 178.511 51.6046C178.251 53.1667 177.948 55.0102 178.968 55.9953C179.988 56.9804 183.189 55.7068 183.766 52.5405C184.343 49.3741 181.846 47.0521 180.488 47.6361Z" fill="#212121"/>
<path d="M142.729 86.7649C153.794 90.2831 171.796 94.9904 198.457 89.298L199.604 89.0728C199.726 90.9523 199.646 92.8396 199.364 94.7019L198.872 95.2578C193.993 96.4452 189.019 97.201 184.008 97.5164C175.004 98.1778 158.472 97.1576 143.425 92.7529C134.49 90.1755 126.248 85.6208 119.311 79.4261V79.0953C119.356 78.6185 119.448 78.1472 119.585 77.6881C120.093 76.4209 120.785 75.2355 121.639 74.1699C121.639 74.1699 131.516 83.1905 142.729 86.7649Z" fill="#263039"/>
<path d="M61.3316 60.1676C63.442 60.0902 66.706 61.3568 66.706 61.3568C66.706 61.3568 62.1617 57.536 62.6611 55.5236C63.1606 53.5113 65.3905 53.2298 67.8386 54.0671C70.2866 54.9044 74.4933 57.9652 74.4933 57.9652C74.4933 57.9652 74.8591 53.6801 77.0469 53.3705C79.2347 53.0609 86.2411 54.7356 90.5885 69.5963C92.8115 77.1885 90.9332 81.6425 91.292 83.8026C99.1426 74.6554 97.9203 74.7299 105.783 69.9692C110.173 67.8583 116.209 69.0334 118.403 71.6861C123.328 77.674 115.709 90.9375 111.833 96.651C103.631 108.782 90.7996 125.31 84.9608 131.354C69.963 146.792 61.5215 137.307 60.8884 129.37C59.4393 111.329 68.528 92.1477 71.6514 84.5977C73.8884 79.1868 72.5659 78.068 70.554 75.4998C69.6146 74.3024 68.4107 73.339 67.0366 72.6852C60.7829 69.6596 58.2082 66.0429 58.159 64.2276C58.1097 62.4122 58.7147 60.2591 61.3316 60.1676Z" fill="#EDBA89"/>
<path d="M91.2879 82.5993C92.9129 70.7994 88.9173 62.4473 83.8524 56.6001C78.7874 50.7529 75.4601 53.5041 74.9606 55.1928C74.6826 56.0855 74.6631 57.1046 74.6631 57.8096" stroke="#B27C4A" stroke-width="0.67241" stroke-miterlimit="10" stroke-linecap="round"/>
<path d="M77.1599 60.9626C77.1599 60.9626 76.7751 58.5145 70.1253 55.1084C63.4754 51.7024 61.951 55.9317 63.0906 57.543C63.945 58.8441 64.9855 60.0128 66.1788 61.0119" stroke="#B27C4A" stroke-width="0.67241" stroke-miterlimit="10" stroke-linecap="round"/>
<path d="M119.012 81.4768C118.97 81.6579 119.084 81.8381 119.265 81.8793C119.446 81.9205 119.626 81.8071 119.667 81.626L119.012 81.4768ZM119.009 72.2776L119.293 72.0977L119.293 72.0975L119.009 72.2776ZM105.812 69.9697L105.964 70.2693L105.965 70.2692L105.812 69.9697ZM83.3575 95.3004L83.067 95.131L83.067 95.1312L83.3575 95.3004ZM119.667 81.626C119.883 80.6799 120.24 79.0232 120.323 77.252C120.404 75.491 120.218 73.5584 119.293 72.0977L118.725 72.4574C119.537 73.7409 119.731 75.5023 119.651 77.2208C119.571 78.9291 119.226 80.5372 119.012 81.4768L119.667 81.626ZM119.293 72.0975C117.983 70.0321 115.32 69.0447 112.677 68.7524C110.026 68.4594 107.27 68.85 105.659 69.6701L105.965 70.2692C107.421 69.5272 110.035 69.1369 112.603 69.4208C115.178 69.7055 117.58 70.6531 118.725 72.4577L119.293 72.0975ZM105.66 69.67C103.107 70.968 94.4157 75.6734 83.067 95.131L83.6479 95.4698C94.9366 76.1151 103.536 71.5044 105.964 70.2693L105.66 69.67ZM83.067 95.1312C80.4372 99.6444 77.6607 104.945 74.7865 111.181L75.3971 111.463C78.2631 105.245 81.0299 99.9629 83.648 95.4697L83.067 95.1312Z" fill="#B27C4A"/>
<path d="M70.653 63.4538C68.3524 61.8816 65.7994 60.7154 63.1049 60.006C58.9967 59.1054 58.1596 61.9199 58.0189 63.6508C57.8008 66.2683 60.8327 69.2799 64.7369 71.5034C68.6411 73.7268 74.5854 77.3506 72.475 82.2267C70.3646 87.1029 65.0394 97.77 62.718 108.261C60.3966 118.752 58.7434 131.579 64.336 137.209C69.9285 142.838 78.0675 139.453 88.3943 127.674C93.0724 122.334 98.9463 106.565 105.608 98.7762" stroke="#B27C4A" stroke-width="0.67241" stroke-miterlimit="10" stroke-linecap="round"/>
<path d="M251.265 107.888C249.38 106.966 245.87 106.798 245.87 106.798C245.87 106.798 251.582 105.151 251.969 103.125C252.356 101.098 250.407 99.916 247.825 99.6838C245.244 99.4516 240.165 100.542 240.165 100.542C240.165 100.542 241.571 96.4753 239.7 95.3002C237.829 94.1251 231.962 93.9774 220.707 104.609C215.079 109.957 213.215 120.089 212.8 128.765C211.393 116.662 208.094 104.384 203.908 98.2203C201.165 94.1885 197.507 93.6607 194.418 95.1946C187.461 98.6495 186.976 117.95 188.038 124.747C190.078 137.884 195.396 151.682 200.7 161.723C208.438 176.302 219.342 175.697 223.957 169.21C230.422 160.119 232.194 140.051 231.878 125.986C231.751 120.138 233.7 119.653 236.584 118.119C237.925 117.422 239.407 117.042 240.917 117.007C247.874 116.775 251.708 114.509 252.489 112.863C253.27 111.216 253.615 109.063 251.265 107.888Z" fill="#EDBA89"/>
<path d="M213.124 126.52C213.072 121.453 214.123 116.435 216.205 111.814C219.638 104.447 225.842 99.2403 232.849 95.9543C239.855 92.6684 241.072 96.0599 240.854 97.7768C240.742 98.7079 240.572 99.6314 240.348 100.542" stroke="#B27C4A" stroke-width="0.67241" stroke-miterlimit="10" stroke-linecap="round"/>
<path d="M237.473 102.224C237.473 102.224 239.166 100.152 246.259 99.7263C254.039 99.3323 252.404 103.764 250.68 104.757C249.376 105.601 247.953 106.248 246.46 106.678" stroke="#B27C4A" stroke-width="0.67241" stroke-miterlimit="10" stroke-linecap="round"/>
<path d="M189.774 102.026C190.147 100.127 190.949 97.277 193.65 95.4757C197.47 92.9426 200.594 94.0051 202.76 96.6789C204.519 98.8461 210.498 106.621 212.975 128.962C213.544 134.14 213.917 140.1 214.009 146.96" stroke="#B27C4A" stroke-width="0.67241" stroke-miterlimit="10" stroke-linecap="round"/>
<path d="M241.416 107.106C244.156 106.603 246.961 106.574 249.71 107.022C253.846 107.838 253.453 110.779 252.883 112.419C252.01 114.903 248.036 116.422 243.555 116.866C239.074 117.309 232.194 118.21 232.145 123.529C232.095 128.849 232.616 140.747 230.456 151.294C228.297 161.842 226.995 170.982 218.828 172.987C207.573 175.802 202.761 165.909 199.131 158.549C194.609 149.036 190.768 139.215 187.637 129.158" stroke="#B27C4A" stroke-width="0.67241" stroke-miterlimit="10" stroke-linecap="round"/>
<path d="M236.639 113.815C234.711 114.817 232.191 113.815 229.43 111.888C226.668 109.962 224.426 107.492 226.028 105.59C227.629 103.688 232.874 103.876 235.956 106.701C239.038 109.527 238.572 112.812 236.639 113.815Z" fill="#EAA56C"/>
<path d="M73.3761 72.9221C75.3123 73.9298 77.8266 72.9221 80.5897 70.994C83.3528 69.0659 85.5915 66.6003 83.9915 64.6991C82.3915 62.7978 77.1409 62.9859 74.0618 65.8143C70.9828 68.6426 71.4466 71.9211 73.3761 72.9221Z" fill="#EAA56C"/>
<path fill-rule="evenodd" clip-rule="evenodd" d="M146.31 90.9102C145.45 90.7735 144.57 90.9812 143.862 91.4882C143.154 91.9951 142.674 92.7607 142.525 93.6192C142.277 94.4478 142.362 95.3406 142.763 96.1071C143.164 96.8736 143.849 97.4529 144.671 97.7213C144.846 97.7636 145.025 97.7849 145.205 97.7847H145.353L145.466 97.6932C145.658 97.5234 145.791 97.2966 145.846 97.0458C145.893 96.7894 145.854 96.5243 145.733 96.293L145.606 96.0537L145.332 96.0959C145.243 96.1065 145.154 96.1065 145.065 96.0959C144.677 95.947 144.361 95.6537 144.184 95.2773C144.007 94.9009 143.982 94.4706 144.115 94.0765V94.0413C144.168 93.6174 144.386 93.2316 144.722 92.968C145.058 92.7044 145.485 92.5844 145.909 92.6341H145.993H146.162L146.303 92.4933C146.472 92.3161 146.587 92.0937 146.633 91.8527C146.679 91.6118 146.655 91.3627 146.563 91.1353L146.479 90.9383L146.31 90.9102Z" fill="#FFB842"/>
<path d="M147.176 93.8721C147.197 94.1293 147.176 94.3883 147.112 94.6386C147.06 94.8832 146.975 95.1197 146.859 95.3418C147.183 95.4543 148.111 95.8059 148.399 95.9325C148.544 95.6479 148.657 95.3485 148.737 95.0394C148.797 94.7387 148.823 94.4319 148.814 94.1252L147.176 93.8721Z" fill="#FFB842"/>
<path d="M154.9 107.6C152.993 114.897 146.31 115.663 140.978 114.27C135.646 112.877 134.218 107.853 135.618 102.52C137.018 97.1861 141.33 93.7102 146.655 95.1034C151.98 96.4965 156.602 101.091 154.9 107.6Z" fill="#FFB842"/>
<path d="M152.261 101.324C151.537 99.3865 150.236 97.7184 148.532 96.5463C147.607 95.9265 146.584 95.4652 145.507 95.1813C143.237 94.599 140.834 94.8338 138.72 95.8445C136.605 96.8552 134.913 98.5775 133.939 100.71C132.966 102.843 132.773 105.25 133.395 107.51C134.017 109.77 135.413 111.74 137.34 113.075C139.219 114.359 141.48 114.965 143.749 114.792C145.282 114.652 146.763 114.162 148.077 113.358C149.391 112.554 150.502 111.459 151.325 110.157C152.148 108.855 152.66 107.382 152.823 105.85C152.985 104.318 152.792 102.77 152.261 101.324Z" fill="#F9D073"/>
</svg>
