<svg width="18" height="18" viewBox="0 0 18 18" fill="none" xmlns="http://www.w3.org/2000/svg">
<g id="Property 1=Default">
<path id="Star 2" d="M8.59863 1.84398C8.75941 1.50589 9.24059 1.50589 9.40137 1.84398L11.1955 5.6166C11.2603 5.75284 11.3898 5.84691 11.5394 5.86643L15.6817 6.40694C16.053 6.45538 16.2017 6.913 15.9298 7.17039L12.8962 10.0425C12.7867 10.1462 12.7372 10.2984 12.7649 10.4467L13.5309 14.5534C13.5996 14.9214 13.2103 15.2043 12.8815 15.0253L9.21252 13.0277C9.08002 12.9556 8.91998 12.9556 8.78748 13.0277L5.11851 15.0253C4.78971 15.2043 4.40044 14.9214 4.46908 14.5534L5.2351 10.4467C5.26276 10.2984 5.2133 10.1462 5.10375 10.0425L2.07019 7.17039C1.79834 6.913 1.94703 6.45538 2.31825 6.40694L6.46064 5.86643C6.61024 5.84691 6.73972 5.75284 6.80451 5.6166L8.59863 1.84398Z" fill="#FFB11A"/>
</g>
</svg>
