<svg width="18" height="18" viewBox="0 0 18 18" fill="none" xmlns="http://www.w3.org/2000/svg">
<g id="Property 1=Emty">
<path id="Star 2" d="M7.59863 0.843984C7.75941 0.505894 8.24059 0.505893 8.40137 0.843983L10.1955 4.6166C10.2603 4.75284 10.3898 4.84691 10.5394 4.86643L14.6817 5.40694C15.053 5.45538 15.2017 5.913 14.9298 6.17039L11.8962 9.04251C11.7867 9.14623 11.7372 9.29844 11.7649 9.44675L12.5309 13.5534C12.5996 13.9214 12.2103 14.2043 11.8815 14.0253L8.21252 12.0277C8.08002 11.9556 7.91998 11.9556 7.78748 12.0277L4.11851 14.0253C3.78971 14.2043 3.40044 13.9214 3.46908 13.5534L4.2351 9.44675C4.26276 9.29844 4.2133 9.14623 4.10375 9.04251L1.07019 6.17039C0.798337 5.913 0.947025 5.45538 1.31825 5.40694L5.46064 4.86643C5.61024 4.84691 5.73972 4.75284 5.80451 4.6166L7.59863 0.843984Z" fill="#F4F5F8"/>
</g>
</svg>
