<svg width="128" height="21" viewBox="0 0 128 21" fill="none" xmlns="http://www.w3.org/2000/svg">
<g id="Frame 633212">
<path id="Vector" d="M50.0645 9.68759H52.336C52.4649 9.67448 53.4722 9.55445 53.7174 8.4227L53.7183 8.43184C54.347 6.16896 56.0985 4.38344 58.3249 3.73423H58.3218C58.333 3.73196 58.3439 3.7274 58.3569 3.72399C58.3768 3.71944 58.4007 3.71261 58.4223 3.70521C59.4328 3.42186 59.5549 2.47961 59.5675 2.3385V0.0244141C54.4475 0.330532 50.3502 4.49214 50.0645 9.68759Z" fill="#3797C2"/>
<path id="Vector_2" d="M67.8784 10.7852C67.7482 10.7955 66.7431 10.9161 66.497 12.0478L66.4952 12.0421C65.8687 14.3016 64.1155 16.0882 61.8895 16.7363L61.8931 16.7374C61.88 16.7386 61.8692 16.7431 61.8593 16.7465C61.8359 16.7545 61.8156 16.7608 61.793 16.7642C60.7803 17.0498 60.6586 17.9921 60.646 18.1309V20.4456C65.7687 20.1411 69.8633 15.979 70.15 10.7847H67.8784V10.7852Z" fill="#F48232"/>
<path id="Vector_3" d="M58.3218 16.7378L58.3294 16.7367C56.1016 16.0886 54.347 14.3072 53.7174 12.0471V12.0483C53.7151 12.0351 53.7093 12.026 53.707 12.0158C53.7021 11.9948 53.6953 11.9748 53.6917 11.9561C53.4105 10.9137 52.4599 10.7959 52.336 10.7856H50.0645C50.3502 15.98 54.4475 20.1416 59.5675 20.4465V18.1319C59.5549 17.9868 59.4283 16.9831 58.3218 16.7378Z" fill="#43B54B"/>
<path id="Vector_4" d="M68.9615 5.9522L68.9697 5.94992C66.7432 5.30301 64.9872 3.52034 64.3585 1.26031V1.26259C64.3563 1.25064 64.3531 1.2404 64.3481 1.23016C64.3436 1.20911 64.3369 1.19033 64.3328 1.16927C64.0516 0.128023 63.1024 0.0102416 62.9762 0H60.7056C60.9927 5.19203 65.0882 9.35707 70.2091 9.6609V7.3485C70.1956 7.2017 70.0707 6.19687 68.9615 5.9522Z" fill="#BD298B"/>
<path id="Vector_5" d="M81.1702 20.2218V12.0534C81.1702 10.5587 80.9471 9.51171 80.5036 8.91369C80.0592 8.31457 79.316 8.01586 78.2722 8.01586C77.7119 8.01586 77.1247 8.1871 76.5131 8.5268C75.901 8.86818 75.4309 9.28697 75.1024 9.78484V20.2212H72.6465V6.18141H74.3267L75.1024 7.98968C75.9136 6.60928 77.2378 5.91797 79.0735 5.91797C82.109 5.91797 83.6261 7.78824 83.6261 11.5288V20.2212H81.1702V20.2218Z" fill="#41413E"/>
<path id="Vector_6" d="M88.6219 16.4663C89.156 16.4663 89.6139 16.6575 89.993 17.0433C90.3715 17.4279 90.5617 17.8911 90.5617 18.4322C90.5617 18.9744 90.3715 19.4399 89.993 19.829C89.6135 20.2171 89.156 20.4123 88.6219 20.4123C88.0878 20.4123 87.6308 20.2165 87.2509 19.829C86.8718 19.4399 86.6816 18.9744 86.6816 18.4322C86.6816 17.8911 86.8718 17.4273 87.2509 17.0433C87.6308 16.6575 88.0874 16.4663 88.6219 16.4663Z" fill="#41413E"/>
<path id="Vector_7" d="M96.663 6.20635L96.8414 8.04646C97.2935 7.38128 97.8663 6.86523 98.5613 6.49766C99.2559 6.1301 100.064 5.94629 100.984 5.94629C101.905 5.94629 102.695 6.16253 103.355 6.59493C104.016 7.02683 104.513 7.67488 104.845 8.53917C105.28 7.74432 105.855 7.11332 106.571 6.64674C107.286 6.18017 108.123 5.94688 109.077 5.94688C110.483 5.94688 111.595 6.43735 112.414 7.41829C113.232 8.39923 113.641 9.87406 113.641 11.8439V20.2297H111.122V11.8183C111.122 10.4356 110.889 9.45756 110.42 8.88284C109.951 8.30817 109.252 8.02083 108.323 8.02083C107.462 8.02083 106.765 8.32297 106.233 8.9278C105.7 9.53267 105.386 10.2974 105.293 11.222V11.3255V20.2297H102.761V11.8183C102.761 10.5045 102.52 9.54346 102.038 8.93465C101.557 8.32581 100.864 8.02143 99.9612 8.02143C99.1941 8.02143 98.5631 8.18074 98.0687 8.50107C97.5743 8.82084 97.1948 9.27033 96.9316 9.84843V20.2302H94.4126V6.20635H96.663Z" fill="#41413E"/>
<path id="Vector_8" d="M121.991 11.3776L124.932 6.20605H127.872L123.384 13.1403L128 20.2299H125.111L122.042 14.9292L118.973 20.2299H116.059L120.674 13.1403L116.187 6.20605H119.089L121.991 11.3776Z" fill="#41413E"/>
<path id="Vector_9" d="M0 16.489V0.556152H2.47528V16.0663C2.47528 16.8236 2.68913 17.421 3.11908 17.8546C3.54959 18.291 4.112 18.5095 4.80517 18.5095V20.753C1.60248 20.753 0 19.3311 0 16.489Z" fill="#40413E"/>
<path id="Vector_10" d="M19.4165 13.6637H9.36323C9.36323 15.3189 9.8106 16.5889 10.7042 17.4788C11.4945 18.2549 12.5109 18.6412 13.7519 18.6412C15.167 18.6412 16.3479 18.2225 17.2942 17.3855L18.336 19.196C17.9538 19.5818 17.3672 19.9175 16.5786 20.1997C15.5879 20.5695 14.4861 20.7527 13.2704 20.7527C11.5175 20.7527 10.0278 20.1502 8.80422 18.9439C7.43972 17.617 6.7583 15.8281 6.7583 13.5852C6.7583 11.2512 7.45712 9.38205 8.85529 7.97607C10.1053 6.71574 11.5848 6.08643 13.2951 6.08643C15.2837 6.08643 16.8413 6.65543 17.9706 7.78943C19.0634 8.88189 19.6118 10.3294 19.6118 12.1342C19.6118 12.6862 19.545 13.1982 19.4165 13.6637ZM13.4135 8.19967C12.3095 8.19967 11.3856 8.56097 10.6396 9.28021C9.92733 9.96695 9.52377 10.8222 9.42836 11.8429H17.1511C17.1511 10.8301 16.8374 9.98459 16.2127 9.30694C15.5279 8.56783 14.5933 8.19967 13.4135 8.19967Z" fill="#40413E"/>
<path id="Vector_11" d="M30.7978 20.4888V12.2646C30.7978 10.7596 30.575 9.70466 30.1277 9.10325C29.6792 8.50067 28.931 8.19853 27.8825 8.19853C27.3156 8.19853 26.7257 8.37036 26.1099 8.71289C25.4936 9.05542 25.0205 9.47877 24.691 9.98121V20.4888H22.2163V6.35101H23.9091L24.6916 8.17235C25.5077 6.7829 26.8396 6.08643 28.6891 6.08643C31.7442 6.08643 33.2731 7.96981 33.2731 11.7371V20.4888H30.7978Z" fill="#40413E"/>
<path id="Vector_12" d="M81.0852 20.4888V12.2646C81.0852 10.7596 80.8608 9.70466 80.4132 9.10325C79.9661 8.50067 79.2175 8.19853 78.1669 8.19853C77.6013 8.19853 77.0118 8.37036 76.3961 8.71289C75.7791 9.05542 75.3067 9.47877 74.9773 9.98121V20.4888H72.5029V6.35101H74.1953L74.9777 8.17235C75.794 6.7829 77.1262 6.08643 78.9741 6.08643C82.0308 6.08643 83.5587 7.96981 83.5587 11.7371V20.4888H81.0852Z" fill="#40413E"/>
<path id="Vector_13" d="M45.629 20.4765V19.4336C44.7698 20.3041 43.5198 20.7394 41.8791 20.7394C40.1347 20.7394 38.718 20.1055 37.633 18.8389C36.5492 17.5713 36.0059 15.8825 36.0059 13.7704C36.0059 11.6486 36.6311 9.83981 37.8806 8.3371C39.1317 6.83723 40.6207 6.08615 42.3473 6.08615C43.7898 6.08615 44.8832 6.43211 45.6299 7.11493V0.556152H48.1038V20.4765H45.629ZM45.629 9.62644C45.0044 8.67392 44.149 8.20054 43.064 8.20054C41.7361 8.20054 40.6612 8.70069 39.8411 9.70324C39.02 10.7081 38.6102 11.9843 38.6102 13.5331C38.6102 16.9385 40.1386 18.6421 43.1948 18.6421C43.5849 18.6421 44.0542 18.5163 44.6014 18.2654C45.1499 18.0151 45.4915 17.7488 45.6299 17.4665V9.62644H45.629Z" fill="#40413E"/>
<path id="Vector_14" d="M49.9937 10.1718H52.2774C52.4081 10.1593 53.4203 10.0381 53.6682 8.90011L53.6696 8.90751C54.3019 6.63097 56.0646 4.83467 58.3055 4.18204H58.3024C58.3141 4.17863 58.324 4.17407 58.3366 4.17066C58.3573 4.16611 58.3803 4.15814 58.4033 4.15188C59.421 3.86625 59.5431 2.91831 59.5567 2.77607V0.447754C54.4024 0.753873 50.2817 4.94337 49.9937 10.1718Z" fill="#3797C2"/>
<path id="Vector_15" d="M67.9196 11.2764C67.7903 11.2877 66.7766 11.4095 66.5292 12.5475L66.5274 12.5407C65.8969 14.8155 64.1333 16.6141 61.8937 17.2656L61.8969 17.2667C61.8843 17.2695 61.8739 17.2735 61.8617 17.2775C61.8378 17.2838 61.8185 17.2901 61.7959 17.2957C60.7773 17.5814 60.6543 18.5299 60.6426 18.6704V20.9998C65.7964 20.6932 69.9176 16.5043 70.2051 11.2764H67.9196Z" fill="#F38231"/>
<path id="Vector_16" d="M58.3024 17.2667L58.31 17.2656C56.0691 16.6141 54.3019 14.8206 53.6696 12.5452V12.5481C53.666 12.5344 53.6615 12.5248 53.6588 12.5139C53.6543 12.494 53.6471 12.4741 53.643 12.4536C53.3595 11.405 52.4045 11.2872 52.2778 11.2764H49.9937C50.2808 16.5043 54.4024 20.6926 59.5558 20.9998V18.6704C59.5431 18.5248 59.4151 17.5142 58.3024 17.2667Z" fill="#40B44A"/>
<path id="Vector_17" d="M69.01 6.43835L69.0181 6.43721C66.7767 5.78568 65.0109 3.99224 64.3785 1.71742V1.71969C64.3745 1.70775 64.3713 1.69637 64.3673 1.68613C64.3614 1.6645 64.356 1.6463 64.351 1.62524C64.068 0.577165 63.1139 0.459384 62.9868 0.449707H60.7021C60.9897 5.6753 65.1118 9.86537 70.2647 10.1715V7.84204C70.2516 7.69525 70.1259 6.6853 69.01 6.43835Z" fill="#BE248B"/>
</g>
</svg>
