<svg width="127" height="26" viewBox="0 0 127 26" fill="none" xmlns="http://www.w3.org/2000/svg">
<g id="Clip path group">
<mask id="mask0_567_5787" style="mask-type:luminance" maskUnits="userSpaceOnUse" x="0" y="0" width="127" height="26">
<g id="clip0_4122_27198">
<path id="Vector" d="M126.224 0H0V26H126.224V0Z" fill="white"/>
</g>
</mask>
<g mask="url(#mask0_567_5787)">
<g id="Group">
<path id="Vector_2" fill-rule="evenodd" clip-rule="evenodd" d="M38.6596 18.2049V7.79507C38.6596 3.50285 35.1451 0 30.8387 0H28.9824V4.66224C28.9824 11.1006 23.7107 16.3548 17.251 16.3548H12.5732V18.2049C12.5732 22.4972 16.0877 26 20.3942 26H30.8139C35.1451 26 38.6596 22.4972 38.6596 18.2049Z" fill="#A5CD39"/>
<path id="Vector_3" fill-rule="evenodd" clip-rule="evenodd" d="M25.0716 4.66224V0H20.3938C16.0874 0 12.5729 3.50285 12.5729 7.79507V12.4326H17.2259C21.5571 12.4573 25.0716 8.95446 25.0716 4.66224ZM3.31647 3.60152H0V6.90702C0 9.96584 2.49973 12.4573 5.56871 12.4573H8.88518V9.12714C8.88518 6.06831 6.38545 3.60152 3.31647 3.60152Z" fill="#006D38"/>
<path id="Vector_4" d="M66.6508 7.74594V25.2356C66.6508 25.2356 66.7498 25.9263 67.4428 25.9263H70.3881C70.3881 25.9263 71.0563 25.8769 71.0563 25.1862V7.74594C71.0563 7.74594 71.0811 6.9319 70.2643 6.9319H67.3191C67.3191 6.90723 66.6508 6.8579 66.6508 7.74594ZM77.5903 6.9319H74.9915C74.9915 6.9319 74.051 6.8579 74.249 7.74594C74.447 8.63399 78.6298 23.4347 78.6298 23.4347C78.6298 23.4347 79.4712 25.8769 82.6392 25.8769C85.7824 25.8769 86.4754 23.4841 86.4754 23.4841L90.8809 7.99262C90.8809 7.99262 91.2274 6.8579 90.4107 6.8579H87.2427C87.2427 6.8579 86.5249 6.9319 86.3517 7.69661C86.1784 8.46131 83.159 21.8067 83.159 21.8067C83.159 21.8067 83.0847 22.3 82.6145 22.3C82.1442 22.3 81.971 21.7327 81.971 21.7327L78.7782 7.72128C78.803 7.74594 78.6792 6.88257 77.5903 6.9319ZM49.722 6.9319H47.0985C47.0985 6.9319 46.158 6.8579 46.356 7.74594C46.554 8.63399 50.7367 23.4594 50.7367 23.4594C50.7367 23.4594 51.5782 25.9263 54.7462 25.9263C57.9142 25.9263 58.5824 23.5334 58.5824 23.5334L62.9879 8.01729C62.9879 8.01729 63.3344 6.88257 62.5176 6.88257H59.3744C59.3744 6.88257 58.6567 6.95657 58.4834 7.72128C58.3102 8.48598 55.2907 21.856 55.2907 21.856C55.2907 21.856 55.2164 22.3494 54.7462 22.3494C54.2759 22.3494 54.1027 21.782 54.1027 21.782L50.91 7.74594C50.91 7.74594 50.7862 6.88257 49.722 6.9319ZM93.8014 7.57327V19.2412C93.8014 19.2412 94.0489 25.9016 101.548 25.9016C109.047 25.9016 109.146 19.5865 109.146 19.5865V7.67194C109.146 7.67194 109.245 6.90723 108.404 6.90723H105.483C105.483 6.90723 104.84 6.75923 104.84 7.64727V19.6852C104.84 19.6852 104.469 22.1767 101.573 22.1767C98.6771 22.2013 98.2563 19.6359 98.2563 19.6359V7.91862C98.2563 7.91862 98.3306 6.88257 97.4891 6.88257H94.4449C94.4201 6.88257 93.8014 6.88257 93.8014 7.57327ZM124.59 10.6321C124.59 10.6321 121.001 10.2867 119.492 10.3361C118.007 10.3607 117.091 10.5334 117.091 11.6188C117.091 12.7042 118.427 13.1729 119.467 13.7896C120.655 14.4803 123.402 16.0097 124.219 16.7497C125.036 17.4898 126.1 18.6245 126.1 20.6719C126.1 22.7194 125.011 24.6681 123.006 25.3836C121.001 26.0989 117.264 25.9263 115.73 25.6796C114.195 25.4329 113.799 25.3342 113.527 25.2356C113.255 25.1369 112.883 24.9395 112.883 24.3475V22.6947C112.883 22.6947 112.859 21.7573 113.898 21.9547C114.962 22.152 117.734 22.522 119.17 22.448C120.605 22.374 121.571 22.2507 121.694 21.0173C121.793 19.7839 120.308 19.3152 118.848 18.3532C117.388 17.4158 116.076 16.7497 114.938 15.837C113.824 14.9243 112.76 13.2222 112.76 11.3721C112.76 9.52203 114.047 6.83323 118.972 6.83323C123.254 6.83323 124.887 7.30192 125.11 7.37592C125.357 7.44993 125.654 7.59794 125.654 8.14063C125.654 8.68332 125.654 9.99072 125.654 9.99072C125.654 9.99072 125.753 10.7801 124.59 10.6321ZM66.6508 0.863591V3.67573C66.6508 3.67573 66.7251 4.39111 67.3438 4.39111H70.3138C70.3138 4.39111 71.0563 4.44044 71.0563 3.65107V0.863591C71.0563 0.863591 71.1801 0.0742188 70.1406 0.0742188H67.5418C66.5518 0.0742188 66.6508 0.863591 66.6508 0.863591Z" fill="#65696E"/>
</g>
</g>
</g>
</svg>
