<svg width="210" height="208" viewBox="0 0 210 208" fill="none" xmlns="http://www.w3.org/2000/svg">
<g clip-path="url(#clip0_977_12439)">
<path d="M116.449 205.379C159.478 203.79 188.605 167.776 197.79 149.968C219.492 104.47 208.481 40.3925 146.358 13.752C85.0679 -12.5315 33.073 22.4362 17.1633 49.7076C0.866116 77.643 -1.07971 119.421 10.5895 150.373C21.8146 180.147 62.6624 207.366 116.449 205.379Z" fill="#DBE9FF"/>
<path d="M41.8393 92.7164C32.9306 87.135 30.0073 81.7746 28.9466 77.0266C28.4667 74.8736 29.1991 72.3733 31.6994 70.1319C33.2589 68.7366 34.7679 67.8337 35.4561 66.8551C35.742 66.4331 35.919 65.9469 35.9712 65.4398C36.0235 64.9328 35.9494 64.4207 35.7556 63.9493C35.5618 63.4779 35.2542 63.0617 34.8604 62.7381C34.4667 62.4144 33.9989 62.1933 33.4988 62.0945C30.2977 61.2989 27.4881 64.1843 26.5978 65.1125C25.8578 65.9825 25.2222 66.936 24.7037 67.9537C24.0761 65.8608 23.1398 63.8732 21.9256 62.0566C21.3718 61.2847 20.6345 60.6629 19.7802 60.2474C18.9259 59.8318 17.9816 59.6355 17.0324 59.6763C16.3618 59.6884 15.7071 59.8827 15.1383 60.2382C13.503 61.3621 13.1936 63.635 13.2 64.1465C13.2 64.1465 10.826 64.2475 9.8347 65.0809C8.4141 66.2616 8.33833 66.5331 7.99107 68.2378C7.99107 68.2378 4.83417 68.7366 3.98813 70.3024C3.14208 71.8682 2.72537 73.2257 3.71032 75.5239C4.69527 77.8221 5.26351 78.9397 9.08336 80.3855C9.53685 81.7476 10.2085 83.0271 11.0722 84.1738C11.7415 85.0199 20.7071 99.7247 33.865 109.429C50.4766 121.697 60.8312 123.212 73.743 125.738L81.269 105.3C81.269 105.3 68.5151 104.561 57.9837 100.52C52.3297 98.5253 46.9149 95.908 41.8393 92.7164Z" fill="#EDBA89"/>
<path d="M19.7843 67.3476C20.7188 68.08 22.0762 69.6269 22.3099 71.0033C22.575 72.6764 19.4939 76.5278 16.7663 73.2194C14.0388 69.911 13.4958 67.537 13.3948 64.1149C13.2938 60.6928 16.6906 58.2999 19.9548 60.2572C23.219 62.2145 24.7217 67.9158 24.7217 67.9158" stroke="#B27C4A" stroke-width="0.94707" stroke-miterlimit="10" stroke-linecap="round"/>
<path d="M13.2374 64.1464C13.2374 64.1464 8.09166 63.9822 8.06641 68.0988C8.11128 69.9522 8.61166 71.7661 9.52339 73.3803C10.4351 74.9945 11.7302 76.3595 13.2942 77.3549C15.8197 78.7944 17.1835 77.5127 17.7139 76.8813C17.9333 76.5829 18.0843 76.2398 18.1564 75.8765C18.2284 75.5131 18.2196 75.1384 18.1306 74.7788" stroke="#B27C4A" stroke-width="0.94707" stroke-miterlimit="10" stroke-linecap="round"/>
<path d="M8.0281 68.2504C8.0281 68.2504 5.15532 68.6797 3.96832 70.5233C2.78133 72.367 3.11596 74.8104 4.5997 77.3107C6.08345 79.8109 8.67842 80.5812 9.75808 80.3602C10.8975 80.2247 11.9505 79.6847 12.7256 78.8386L12.8266 78.7123" stroke="#B27C4A" stroke-width="0.94707" stroke-miterlimit="10" stroke-linecap="round"/>
<path d="M65.4525 124.128C65.4525 124.128 48.5252 121.975 32.2167 107.983C12.505 91.0685 9.24707 80.6823 9.24707 80.6823" stroke="#B27C4A" stroke-width="0.94707" stroke-miterlimit="10" stroke-linecap="round"/>
<mask id="mask0_977_12439" style="mask-type:alpha" maskUnits="userSpaceOnUse" x="3" y="4" width="206" height="202">
<path d="M117.08 205.379C160.109 203.79 189.236 167.776 198.421 149.968C220.123 104.47 209.112 40.3925 146.989 13.752C85.6988 -12.5315 33.7039 22.4362 17.7941 49.7076C1.49698 77.643 -0.448853 119.421 11.2203 150.373C22.4455 180.147 63.2932 207.366 117.08 205.379Z" fill="#DBE9FF"/>
</mask>
<g mask="url(#mask0_977_12439)">
<path d="M152.294 129.402C147.408 115.526 145.025 105.56 142.041 100.085C139.791 95.0304 137.49 93.0113 134.986 91.5098C124.404 80.728 110.819 70.4833 98.3218 77.0844C80.2993 86.6172 70.7792 113.52 67.846 119.066C63.1682 127.887 55.3106 160.375 58.9201 188.566C59.5676 196.521 61.0642 204.379 63.3831 212H155.531C157.838 180.03 157.889 145.219 152.294 129.402Z" fill="#EDBA89"/>
</g>
<path d="M73.9993 105C73.9993 105 50.9993 147 59.4994 195.5" stroke="#B27C4A" stroke-width="0.94707" stroke-miterlimit="10" stroke-linecap="round"/>
<path d="M76.4885 106C76.4885 106 60.0579 147.981 62.1911 166.728C64.3243 185.474 71.7777 193.164 83.0023 195.461C92.462 197.388 103.591 193.981 110.892 187.877C117.571 182.225 117.692 170.981 117.99 158.544C118.289 146.107 111.578 109.936 111.578 109.936L76.4885 106Z" fill="#F7F7F7"/>
<path d="M83.3839 35.8669C86.2693 36.9655 88.8642 39.0806 88.8706 42.0291C88.8706 45.2176 85.6126 46.8339 82.6893 48.1788C80.0641 49.3928 77.2646 50.1875 74.393 50.5338C72.9345 50.7043 71.2929 50.7674 70.3206 50.0603C69.9804 49.7754 69.7277 49.4003 69.5914 48.978C69.4551 48.5558 69.4409 48.1036 69.5503 47.6737C70.7304 44.1611 72.5665 40.9044 74.9613 38.0767C75.9757 36.8981 77.3245 36.0556 78.8286 35.6609C80.3328 35.2663 81.9214 35.3381 83.3839 35.8669Z" fill="#50423E"/>
<path d="M71.2238 71.7483C72.0067 65.0367 72.6508 58.161 76.4012 52.3397C80.9534 45.2745 87.766 42.3828 95.9739 41.6062C101.586 40.9987 107.239 40.8445 112.876 41.1453C121.93 41.7767 131.363 44.2643 138.131 50.616C144.091 56.2416 144.445 63.6793 144.887 71.3316C145.358 77.5921 145.048 83.8869 143.965 90.0709C142.904 95.5766 141.44 101.013 137.216 104.984C132.992 108.955 127.158 110.313 121.576 111.045C114.985 111.917 108.317 111.26 101.795 110.161C94.4397 108.899 86.4401 107.8 79.8106 104.182C68.7551 98.1589 61.8289 82.2481 71.268 71.7357" fill="#EDBA89"/>
<path d="M119.095 56.4688C119.784 56.374 120.444 56.1283 121.027 55.749C121.524 55.4767 121.899 55.0251 122.075 54.4862C122.284 53.6654 121.747 52.8446 121.141 52.2511C120.419 51.5618 119.569 51.0218 118.638 50.6621C117.707 50.3023 116.715 50.13 115.717 50.155C115.239 50.1556 114.764 50.2411 114.316 50.4075C113.836 50.6103 113.423 50.943 113.123 51.368C112.823 51.7931 112.648 52.2936 112.617 52.8131C112.485 55.6922 116.904 56.8097 119.095 56.4688Z" fill="#50423E"/>
<path d="M87.8598 54.3348C87.2613 54.1101 86.7169 53.7616 86.2624 53.3119C85.8696 52.9601 85.6239 52.4731 85.5742 51.9482C85.6174 51.5575 85.7595 51.1844 85.9871 50.864C86.2147 50.5436 86.5203 50.2866 86.8749 50.1172C87.667 49.6376 88.5462 49.3193 89.4618 49.1806C90.3774 49.0419 91.3113 49.0855 92.21 49.309C92.6413 49.4094 93.0515 49.5846 93.4223 49.8267C93.8158 50.1074 94.1227 50.4929 94.308 50.9394C94.4933 51.3859 94.5495 51.8754 94.4704 52.3522C94.0094 54.9535 89.8108 55.0672 87.8598 54.3348Z" fill="#50423E"/>
<path d="M156.138 52.5733C153.935 47.6927 147.962 41.9787 141.528 43.2099C136.515 44.1822 135.328 48.8923 134.425 53.1226C133.607 56.9014 133.519 60.8019 134.166 64.6137C134.495 66.5583 135.075 68.7113 136.591 69.7594C137.2 70.1233 137.886 70.3406 138.594 70.3943C139.302 70.448 140.012 70.3366 140.67 70.0688C146.724 66.7099 152.034 62.89 155.823 56.9045C156.228 56.2645 156.469 55.5342 156.524 54.7785C156.579 54.0229 156.447 53.2653 156.138 52.5733Z" fill="#50423E"/>
<path d="M115.894 86.1436C114.631 78.0935 110.104 72.2154 100.949 69.9803C100.757 69.9348 100.563 69.899 100.368 69.873C76.8051 66.634 66.0716 89.6036 77.4743 92.7668C78.1588 92.9293 78.7994 93.2396 79.3513 93.6759C79.9032 94.1122 80.353 94.6639 80.6691 95.2923C82.2349 98.6892 86.3894 101.29 89.5526 102.105C92.2925 102.805 95.156 102.87 97.9247 102.294C99.885 101.957 101.724 101.115 103.26 99.8509L103.626 99.5036C104.513 98.5866 105.706 98.0272 106.979 97.9315C109.197 97.7729 111.318 96.9575 113.072 95.5891C115.344 93.8528 116.689 91.1947 115.894 86.1436Z" fill="#50423E"/>
<path d="M120.869 61.2042C118.854 60.4785 116.728 60.111 114.587 60.1182C112.942 60.1242 111.305 60.3363 109.713 60.7496C108.496 61.1099 107.378 61.7425 106.442 62.5995C105.459 63.7406 104.814 65.1335 104.58 66.6214C104.321 68.2474 104.332 69.9047 104.611 71.5272C105.066 74.8104 107.844 77.841 111.512 79.0533C114.305 79.9764 117.334 79.878 120.061 78.7755C122.745 77.6691 124.907 75.5834 126.11 72.9415C127.492 69.8288 127.145 66.23 125.232 63.9823C124.043 62.6933 122.54 61.7359 120.869 61.2042ZM120.162 70.2077C119.366 73.0173 116.374 73.9139 115.547 72.9415C114.72 71.9692 115.136 70.3276 115.49 68.9386C115.843 67.5495 116.323 65.9332 117.592 65.5165C118.861 65.0998 120.964 67.398 120.162 70.2077Z" fill="white"/>
<path d="M128.465 61.2168C126.805 59.3654 124.692 57.9773 122.334 57.1886C117.94 55.6202 113.178 55.4004 108.658 56.5572C106.662 57.1263 104.838 58.1804 103.348 59.6257C102.942 60.0566 102.577 60.5236 102.256 61.0211C99.6244 59.4854 96.4926 59.052 93.5429 59.8152C93.1211 58.6049 92.4789 57.4832 91.6488 56.5067C90.1008 54.7657 88.1244 53.4598 85.9159 52.7184C81.8161 51.2616 77.374 51.0659 73.162 52.1565C71.286 52.6814 69.5698 53.6642 68.1678 55.0167C66.7108 56.6726 65.7559 58.7094 65.4149 60.8885C65.1013 62.8226 65.1013 64.7946 65.4149 66.7288C66.0463 71.281 69.7336 75.4229 74.5763 77.0329C76.1655 77.5561 77.8279 77.8225 79.501 77.8221C81.5019 77.822 83.4835 77.4317 85.335 76.673C88.7932 75.2432 91.5769 72.5498 93.1199 69.1406C93.756 67.7039 94.1261 66.1636 94.2122 64.5947C95.2475 64.2341 96.3553 64.1319 97.4392 64.2969C98.5231 64.462 99.5502 64.8893 100.431 65.5418C100.431 65.6491 100.381 65.7501 100.362 65.8575C100.023 67.9293 100.023 70.0426 100.362 72.1144C101.037 76.9761 104.971 81.3894 110.148 83.1131C111.847 83.672 113.625 83.9555 115.414 83.9528C117.552 83.9573 119.671 83.5455 121.652 82.7406C125.347 81.2113 128.323 78.3332 129.974 74.6905C132.057 70.1003 131.426 64.6768 128.465 61.2168ZM126.084 72.9415C124.888 75.5788 122.735 77.6638 120.061 78.7755C117.338 79.8692 114.316 79.9632 111.531 79.0407C107.863 77.8284 105.085 74.7978 104.63 71.5146C104.351 69.8921 104.34 68.2348 104.598 66.6088C104.833 65.1209 105.478 63.728 106.461 62.5869C107.396 61.7299 108.515 61.0972 109.731 60.737C111.323 60.3237 112.961 60.1115 114.606 60.1056C116.747 60.0983 118.873 60.4659 120.888 61.1916C122.55 61.7272 124.044 62.6844 125.226 63.9696C127.12 66.23 127.467 69.8288 126.084 72.9415ZM75.9274 72.9415C72.5874 71.8303 70.0682 69.0838 69.6515 66.1037C69.4081 64.6172 69.4081 63.1011 69.6515 61.6146C69.8644 60.2704 70.4458 59.0116 71.331 57.9778C72.1767 57.2037 73.187 56.6317 74.2858 56.3047C75.7472 55.9356 77.2487 55.749 78.756 55.7491C80.7186 55.7397 82.6677 56.0752 84.5142 56.7403C86.0264 57.2294 87.3875 58.0991 88.4666 59.2659C90.165 61.2673 90.487 64.6073 89.2495 67.3854C88.153 69.7939 86.1829 71.6962 83.7376 72.7079C81.2451 73.7106 78.4781 73.7978 75.9274 72.9542V72.9415Z" fill="#4F47AD"/>
<path d="M89.2239 67.3917C90.4867 64.6136 90.1394 61.2736 88.441 59.2722C87.3619 58.1054 86.0008 57.2357 84.4886 56.7466C82.6421 56.0816 80.693 55.746 78.7304 55.7554C77.2231 55.7553 75.7216 55.9419 74.2602 56.311C73.1614 56.638 72.1511 57.2101 71.3054 57.9842C70.4202 59.0179 69.8388 60.2767 69.6259 61.6209C69.3825 63.1074 69.3825 64.6235 69.6259 66.11C70.0426 69.0901 72.5618 71.8366 75.9018 72.9478C78.444 73.7873 81.201 73.7024 83.6867 72.7079C86.1404 71.7031 88.12 69.8025 89.2239 67.3917ZM79.8543 67.8337C79.1029 66.9687 79.4817 65.5039 79.8038 64.2664C80.1258 63.0289 80.5488 61.583 81.6979 61.2105C82.847 60.838 84.7033 62.89 83.9898 65.3965C83.2763 67.9031 80.6056 68.705 79.8543 67.8337Z" fill="white"/>
<path d="M117.592 65.5165C116.33 65.9332 115.85 67.5495 115.49 68.9386C115.13 70.3276 114.707 71.9692 115.547 72.9415C116.387 73.9138 119.367 73.0173 120.162 70.2076C120.958 67.398 118.868 65.0935 117.592 65.5165Z" fill="#212121"/>
<path d="M81.6789 61.2168C80.5487 61.5894 80.1194 63.0352 79.7847 64.2727C79.4501 65.5102 79.0839 66.975 79.8352 67.84C80.5866 68.705 83.2384 67.9095 83.9518 65.4029C84.6653 62.8963 82.809 60.8443 81.6789 61.2168Z" fill="#212121"/>
<path d="M97.7349 77.6327C96.0112 79.1417 94.1234 80.0004 92.7154 79.71C90.6456 79.1091 88.7959 77.9177 87.3929 76.2816C86.2122 74.6779 89.3754 74.0907 93.7067 74.4758C98.0379 74.861 99.4585 76.1174 97.7349 77.6327Z" fill="white"/>
<path d="M91.8631 89.2059C94.4517 89.1175 99.2944 90.8791 103.089 85.4176C103.143 85.356 103.211 85.3085 103.287 85.2793C103.363 85.2501 103.445 85.24 103.526 85.25C103.607 85.2599 103.685 85.2896 103.752 85.3365C103.818 85.3833 103.873 85.4459 103.91 85.5187C104.459 86.7309 105.09 89.4016 101.321 91.3779C97.5518 93.3541 93.4984 91.2453 91.579 90.0141C91.2065 89.7426 91.3959 89.2249 91.8631 89.2059Z" fill="white"/>
<path d="M176.563 133.377C169.372 122.909 158.392 113.261 149.572 106.859C147.962 105.836 145.651 103.222 143.763 102.964C141.875 102.705 139.697 103.86 137.095 105.489C133.231 108.217 134.905 107.276 133.471 108.539C132.038 109.796 130.894 111.349 130.119 113.091C129.718 113.959 129.503 114.901 129.487 115.856C129.48 116.811 129.67 117.756 130.045 118.634C130.42 119.512 130.972 120.303 131.666 120.958C132.359 121.612 133.18 122.115 134.077 122.435C141.654 125.1 149.452 129.084 153.259 134.318C156.031 138.144 154.301 140.632 151.712 142.04C150.807 142.536 149.894 142.991 148.972 143.403C143.963 145.623 138.589 146.907 133.118 147.192C130.004 147.328 126.905 147.703 123.849 148.316C115.824 149.926 110.729 155.854 110.59 158.79C110.512 159.144 110.512 159.51 110.588 159.864C110.664 160.218 110.816 160.552 111.032 160.842C112.996 163.317 118.141 160.495 119.871 158.948C116.759 162.578 116.26 163.904 116.247 165.142C116.285 165.573 116.431 165.988 116.67 166.348C116.907 166.708 117.231 167.004 117.611 167.207C117.992 167.41 118.417 167.514 118.849 167.51C119.29 167.507 119.724 167.394 120.111 167.181C122.336 165.996 124.246 164.299 125.686 162.231C124.563 163.791 123.609 166.537 124.424 167.952C125.238 169.366 126.318 169.214 128.136 168.52C129.735 167.667 131.117 166.46 132.177 164.99C133.074 163.887 133.761 162.629 134.204 161.278H142.974C151.946 161.202 192.815 157.49 176.563 133.377Z" fill="#EDBA89"/>
<path d="M112.843 162.143C112.398 162.148 111.955 162.082 111.53 161.947C110.892 161.711 110.363 161.248 110.044 160.648C109.725 160.047 109.638 159.35 109.8 158.689C111.776 149.951 123.204 147.672 126.664 147.192C129.032 146.857 131.229 146.636 133.553 146.403C136.52 146.1 139.601 145.803 143.099 145.222C143.187 145.222 151.698 143.921 153.713 138.959C153.908 138.402 153.984 137.81 153.934 137.222C153.879 136.635 153.698 136.066 153.403 135.555C151.433 131.603 144.747 127.815 141.843 127.019C141.724 126.983 141.622 126.905 141.558 126.798C141.527 126.746 141.506 126.687 141.498 126.627C141.489 126.566 141.492 126.504 141.508 126.445C141.52 126.387 141.546 126.333 141.584 126.287C141.622 126.239 141.669 126.198 141.723 126.167C141.775 126.136 141.833 126.116 141.893 126.11C141.954 126.1 142.016 126.1 142.076 126.11C145.069 126.893 152.065 130.776 154.23 135.132C154.584 135.76 154.797 136.458 154.855 137.176C154.913 137.894 154.814 138.617 154.565 139.293C152.349 144.767 143.61 146.074 143.238 146.125C139.727 146.706 136.634 147.015 133.641 147.388C131.33 147.627 129.139 147.836 126.791 148.17C119.978 149.136 112.174 152.476 110.716 158.961C110.604 159.397 110.657 159.859 110.864 160.258C111.072 160.657 111.419 160.967 111.839 161.126C114.447 161.972 119.416 158.904 120.868 157.938C120.917 157.901 120.973 157.875 121.032 157.862C121.093 157.85 121.155 157.85 121.215 157.862C121.275 157.877 121.333 157.9 121.386 157.932C121.436 157.965 121.478 158.008 121.512 158.058C121.576 158.164 121.599 158.29 121.575 158.411C121.548 158.531 121.476 158.635 121.373 158.702C119.258 160.015 115.64 162.143 112.843 162.143Z" fill="#B27C4A"/>
<path d="M118.533 167.655C118.224 167.658 117.918 167.602 117.63 167.491C117.072 167.211 116.615 166.763 116.324 166.211C116.033 165.658 115.922 165.028 116.007 164.41C116.007 161.587 119.385 158.904 120.844 157.875C120.944 157.82 121.061 157.804 121.172 157.831C121.283 157.86 121.381 157.927 121.45 158.02C121.515 158.116 121.544 158.233 121.532 158.348C121.516 158.461 121.46 158.564 121.374 158.639C120.338 159.371 116.954 161.96 116.954 164.41C116.954 165.092 117.093 166.304 117.983 166.626C118.501 166.834 120.509 167.118 124.821 162.389C124.91 162.305 125.027 162.257 125.15 162.257C125.27 162.258 125.385 162.305 125.472 162.389C125.516 162.433 125.553 162.484 125.579 162.541C125.588 162.599 125.588 162.659 125.579 162.718C125.589 162.778 125.589 162.84 125.579 162.901C125.553 162.955 125.516 163.005 125.472 163.046C122.738 166.058 120.313 167.655 118.533 167.655Z" fill="#B27C4A"/>
<path d="M143.605 102.894C143.605 102.894 169.214 120.642 177.03 135.095C182.29 144.812 180.604 153.102 163.494 158.071C153.763 160.85 143.624 161.919 133.528 161.227C133.528 161.227 131.148 166.19 129.355 167.598C127.183 169.315 125.983 169.353 124.613 168.785C123.243 168.217 123.186 166.14 123.799 164.536C123.995 163.882 124.282 163.26 124.651 162.686" stroke="#B27C4A" stroke-width="0.94707" stroke-miterlimit="10" stroke-linecap="round"/>
<path d="M74.6012 100.4C74.6012 100.4 84.4823 106.304 94.5655 107.08C104.522 107.844 120.522 108.229 141.717 98.1904C142.57 99.5197 143.186 100.988 143.535 102.528L143.617 102.894C139.647 104.935 135.507 106.625 131.242 107.945C123.836 110.275 109.775 112.693 96.3333 111.973C88.1246 111.492 80.1517 109.045 73.0859 104.839V104.738C73.149 103.182 73.6744 101.681 74.5949 100.426L74.6012 100.4Z" fill="#263039"/>
<path fill-rule="evenodd" clip-rule="evenodd" d="M90.3038 109.019C89.638 108.913 88.9576 109.074 88.4097 109.467C87.8639 109.866 87.4948 110.461 87.3805 111.127C87.1891 111.771 87.2561 112.464 87.5673 113.06C87.8785 113.655 88.4094 114.106 89.0474 114.316C89.1838 114.349 89.3237 114.366 89.4641 114.366H89.5777L89.6598 114.291C89.8137 114.16 89.9203 113.983 89.9629 113.786C90.0017 113.585 89.9681 113.377 89.8682 113.198L89.7735 113.009L89.5651 113.041C89.4939 113.05 89.4217 113.05 89.3504 113.041C89.0535 112.923 88.8121 112.697 88.6748 112.409C88.5314 112.114 88.5088 111.774 88.6117 111.462V111.399C88.6586 111.073 88.8308 110.779 89.0916 110.578C89.2197 110.477 89.3666 110.403 89.5238 110.36C89.6811 110.316 89.8453 110.305 90.0071 110.326H90.0702H90.2091L90.3164 110.212C90.4486 110.076 90.5385 109.905 90.5753 109.719C90.6085 109.53 90.5866 109.335 90.5122 109.158L90.449 109.006L90.3038 109.019Z" fill="#FFB842"/>
<path d="M90.9728 111.317C90.9938 111.529 90.9767 111.742 90.9223 111.948C90.8816 112.133 90.8157 112.312 90.7266 112.479C90.9791 112.561 91.6989 112.838 91.9325 112.933C92.0409 112.713 92.1276 112.482 92.1914 112.245C92.2416 112.008 92.2607 111.766 92.2482 111.525L90.9728 111.317Z" fill="#FFB842"/>
<path d="M96.9902 122.012C95.5064 127.695 90.2975 128.295 86.1431 127.202C81.9886 126.11 80.8837 122.208 81.9696 118.054C83.0556 113.899 86.4209 111.197 90.569 112.283C94.7172 113.369 98.3161 116.942 96.9902 122.012Z" fill="#FFB842"/>
<path d="M94.9378 117.081C94.3755 115.572 93.3612 114.274 92.0334 113.362C91.3146 112.881 90.5209 112.523 89.6847 112.302C88.8204 112.074 87.923 111.999 87.0329 112.081C85.8446 112.192 84.6977 112.575 83.6807 113.2C82.6637 113.824 81.8039 114.674 81.1675 115.684C80.5312 116.694 80.1353 117.836 80.0105 119.023C79.8857 120.21 80.0352 121.41 80.4476 122.53C80.9964 124.033 82.0008 125.326 83.3204 126.23C84.7825 127.23 86.5418 127.702 88.3083 127.569C89.5025 127.459 90.6555 127.077 91.6783 126.451C92.7011 125.825 93.5663 124.972 94.207 123.958C94.8478 122.945 95.2469 121.797 95.3736 120.605C95.5003 119.413 95.3512 118.207 94.9378 117.081Z" fill="#F9D073"/>
</g>
<defs>
<clipPath id="clip0_977_12439">
<rect width="210" height="208" fill="white"/>
</clipPath>
</defs>
</svg>
